<svg width="14" height="14" viewBox="0 0 14 14" fill="none" xmlns="http://www.w3.org/2000/svg">
<path d="M8.36505 8.1707L8.98586 8.23586V13.2891L7.27108 11.458V8.54489L7.76912 8.78812L8.36505 8.1707ZM5.63204 8.1707L5.0109 8.23586V13.2891L6.72565 11.458V8.54489L6.22764 8.78812L5.63204 8.1707ZM10.3346 5.00484L10.5355 5.70412L9.93245 6.11073L9.88194 6.83728L9.1762 7.01296L8.88081 7.6778L8.15729 7.60137L7.65211 8.12328L6.99854 7.80399L6.34497 8.12328L5.8398 7.59965L5.11628 7.67607L4.82089 7.01127L4.11514 6.83728L4.06464 6.11174L3.45985 5.70377L3.66077 5.00451L3.23438 4.41541L3.66214 3.82698L3.45985 3.12908L4.06327 2.72248L4.11378 1.99691L4.82089 1.82295L5.11628 1.15814L5.8398 1.23454L6.34497 0.710938L6.99854 1.03023L7.65211 0.710938L8.15729 1.23454L8.88081 1.15814L9.1762 1.82295L9.88194 1.99864L9.93245 2.72418L10.5355 3.13078L10.3346 3.83007L10.7627 4.41541L10.3346 5.00484ZM8.98892 4.41541C8.98892 4.02472 8.87307 3.64281 8.65601 3.31796C8.43896 2.99311 8.13045 2.73992 7.7695 2.59041C7.40854 2.4409 7.01136 2.40178 6.62818 2.478C6.245 2.55422 5.89302 2.74236 5.61676 3.01862C5.3405 3.29488 5.15236 3.64686 5.07614 4.03004C4.99992 4.41322 5.03904 4.8104 5.18855 5.17135C5.33806 5.53231 5.59125 5.84082 5.9161 6.05787C6.24095 6.27493 6.62286 6.39078 7.01356 6.39078C7.5372 6.38996 8.03917 6.18158 8.40945 5.81131C8.77972 5.44103 8.9881 4.93906 8.98892 4.41541ZM7.01356 2.9858C6.73081 2.9858 6.45442 3.06964 6.21932 3.22673C5.98423 3.38381 5.80099 3.60708 5.69279 3.8683C5.58459 4.12952 5.55628 4.41696 5.61144 4.69428C5.66659 4.97159 5.80275 5.22631 6.00268 5.42625C6.2026 5.62618 6.45733 5.76234 6.73464 5.8175C7.01195 5.87266 7.29939 5.84436 7.56061 5.73616C7.82184 5.62796 8.04511 5.44473 8.2022 5.20964C8.35929 4.97455 8.44314 4.69816 8.44314 4.41541C8.44206 4.03669 8.29106 3.6738 8.02317 3.4061C7.75527 3.13839 7.39228 2.98766 7.01356 2.98684V2.9858Z" fill="#E46A28"/>
</svg>
