<svg width="24" height="24" viewBox="0 0 24 24" fill="none" xmlns="http://www.w3.org/2000/svg">
<path d="M6.78442 18.5125L6.74968 18.5644C5.7534 20.054 6.20229 22.0737 7.73569 23.0011L9.30673 20.2405L6.78442 18.5125ZM14.242 5.05554V2.71082C14.242 1.47259 13.2382 0.468811 12 0.468811C10.7618 0.468811 9.75801 1.47259 9.75801 2.71082V5.05554H14.242ZM17.2156 18.5125L17.2503 18.5644C18.2466 20.054 17.7977 22.0737 16.2643 23.0011L14.6932 20.2405L17.2156 18.5125Z" fill="#80B6FF"/>
<path d="M11.9999 4.83612C8.16131 4.83612 5.04956 7.94787 5.04956 11.7864V13.8042C5.04956 17.6427 8.16131 20.7544 11.9998 20.7544C15.8384 20.7544 18.9501 17.6427 18.9501 13.8042V11.7864C18.9501 7.94787 15.8384 4.83612 11.9999 4.83612Z" fill="#80B6FF"/>
<path d="M12 7.07819C9.40389 7.07819 7.29175 9.19028 7.29175 11.7864V13.8042C7.29175 16.4004 9.40389 18.5125 12 18.5125C14.5961 18.5125 16.7082 16.4004 16.7082 13.8042V11.7864C16.7082 9.19028 14.5961 7.07819 12 7.07819Z" fill="#BFDBFF"/>
<path d="M22.6658 12.6153L16.4513 6.4009C17.6071 5.24509 19.481 5.24509 20.6368 6.4009L22.6657 8.42983C23.8216 9.58564 23.8216 11.4595 22.6658 12.6153ZM1.33389 12.6153L7.54839 6.40086C6.39258 5.24504 4.51864 5.24504 3.36287 6.40086L1.33394 8.42979C0.178082 9.58564 0.178082 11.4595 1.33389 12.6153ZM10.8088 14.8583L9.61768 12.7953L10.8088 10.7324H13.1909L14.382 12.7953L13.1909 14.8583H10.8088Z" fill="#80B6FF"/>
<path d="M14.2677 7.13297C14.2124 7.1059 14.1523 7.08999 14.0909 7.08616C14.0294 7.08232 13.9678 7.09062 13.9096 7.1106C13.8514 7.13058 13.7976 7.16184 13.7515 7.20259C13.7053 7.24335 13.6676 7.2928 13.6406 7.34811C13.5268 7.58069 13.6231 7.86146 13.8557 7.97524C13.9557 8.02436 14.0538 8.07744 14.1496 8.13436L12.9203 10.2636H11.0794L9.85016 8.13445C9.94911 8.07563 10.0504 8.02092 10.1539 7.97046C10.3868 7.85729 10.4839 7.5768 10.3707 7.34389C10.2575 7.11099 9.97693 7.01404 9.74416 7.12711C8.88198 7.54628 8.15242 8.19558 7.63605 9.0033C7.104 9.83489 6.82275 10.7973 6.82275 11.7866V13.8044C6.82275 16.659 9.14516 18.9814 11.9999 18.9814C14.8545 18.9814 17.1769 16.659 17.1769 13.8044V11.7866C17.1769 10.7997 16.8969 9.8392 16.3672 9.00898C15.8532 8.20253 15.1267 7.55342 14.2677 7.13297ZM16.2392 11.7865V12.3266H14.6526L13.7322 10.7324L14.9032 8.70411C15.7385 9.49589 16.2392 10.6113 16.2392 11.7865ZM12.9202 14.3895H11.0794L10.159 12.7953L11.0794 11.2011H12.9203L13.8407 12.7953L12.9202 14.3895ZM9.09631 8.70392L10.2675 10.7324L9.34703 12.3266H7.76038V11.7865C7.76038 10.6105 8.26098 9.49551 9.09631 8.70392ZM7.76038 13.8043V13.2642H9.34703L10.2675 14.8584L9.095 16.8891C8.27387 16.1155 7.76038 15.0188 7.76038 13.8043ZM9.84993 17.4568L11.0794 15.3272H12.9203L14.1498 17.4567C13.519 17.8294 12.7841 18.0437 11.9999 18.0437C11.2157 18.0437 10.4807 17.8295 9.84993 17.4568ZM14.9047 16.8891L13.7323 14.8584L14.6527 13.2642H16.2393V13.8043C16.2392 15.0187 15.7257 16.1154 14.9047 16.8891Z" fill="#212529"/>
<path d="M22.9974 8.09833L20.9685 6.06935C20.321 5.42182 19.46 5.0652 18.5442 5.0652C17.7553 5.0652 17.0075 5.33045 16.4013 5.81778C15.8811 5.43281 15.3128 5.11759 14.7108 4.88016V2.71082C14.7108 1.21605 13.4947 0 12 0C10.5052 0 9.28915 1.2161 9.28915 2.71082V4.88016C8.68715 5.1176 8.11882 5.43282 7.59865 5.81778C6.99253 5.33045 6.24467 5.0652 5.45576 5.0652C4.54002 5.0652 3.67905 5.42182 3.03148 6.06935L1.00255 8.09833C-0.334182 9.43505 -0.334182 11.6101 1.00255 12.9468C1.09048 13.0347 1.20972 13.0841 1.33404 13.0841C1.45837 13.0841 1.5776 13.0347 1.66554 12.9468L4.86627 9.74616C4.68053 10.3946 4.5809 11.0791 4.5809 11.7864V13.8043C4.5809 15.5771 5.20625 17.2063 6.24749 18.4839C5.78233 19.2735 5.63583 20.1925 5.83643 21.0953C6.05246 22.0676 6.64082 22.8869 7.49312 23.4023C7.54669 23.4347 7.60622 23.4561 7.66818 23.4651C7.73014 23.4741 7.79329 23.4706 7.85388 23.4548C7.91447 23.439 7.97129 23.4113 8.02099 23.3732C8.07068 23.3351 8.11225 23.2874 8.14323 23.233L9.5282 20.7994C10.1736 21.028 10.8478 21.1655 11.5312 21.208V22.1509C11.5312 22.4098 11.7412 22.6197 12.0001 22.6197C12.2589 22.6197 12.4689 22.4098 12.4689 22.1509V21.208C13.1523 21.1655 13.8265 21.028 14.4719 20.7994L15.8569 23.233C15.8879 23.2874 15.9294 23.3351 15.9791 23.3732C16.0288 23.4113 16.0856 23.4391 16.1462 23.4549C16.2068 23.4706 16.27 23.4741 16.3319 23.4651C16.3939 23.4561 16.4534 23.4347 16.507 23.4023C17.3593 22.8869 17.9476 22.0676 18.1636 21.0953C18.3643 20.1925 18.2177 19.2734 17.7526 18.4839C18.7939 17.2064 19.4192 15.5771 19.4192 13.8043V11.7864C19.4197 11.0963 19.3236 10.4096 19.1338 9.74611L22.3346 12.9469C22.4225 13.0348 22.5418 13.0841 22.6661 13.0841C22.7904 13.0841 22.9096 13.0348 22.9976 12.9469C24.3341 11.6101 24.3341 9.43505 22.9974 8.09833ZM10.2267 2.71082C10.2267 1.73306 11.0222 0.937626 11.9999 0.937626C12.9776 0.937626 13.7731 1.73306 13.7731 2.71082V4.58204C13.2047 4.4421 12.6109 4.36732 11.9999 4.36732C11.3889 4.36732 10.7951 4.4421 10.2267 4.58204V2.71082ZM1.36527 11.9211C0.707568 10.9523 0.80766 9.6192 1.66549 8.76132L3.69442 6.73239C4.16488 6.26194 4.79037 6.00287 5.45566 6.00287C5.96193 6.00287 6.44509 6.15289 6.85446 6.43188L1.36527 11.9211ZM7.58754 22.3136C7.1673 21.9433 6.87607 21.4518 6.75165 20.8919C6.62399 20.3176 6.68644 19.7344 6.92488 19.2107C7.44247 19.6971 8.02695 20.107 8.66056 20.4281L7.58754 22.3136ZM17.2482 20.8919C17.1238 21.4518 16.8325 21.9433 16.4123 22.3136L15.3393 20.4281C15.9729 20.107 16.5574 19.6971 17.075 19.2107C17.3134 19.7344 17.3758 20.3176 17.2482 20.8919ZM18.4814 13.8043C18.4814 17.3781 15.5738 20.2857 12 20.2857C8.42606 20.2857 5.51848 17.3781 5.51848 13.8043V11.7864C5.51848 8.21258 8.42606 5.305 12 5.305C15.5738 5.305 18.4814 8.21258 18.4814 11.7864V13.8043ZM22.6346 11.9211L17.1454 6.43179C17.5547 6.1528 18.0379 6.00283 18.5442 6.00283C19.2095 6.00283 19.835 6.26189 20.3054 6.73235L22.3343 8.76132C23.1923 9.6192 23.2924 10.9523 22.6346 11.9211Z" fill="#212529"/>
<path d="M12.0059 7.54706C12.1292 7.54706 12.2502 7.4969 12.3374 7.4097C12.4245 7.32203 12.4747 7.20155 12.4747 7.07825C12.4747 6.95495 12.4246 6.834 12.3374 6.7468C12.2502 6.6596 12.1292 6.60944 12.0059 6.60944C11.8826 6.60944 11.7617 6.6596 11.674 6.7468C11.5868 6.834 11.5371 6.95495 11.5371 7.07825C11.5371 7.20155 11.5868 7.3225 11.674 7.4097C11.7624 7.49723 11.8816 7.54655 12.0059 7.54706Z" fill="#212529"/>
</svg>
