<svg width="24" height="24" viewBox="0 0 24 24" fill="none" xmlns="http://www.w3.org/2000/svg">
<g clip-path="url(#clip0_27_384)">
<path d="M6.78442 18.7775L6.74968 18.8294C5.7534 20.319 6.20229 22.3388 7.73569 23.2662L9.30673 20.5056L6.78442 18.7775ZM14.242 5.32055V2.97583C14.242 1.7376 13.2382 0.733826 12 0.733826C10.7618 0.733826 9.75801 1.7376 9.75801 2.97583V5.32055H14.242ZM17.2156 18.7775L17.2503 18.8294C18.2466 20.319 17.7977 22.3388 16.2643 23.2662L14.6932 20.5056L17.2156 18.7775Z" fill="#80B6FF"/>
<path d="M11.9999 5.10114C8.16131 5.10114 5.04956 8.21288 5.04956 12.0514V14.0692C5.04956 17.9078 8.16131 21.0195 11.9998 21.0195C15.8384 21.0195 18.9501 17.9077 18.9501 14.0692V12.0514C18.9501 8.21288 15.8384 5.10114 11.9999 5.10114Z" fill="#80B6FF"/>
<path d="M12 7.3432C9.40389 7.3432 7.29175 9.4553 7.29175 12.0514V14.0693C7.29175 16.6654 9.40389 18.7775 12 18.7775C14.5961 18.7775 16.7082 16.6654 16.7082 14.0693V12.0514C16.7082 9.4553 14.5961 7.3432 12 7.3432Z" fill="#BFDBFF"/>
<path d="M22.6658 12.8804L16.4513 6.66592C17.6071 5.5101 19.481 5.5101 20.6368 6.66592L22.6657 8.69485C23.8216 9.85066 23.8216 11.7246 22.6658 12.8804ZM1.33389 12.8804L7.54839 6.66587C6.39258 5.51006 4.51864 5.51006 3.36287 6.66587L1.33394 8.6948C0.178082 9.85066 0.178082 11.7246 1.33389 12.8804ZM10.8088 15.1234L9.61768 13.0603L10.8088 10.9974H13.1909L14.382 13.0603L13.1909 15.1234H10.8088Z" fill="#80B6FF"/>
<path d="M14.2677 7.39799C14.2124 7.37092 14.1523 7.35501 14.0909 7.35117C14.0294 7.34733 13.9678 7.35564 13.9096 7.37562C13.8514 7.3956 13.7976 7.42686 13.7515 7.46761C13.7053 7.50836 13.6676 7.55781 13.6406 7.61313C13.5268 7.84571 13.6231 8.12648 13.8557 8.24026C13.9557 8.28937 14.0538 8.34245 14.1496 8.39937L12.9203 10.5286H11.0794L9.85016 8.39947C9.94911 8.34064 10.0504 8.28593 10.1539 8.23548C10.3868 8.12231 10.4839 7.84181 10.3707 7.60891C10.2575 7.376 9.97693 7.27905 9.74416 7.39213C8.88198 7.81129 8.15242 8.46059 7.63605 9.26832C7.104 10.0999 6.82275 11.0623 6.82275 12.0516V14.0694C6.82275 16.924 9.14516 19.2464 11.9999 19.2464C14.8545 19.2464 17.1769 16.924 17.1769 14.0694V12.0516C17.1769 11.0647 16.8969 10.1042 16.3672 9.27399C15.8532 8.46754 15.1267 7.81843 14.2677 7.39799ZM16.2392 12.0515V12.5916H14.6526L13.7322 10.9974L14.9032 8.96912C15.7385 9.7609 16.2392 10.8763 16.2392 12.0515ZM12.9202 14.6546H11.0794L10.159 13.0604L11.0794 11.4662H12.9203L13.8407 13.0604L12.9202 14.6546ZM9.09631 8.96894L10.2675 10.9974L9.34703 12.5916H7.76038V12.0515C7.76038 10.8755 8.26098 9.76053 9.09631 8.96894ZM7.76038 14.0693V13.5292H9.34703L10.2675 15.1234L9.095 17.1541C8.27387 16.3805 7.76038 15.2838 7.76038 14.0693ZM9.84993 17.7218L11.0794 15.5922H12.9203L14.1498 17.7217C13.519 18.0944 12.7841 18.3087 11.9999 18.3087C11.2157 18.3087 10.4807 18.0945 9.84993 17.7218ZM14.9047 17.1541L13.7323 15.1234L14.6527 13.5292H16.2393V14.0693C16.2392 15.2838 15.7257 16.3804 14.9047 17.1541Z" fill="#212529"/>
<path d="M22.9974 8.36334L20.9685 6.33436C20.321 5.68684 19.46 5.33021 18.5442 5.33021C17.7553 5.33021 17.0075 5.59547 16.4013 6.0828C15.8811 5.69782 15.3128 5.3826 14.7108 5.14517V2.97583C14.7108 1.48107 13.4947 0.265015 12 0.265015C10.5052 0.265015 9.28915 1.48112 9.28915 2.97583V5.14517C8.68715 5.38261 8.11882 5.69783 7.59865 6.0828C6.99253 5.59547 6.24467 5.33021 5.45576 5.33021C4.54002 5.33021 3.67905 5.68684 3.03148 6.33436L1.00255 8.36334C-0.334182 9.70007 -0.334182 11.8751 1.00255 13.2119C1.09048 13.2997 1.20972 13.3491 1.33404 13.3491C1.45837 13.3491 1.5776 13.2997 1.66554 13.2119L4.86627 10.0112C4.68053 10.6596 4.5809 11.3441 4.5809 12.0514V14.0693C4.5809 15.8421 5.20625 17.4714 6.24749 18.7489C5.78233 19.5385 5.63583 20.4575 5.83643 21.3603C6.05246 22.3326 6.64082 23.1519 7.49312 23.6673C7.54669 23.6998 7.60622 23.7211 7.66818 23.7301C7.73014 23.7391 7.79329 23.7356 7.85388 23.7198C7.91447 23.7041 7.97129 23.6763 8.02099 23.6382C8.07068 23.6001 8.11225 23.5525 8.14323 23.498L9.5282 21.0644C10.1736 21.293 10.8478 21.4306 11.5312 21.473V22.4159C11.5312 22.6749 11.7412 22.8847 12.0001 22.8847C12.2589 22.8847 12.4689 22.6749 12.4689 22.4159V21.473C13.1523 21.4305 13.8265 21.293 14.4719 21.0644L15.8569 23.498C15.8879 23.5525 15.9294 23.6001 15.9791 23.6382C16.0288 23.6763 16.0856 23.7041 16.1462 23.7199C16.2068 23.7356 16.27 23.7391 16.3319 23.7301C16.3939 23.7211 16.4534 23.6997 16.507 23.6673C17.3593 23.1519 17.9476 22.3326 18.1636 21.3603C18.3643 20.4576 18.2177 19.5384 17.7526 18.749C18.7939 17.4714 19.4192 15.8421 19.4192 14.0693V12.0514C19.4197 11.3614 19.3236 10.6746 19.1338 10.0111L22.3346 13.2119C22.4225 13.2998 22.5418 13.3492 22.6661 13.3492C22.7904 13.3492 22.9096 13.2998 22.9976 13.2119C24.3341 11.8751 24.3341 9.70007 22.9974 8.36334ZM10.2267 2.97583C10.2267 1.99808 11.0222 1.20264 11.9999 1.20264C12.9776 1.20264 13.7731 1.99808 13.7731 2.97583V4.84705C13.2047 4.70711 12.6109 4.63234 11.9999 4.63234C11.3889 4.63234 10.7951 4.70711 10.2267 4.84705V2.97583ZM1.36527 12.1861C0.707568 11.2173 0.80766 9.88422 1.66549 9.02634L3.69442 6.99741C4.16488 6.52695 4.79037 6.26789 5.45566 6.26789C5.96193 6.26789 6.44509 6.41791 6.85446 6.6969L1.36527 12.1861ZM7.58754 22.5786C7.1673 22.2083 6.87607 21.7168 6.75165 21.1569C6.62399 20.5826 6.68644 19.9994 6.92488 19.4757C7.44247 19.9621 8.02695 20.3721 8.66056 20.6931L7.58754 22.5786ZM17.2482 21.1569C17.1238 21.7168 16.8325 22.2083 16.4123 22.5786L15.3393 20.6931C15.9729 20.3721 16.5574 19.9621 17.075 19.4757C17.3134 19.9994 17.3758 20.5826 17.2482 21.1569ZM18.4814 14.0693C18.4814 17.6431 15.5738 20.5507 12 20.5507C8.42606 20.5507 5.51848 17.6431 5.51848 14.0693V12.0514C5.51848 8.47759 8.42606 5.57001 12 5.57001C15.5738 5.57001 18.4814 8.47759 18.4814 12.0514V14.0693ZM22.6346 12.1861L17.1454 6.6968C17.5547 6.41781 18.0379 6.26784 18.5442 6.26784C19.2095 6.26784 19.835 6.52691 20.3054 6.99736L22.3343 9.02634C23.1923 9.88422 23.2924 11.2173 22.6346 12.1861Z" fill="#212529"/>
<path d="M12.0059 7.81208C12.1292 7.81208 12.2502 7.76191 12.3374 7.67472C12.4245 7.58705 12.4747 7.46656 12.4747 7.34326C12.4747 7.21997 12.4246 7.09901 12.3374 7.01181C12.2502 6.92461 12.1292 6.87445 12.0059 6.87445C11.8826 6.87445 11.7617 6.92461 11.674 7.01181C11.5868 7.09901 11.5371 7.21997 11.5371 7.34326C11.5371 7.46656 11.5868 7.58752 11.674 7.67472C11.7624 7.76224 11.8816 7.81157 12.0059 7.81208Z" fill="#212529"/>
</g>
<defs>
<clipPath id="clip0_27_384">
<rect width="24" height="24" fill="white"/>
</clipPath>
</defs>
</svg>
