<svg width="61" height="51" viewBox="0 0 61 51" fill="none" xmlns="http://www.w3.org/2000/svg">
<path d="M23.6438 3.30125C19.0569 1.1113 12.6458 0.0385505 4.06251 0.000464544C3.25301 -0.0105333 2.4594 0.225513 1.78751 0.677125C1.23601 1.0499 0.784558 1.55248 0.472868 2.14066C0.161177 2.72884 -0.00120397 3.3846 6.72072e-06 4.05027V40.3716C6.72072e-06 42.8268 1.74688 44.6791 4.06251 44.6791C13.0851 44.6791 22.1356 45.522 27.5564 50.6459C27.6306 50.7163 27.7238 50.7634 27.8245 50.7812C27.9252 50.7991 28.0289 50.787 28.1228 50.7464C28.2166 50.7059 28.2965 50.6386 28.3525 50.553C28.4084 50.4674 28.438 50.3673 28.4375 50.265V7.46785C28.4376 7.17911 28.3758 6.89371 28.2563 6.6309C28.1367 6.36809 27.9621 6.13399 27.7443 5.94441C26.5026 4.88287 25.1233 3.99379 23.6438 3.30125ZM59.15 0.673316C58.4778 0.222828 57.6841 -0.0119001 56.875 0.000464544C48.2917 0.0385505 41.8806 1.10623 37.2938 3.30125C35.8143 3.99252 34.4346 4.87986 33.1919 5.93933C32.9746 6.12919 32.8004 6.36337 32.681 6.62614C32.5617 6.88891 32.5 7.17417 32.5 7.46277V50.2625C32.4999 50.3607 32.5289 50.4568 32.5832 50.5387C32.6376 50.6206 32.7149 50.6846 32.8055 50.7227C32.8961 50.7608 32.9959 50.7713 33.0924 50.7529C33.1889 50.7345 33.2779 50.688 33.3481 50.6192C36.6069 47.3819 42.3262 44.6753 56.8801 44.6765C57.9575 44.6765 58.9908 44.2485 59.7527 43.4867C60.5146 42.7248 60.9426 41.6915 60.9426 40.614V4.05154C60.9441 3.38456 60.7813 2.72747 60.4687 2.1383C60.156 1.54913 59.7032 1.04599 59.15 0.673316Z" fill="#E46A28"/>
</svg>
