<svg width="41" height="41" viewBox="0 0 41 41" fill="none" xmlns="http://www.w3.org/2000/svg">
<g clip-path="url(#clip0_520_9405)">
<g filter="url(#filter0_i_520_9405)">
<path d="M40.7273 20.3636C40.7273 25.665 38.7015 30.4932 35.3818 34.1163C34.9764 34.5588 33.0265 32.9403 32.5838 33.3455C32.0965 33.7915 33.1128 36.2571 32.5838 36.6545C29.18 39.2119 24.9488 40.7273 20.3636 40.7273C18.5138 40.7273 16.7217 40.4806 15.0182 40.0184C14.5006 39.878 16.0276 38.1066 15.5273 37.9273C14.9194 37.7094 12.2886 39.0745 11.7091 38.802C4.79006 35.5487 0 28.5156 0 20.3636C0 19.9125 1.24384 19.2802 1.27273 18.8364C1.28182 18.6967 0.107982 18.2157 0.157548 17.8182C1.41016 7.77303 9.97915 0 20.3636 0C21.2724 0 21.0137 3.19372 21.8909 3.30909C22.8885 3.44028 25.0169 0.509489 25.9636 0.779683C31.1851 2.26995 35.5497 5.79206 38.1478 10.4364C38.3802 10.8518 37.2147 11.7854 37.4182 12.2182C37.6525 12.7166 39.251 12.7169 39.4452 13.2364C40.2741 15.4546 40.7273 17.8562 40.7273 20.3636Z" fill="#F2BD84"/>
</g>
<g style="mix-blend-mode:multiply" opacity="0.6">
<rect x="30.8416" y="13.9355" width="6.99084" height="3.78959" rx="1.89479" transform="rotate(125.156 30.8416 13.9355)" fill="#B47D41"/>
<rect x="26.6929" y="10.7812" width="6.99084" height="3.78959" rx="1.89479" transform="rotate(116.644 26.6929 10.7812)" fill="#B47D41"/>
<rect x="20.5378" y="8.9375" width="6.99084" height="3.78959" rx="1.89479" transform="rotate(83.1022 20.5378 8.9375)" fill="#B47D41"/>
<mask id="mask0_520_9405" style="mask-type:alpha" maskUnits="userSpaceOnUse" x="11" y="11" width="19" height="19">
<path d="M12.084 16.5813C9.99462 21.154 12.0078 26.5548 16.5805 28.6442C21.1532 30.7336 26.554 28.7205 28.6434 24.1477L28.6433 24.148C30.7327 19.5752 28.7196 14.1745 24.1468 12.0851C19.5741 9.9957 14.1733 12.0088 12.0839 16.5816L12.084 16.5813Z" fill="#FF9201"/>
</mask>
<g mask="url(#mask0_520_9405)">
<path d="M12.0843 16.5814C9.99493 21.1541 12.0081 26.5548 16.5808 28.6443C21.1535 30.7337 26.5543 28.7205 28.6437 24.1478C30.7331 19.575 28.72 14.1743 24.1472 12.0849C19.5745 9.9955 14.1737 12.0086 12.0843 16.5814Z" fill="#D99B58"/>
<path d="M11.8365 15.804C9.74712 20.3768 11.7603 25.7775 16.333 27.8669C20.9057 29.9563 26.3065 27.9432 28.3959 23.3704C30.4853 18.7977 28.4722 13.397 23.8994 11.3076C19.3267 9.21815 13.9259 11.2313 11.8365 15.804Z" fill="#C78C4B"/>
<ellipse cx="21.7397" cy="17.2351" rx="5.05523" ry="4.49217" transform="rotate(-165.563 21.7397 17.2351)" fill="#D99B58"/>
</g>
</g>
<mask id="mask1_520_9405" style="mask-type:alpha" maskUnits="userSpaceOnUse" x="0" y="0" width="41" height="41">
<path d="M20.3633 0C21.272 0 21.0136 3.19371 21.8906 3.30957C22.8882 3.44076 25.0172 0.509103 25.9639 0.779297C31.1853 2.26958 35.5494 5.79226 38.1475 10.4365C38.3798 10.8519 37.2154 11.7848 37.418 12.2178C37.6523 12.7162 39.2512 12.7169 39.4453 13.2363C40.2742 15.4545 40.7275 17.856 40.7275 20.3633C40.7275 25.6646 38.7015 30.493 35.3818 34.1162C34.9764 34.5587 33.0266 32.9405 32.584 33.3457C32.0969 33.7917 33.1124 36.2563 32.584 36.6543C29.1802 39.2116 24.9485 40.7275 20.3633 40.7275C18.5138 40.7275 16.7218 40.4806 15.0186 40.0186C14.5011 39.8781 16.027 38.1075 15.5273 37.9277C14.9195 37.7098 12.2885 39.0742 11.709 38.8018C4.79005 35.5484 0 28.5151 0 20.3633C0.000651683 19.9122 1.24358 19.2797 1.27246 18.8359C1.27922 18.6958 0.108158 18.2154 0.157227 17.8184C1.40983 7.77332 9.97896 0.000177042 20.3633 0ZM18.6562 9.16211C17.6177 9.28796 16.8774 10.2328 17.0029 11.2715L17.0752 11.876C14.9393 12.7034 13.1112 14.3321 12.084 16.5801C10.3213 20.4383 11.4793 24.8859 14.6309 27.4365C15.0978 27.8145 15.6087 28.1509 16.1602 28.4375C16.2977 28.509 16.4385 28.5774 16.5811 28.6426C17.0387 28.8517 17.5055 29.0171 17.9756 29.1455C18.2141 29.2107 18.4533 29.2665 18.6934 29.3115C18.7545 29.323 18.8157 29.3336 18.877 29.3438C19.285 29.4116 19.6939 29.4533 20.1016 29.4648C20.397 29.4732 20.6916 29.4666 20.9844 29.4463C22.7415 29.3248 24.4329 28.694 25.8408 27.6357C25.9583 27.5475 26.0741 27.4565 26.1875 27.3623C26.98 26.7039 27.67 25.9022 28.2139 24.9736C28.2916 24.8408 28.3668 24.7053 28.4385 24.5674C28.51 24.4297 28.5783 24.2892 28.6436 24.1465C28.7089 24.0035 28.7708 23.8593 28.8281 23.7148C29.0573 23.1376 29.2235 22.549 29.3291 21.958C29.4347 21.3668 29.4798 20.7724 29.4678 20.1836C29.4618 19.8891 29.4415 19.5955 29.4072 19.3047C29.3084 18.4676 29.0916 17.6504 28.7705 16.876L29.751 15.4844C30.3532 14.6289 30.1481 13.4473 29.293 12.8447C28.4375 12.2423 27.2549 12.4474 26.6523 13.3027L26.4492 13.5898C26.3348 13.4872 26.2179 13.3864 26.0977 13.2891C25.981 13.1946 25.8613 13.1028 25.7393 13.0137C25.6985 12.9839 25.6556 12.9569 25.6143 12.9277L25.8438 12.4736C26.3125 11.5385 25.9348 10.4 25 9.93066C24.0648 9.4615 22.9254 9.8393 22.4561 10.7744L22.125 11.4316C21.9221 11.3915 21.7191 11.3561 21.5156 11.3301C21.2839 11.3005 21.0518 11.283 20.8203 11.2715L20.7656 10.8164C20.6398 9.77767 19.695 9.03646 18.6562 9.16211Z" fill="#D99B58"/>
</mask>
<g mask="url(#mask1_520_9405)">
<g style="mix-blend-mode:multiply" opacity="0.1">
<g style="mix-blend-mode:multiply">
<path d="M59.2097 63.7884C61.174 61.5926 62.7174 58.9904 63.8119 56.0292C64.2142 54.8699 64.7687 52.3446 62.4993 50.6672C59.4344 48.3898 55.8928 48.6101 53.5033 48.7137C49.8422 48.9728 46.4131 49.631 43.2551 50.6807C40.0008 51.6823 36.9143 52.9199 34.008 54.3886C31.2235 55.8088 27.7541 57.1804 26.3677 60.1027C26.2792 60.1873 26.6138 60.36 26.6905 60.2632L26.7518 60.2046C26.8334 60.1265 26.5525 59.9963 26.4795 60.0426C31.1577 56.822 36.3277 54.1819 41.9457 52.1447C44.7122 51.1666 47.6409 50.4174 50.7173 49.9008C52.3677 49.6128 54.1069 49.4698 55.9233 49.4727C57.4509 49.4896 60.737 49.5606 62.4705 51.5631C64.4131 53.8113 62.3753 56.9109 61.8329 58.087C60.5697 60.6983 58.9653 63.0188 57.0395 65.0199C55.017 67.1352 52.8053 69.0554 50.4134 70.7728C48.3337 72.5572 46.0869 74.1586 43.6816 75.5708C43.5524 75.6945 43.9512 75.8526 44.0359 75.8185C47.0182 74.2521 49.7702 72.4029 52.2758 70.2817C54.8187 68.365 57.134 66.1967 59.2097 63.7884Z" fill="#BA7A59"/>
</g>
<g style="mix-blend-mode:multiply">
<path d="M76.6571 20.7164C76.7523 20.6253 76.4578 20.5081 76.3985 20.5415C72.0022 23.2457 68.1425 26.6334 64.2885 29.9454C60.0646 33.3569 55.4608 36.3433 50.5007 38.8894C45.6776 41.5561 40.8644 44.2603 36.2757 47.1721C33.9026 48.6682 31.5295 50.1643 29.215 51.7216C28.1511 52.4345 27.1038 53.1783 26.1424 53.9574C25.7478 54.3349 25.2644 54.6331 24.8884 55.0163C24.6367 55.2571 24.3919 55.4914 24.147 55.7257L24.1523 55.9083C24.0639 55.9929 23.9755 56.0775 23.8938 56.1556C23.8122 56.2337 24.1166 56.3884 24.1691 56.3616C33.0756 50.187 42.6526 44.8493 52.0692 39.2895C56.6218 36.9182 60.7503 34.0273 64.4199 30.641C68.0604 26.8597 72.149 23.5438 76.6571 20.7164Z" fill="#BA7A59"/>
</g>
<g style="mix-blend-mode:multiply">
<path d="M75.7888 15.5864C75.8501 15.5278 75.6247 15.4148 75.582 15.4792C74.7744 16.4383 73.7522 17.1795 72.5434 17.6824C71.3707 18.4993 70.1979 19.3163 69.119 20.2312C66.8628 22.1083 64.7004 24.0833 62.3269 25.8379C57.6567 29.3362 52.7076 32.5067 47.4797 35.3496C42.6332 37.9918 38.1766 41.0824 33.4892 43.8774C28.9527 46.5985 24.6 49.5662 20.032 52.2C19.9028 52.3237 20.2899 52.4696 20.356 52.4298C30.1679 47.501 39.0102 41.3409 48.5456 36.1368C53.7657 33.2858 58.679 30.0869 63.2854 26.5401C65.4895 24.8537 67.5949 23.0505 69.5763 21.1314C70.6987 20.0575 71.908 19.0882 73.1057 18.1066C74.2253 17.5135 75.13 16.6638 75.7888 15.5864Z" fill="#BA7A59"/>
</g>
<g style="mix-blend-mode:multiply">
<path d="M73.8658 12.2153C73.9407 12.1437 73.6783 12.0192 73.6122 12.0591C53.2923 22.4419 39.0622 39.9523 18.8058 50.4152C18.5348 50.3225 18.2611 50.3497 18.3825 50.5855C18.2363 50.9366 19.0465 51.1706 19.2226 51.0959C29.5588 46.2521 38.1944 39.3041 46.6947 32.3916C51.0685 28.8876 55.3719 25.31 59.9029 21.9839C62.1354 20.3408 64.4098 18.728 66.7243 17.1706C67.9409 16.3586 69.1106 15.4977 70.3155 14.6734C70.9145 14.2646 71.5185 13.8745 72.1292 13.4779C72.5873 13.1804 73.1088 12.5407 73.5056 12.3018C73.4444 12.3604 73.6228 12.4243 73.6463 12.4488C73.7085 12.4398 73.7601 12.4145 73.7979 12.3743C73.8356 12.3342 73.8587 12.28 73.8658 12.2153Z" fill="#BA7A59"/>
</g>
<g style="mix-blend-mode:multiply">
<path d="M71.2115 8.51317C68.519 8.95369 66.5225 10.6527 64.4566 11.9252C61.8813 13.5913 59.2073 15.1406 56.6036 16.7634C51.3575 20.0774 46.1839 23.4627 41.083 26.9194C36.0286 29.9912 30.2646 32.1855 23.8919 33.4639C20.679 34.1911 17.7183 35.2637 14.6675 36.1878C12.0074 36.9607 9.62157 38.1186 7.54937 39.6423C7.3657 39.818 7.9362 40.0466 8.04128 39.9931C10.3909 38.5287 13.0516 37.4454 15.9832 36.7595C19.079 35.9097 22.0699 34.8551 25.2292 34.0853C31.0354 32.8371 36.3665 30.8787 41.1556 28.2346C43.6535 26.7599 45.9176 24.9457 48.3119 23.3355C50.8842 21.6254 53.5551 20.0321 56.1743 18.371C58.7935 16.7099 61.2947 15.0209 63.87 13.3548C66.2858 11.7944 68.4084 9.50539 71.4978 8.82598C71.627 8.70232 71.3332 8.49059 71.2115 8.51317Z" fill="#BA7A59"/>
</g>
<g style="mix-blend-mode:multiply">
<path d="M41.0081 32.4124C37.8439 32.0604 35.2148 33.2616 32.6906 33.987C29.796 34.6605 26.7748 35.1387 23.6382 35.4199C20.6647 35.9823 17.883 36.8395 15.3165 37.9843C13.9947 38.4275 12.7248 38.9386 11.5171 39.4604C10.4702 39.9458 9.58485 41.1448 8.34613 41.3209C8.34613 41.3209 8.27131 41.3925 8.32993 41.4537L8.44715 41.5763C8.55265 41.6865 8.85468 41.7026 8.69057 41.5311C8.52646 41.3596 14.4784 38.9739 14.7967 38.8572C17.5707 37.9162 20.3299 36.919 23.2809 36.2312C26.2319 35.5434 29.4545 35.5343 32.3802 34.8473C34.9758 34.2647 37.4068 32.9244 40.38 32.8725C36.9666 35.6977 33.2017 38.1317 29.11 40.1585C26.8805 41.4234 24.6676 42.7192 22.3862 43.9163C21.2285 44.5311 19.9956 45.0536 18.7978 45.6129C17.7474 46.3506 16.5352 46.8966 15.1829 47.241C15.1149 47.3061 15.2457 47.4156 15.3471 47.4126C17.6068 47.2687 19.3078 45.8055 21.1402 45.038C23.9312 43.8697 26.4823 42.2737 29.1666 40.9258C33.7771 38.8005 37.9414 36.1113 41.6172 32.8856C41.8633 32.7206 41.1124 32.4533 41.0081 32.4124Z" fill="#BA7A59"/>
</g>
<g style="mix-blend-mode:multiply">
<path d="M23.5935 40.0168C23.6883 39.7618 23.1715 39.5757 23.0097 39.5428C18.3786 39.6321 14.6255 41.6741 10.9316 43.2605C10.816 43.3711 11.1661 43.5055 11.2421 43.5032C14.9637 42.477 18.2182 40.5131 22.4055 40.1913C21.9293 40.6469 21.2248 40.9455 20.7308 41.3008C19.8299 41.9951 18.8442 42.5933 17.7798 43.0916C16.0376 43.9194 14.5447 45.0562 13.3327 46.4782C13.2646 46.5432 13.5085 46.6619 13.5679 46.6286C15.1247 45.2578 16.9104 44.1385 18.9026 43.2846C19.9784 42.7765 20.9642 42.1549 21.8524 41.4245C22.5769 41.1214 23.1651 40.6458 23.5935 40.0168Z" fill="#BA7A59"/>
</g>
<g style="mix-blend-mode:multiply">
<path d="M69.8621 4.31282C69.8621 4.31282 69.78 4.22705 69.7626 4.29061C69.8688 5.40933 67.9176 5.82118 67.2124 6.21434C66.1393 6.79508 64.906 7.15375 63.7645 7.63571C61.3005 8.65551 59.0721 9.98966 56.7049 11.1515C52.0911 13.3833 47.5711 15.7132 42.8821 17.8527C40.7038 19.0849 38.6659 20.4864 36.7761 22.052C34.8127 23.3907 32.9998 24.914 31.0685 26.2455C29.0375 27.4855 26.7783 28.4457 24.3161 29.1154C23.4293 29.4006 22.3421 29.4082 21.5189 29.7734C20.5264 30.2068 19.6276 30.7381 18.7054 31.245C18.617 31.3296 18.8695 31.4165 18.893 31.441C19.7098 31.2462 20.2892 30.7623 21.0375 30.4687C22.1703 30.0185 23.4011 29.7796 24.5906 29.416C26.9103 28.722 29.1986 27.9407 31.3451 26.9431C36.177 24.6669 39.4489 20.4334 44.3054 18.251C49.335 15.9499 54.2141 13.4642 59.1068 10.9656C61.5118 9.72064 63.8014 8.32792 66.265 7.14425C67.2545 6.66688 68.1101 6.03597 69.0293 5.48509C69.54 5.33561 69.8388 4.91489 69.8621 4.31282Z" fill="#BA7A59"/>
</g>
<g style="mix-blend-mode:multiply">
<path d="M67.2618 0.206332C67.3366 0.134742 67.0508 -0.0142061 67.0062 0.0753807C66.5257 1.09835 65.0231 1.3391 64.0366 1.8605C62.84 2.48909 61.5262 2.99515 60.3462 3.65476C57.9095 5.07082 55.3413 6.47195 52.7042 7.61043C50.2074 8.73207 47.5199 9.61365 45.1502 10.8953C42.6364 12.2444 40.4803 14.0491 38.2108 15.6807C38.0544 15.8304 38.539 16.0238 38.6256 15.9644C41.1117 14.4775 43.4689 12.8559 46.0958 11.516C48.7226 10.1761 51.5639 9.26471 54.232 8.04966C56.9 6.8346 59.3496 5.50009 61.6524 3.93049C62.7348 3.22341 63.9579 2.66335 65.0286 1.94401C65.9797 1.60752 66.7374 1.01796 67.2618 0.206332Z" fill="#BA7A59"/>
</g>
<g style="mix-blend-mode:multiply">
<path d="M19.9111 21.2692C23.7419 17.252 27.3684 13.0078 31.0869 8.88694C34.8053 4.76604 39.6524 1.60695 43.7906 -2.21147C45.8313 -4.16394 47.8443 -6.25425 49.795 -8.35527C51.4835 -10.1584 53.7864 -11.3058 55.4964 -13.0592L55.6256 -13.1828C55.6256 -13.1828 55.6256 -13.1828 55.567 -13.2441C55.5335 -13.2727 55.4973 -13.2945 55.4624 -13.3068C55.4276 -13.3191 55.3956 -13.3215 55.37 -13.3138L55.2544 -13.2031C53.5878 -11.6086 51.1968 -10.6351 49.4451 -9.1704C47.3367 -7.41127 45.4725 -5.36958 43.493 -3.47568C39.2071 0.460644 34.2099 3.59905 30.222 7.86045C26.44 11.9013 22.8777 16.131 19.3253 20.3981C15.7729 24.6653 11.3053 28.0713 7.94233 32.5093C7.84029 32.6069 8.20022 32.7788 8.28865 32.6942C11.9323 28.6449 16.1571 25.1894 19.9111 21.2692Z" fill="#BA7A59"/>
</g>
<g style="mix-blend-mode:multiply">
<path d="M31.2701 4.46174C33.308 2.20681 34.5697 -0.736926 36.4651 -3.11361C38.4928 -5.56993 40.7988 -7.77623 43.1184 -9.99554C45.438 -12.2148 47.767 -14.5605 50.4549 -16.3812C50.5434 -16.4658 50.2674 -16.5773 50.2148 -16.5505C47.4512 -14.9229 44.9056 -13.036 42.5919 -10.8999C40.0977 -8.79505 37.7508 -6.54971 35.6014 -4.07081C33.6221 -1.75462 32.3721 1.20137 30.3811 3.50531C29.3751 4.58852 28.4842 5.78572 27.7133 7.09026C26.8784 8.54623 25.5787 9.62544 24.6481 11.0087C24.4984 11.1518 25.0757 11.3739 25.1592 11.2706C27.2509 9.05814 29.2049 6.74271 31.2701 4.46174Z" fill="#BA7A59"/>
</g>
<g style="mix-blend-mode:multiply">
<path d="M18.4922 16.1509C19.6371 14.3515 20.5554 12.3699 21.7823 10.6563C23.0092 8.94267 24.2784 7.00088 25.3604 5.02691C26.4425 3.05295 27.5283 1.02845 28.4999 -1.07454C28.9222 -1.99492 29.3434 -2.98459 29.7442 -3.95473C30.1156 -4.44729 30.2448 -5.15024 30.1159 -5.97659C30.0667 -6.16419 29.7567 -6.24308 29.6505 -6.25878C28.152 -6.1703 26.9634 -5.57663 26.2122 -4.54146C24.5184 -2.92091 23.0208 -1.1361 21.158 0.294163C17.7544 2.9874 14.0245 5.3123 10.569 7.93776C4.27057 12.9271 -1.40194 18.5973 -6.41356 24.9136C-6.54281 25.0373 -6.07361 25.2689 -5.96666 25.19C-4.59215 24.0392 -3.54588 22.5454 -2.38238 21.174C-1.21888 19.8027 0.301082 18.3954 1.54433 16.9712C4.17593 14.0075 7.09402 11.3331 10.2843 8.96113C13.4393 6.55273 16.7584 4.31586 20.0071 2.00548C21.5065 0.930747 22.9222 -0.236004 24.2542 -1.49477C25.0229 -2.2302 25.6342 -3.14367 26.3863 -3.91012C27.1123 -4.91723 28.1795 -5.58601 29.5141 -5.87019C29.3721 -4.92073 29.0338 -4.10526 28.5131 -3.45746C28.0247 -2.49728 27.5664 -1.51909 27.0965 -0.553165C26.0829 1.51958 24.9619 3.50732 23.8595 5.50081C22.8598 7.30211 21.6472 8.90814 20.505 10.5877C19.3627 12.2672 18.3968 14.2944 17.2353 16.0628C12.9778 22.6707 8.36372 28.8923 3.19796 34.6326C3.09592 34.7302 3.46758 34.9144 3.5424 34.8428C9.64321 29.7802 14.1622 22.969 18.4922 16.1509Z" fill="#BA7A59"/>
</g>
<g style="mix-blend-mode:multiply">
<path d="M8.26866 22.8553C8.63628 22.2454 12.0941 16.4495 9.81096 15.4658C8.91015 15.2113 8.12993 15.2861 7.60301 15.6774C5.86473 16.5005 4.34345 17.5942 3.064 18.9406C0.088639 21.4823 -2.58194 24.3425 -5.32778 27.1104C-5.42981 27.208 -5.06989 27.3799 -4.98334 27.3206C-2.43913 25.3088 -0.0874058 23.0822 2.39327 20.9904C4.35694 19.037 6.68458 17.4709 9.33681 16.3184C9.88185 16.1254 9.39453 17.1549 9.33185 17.4026C9.06481 18.3127 8.73077 19.1729 8.33128 19.9792C7.73967 21.4511 7.02962 22.8279 6.20467 24.1025C4.38768 27.0378 2.68488 30.0516 0.589593 32.7368C0.514767 32.8084 0.77715 32.9329 0.845174 32.8678C3.60927 29.8068 6.0874 26.4644 8.26866 22.8553Z" fill="#BA7A59"/>
</g>
<g style="mix-blend-mode:multiply">
<path d="M4.09606 24.0783C4.15728 24.0197 3.92023 23.8945 3.86581 23.9466C1.92904 25.5966 0.166197 27.4321 -1.41457 29.4446C-1.66625 29.6854 -0.668527 30.1154 -0.489784 29.9209C1.09807 28.0262 2.49648 25.9607 4.09606 24.0783Z" fill="#BA7A59"/>
</g>
<g style="mix-blend-mode:multiply">
<path d="M21.6467 3.71826C21.7011 3.66619 21.4943 3.55898 21.4584 3.61679C20.3215 5.47896 18.8107 7.01835 17.5429 8.77102C16.2752 10.5237 15.1689 12.1454 13.934 13.7962C13.7572 13.9655 14.3912 14.2741 14.5322 14.1627C17.6678 11.4102 20.0631 7.89381 21.6467 3.71826Z" fill="#BA7A59"/>
</g>
<g style="mix-blend-mode:multiply">
<path d="M14.7874 10.0715C14.8622 9.99991 14.5764 9.85097 14.5318 9.94055C14.1854 10.6635 13.7483 11.3094 13.2256 11.8709C13.1439 11.949 13.4366 12.0914 13.4978 12.0328C14.0636 11.5071 14.4974 10.8474 14.7874 10.0715Z" fill="#BA7A59"/>
</g>
<g style="mix-blend-mode:multiply">
<path d="M31.9328 -19.7802C32.6659 -20.7162 33.3853 -21.6393 34.2239 -22.4651C35.2306 -23.4283 36.5551 -23.9914 37.5834 -24.9049C37.6786 -24.996 37.3841 -25.1131 37.3433 -25.0741C35.5794 -23.7855 33.3932 -23.1018 31.8952 -21.4809C30.0696 -19.4095 28.0587 -17.5247 25.871 -15.8344C21.6169 -12.7499 17.3697 -9.67197 12.8763 -6.8513C3.9847 -1.30109 -5.35799 3.85935 -13.0966 10.7236C-13.1714 10.7952 -12.9442 10.8829 -12.8985 10.8626C-4.5458 4.49035 5.11526 -0.364552 14.0953 -5.99937C16.2817 -7.36376 18.4613 -8.72165 20.5336 -10.1645C22.6058 -11.6074 24.8731 -12.9553 26.7196 -14.6751C27.6175 -15.5341 28.7597 -16.1107 29.6342 -16.9943C30.5086 -17.8778 31.188 -18.8564 31.9328 -19.7802Z" fill="#BA7A59"/>
</g>
<g style="mix-blend-mode:multiply">
<path d="M9.48819 -0.395376C9.55621 -0.460459 9.28891 -0.603665 9.21409 -0.532074C2.62377 5.84371 -7.05981 8.7958 -13.151 15.6797C-13.2666 15.7903 -12.8462 15.9982 -12.746 15.9259C-9.11175 13.5282 -5.39048 11.2351 -1.84996 8.73942C2.3519 6.16956 6.14135 3.11652 9.48819 -0.395376Z" fill="#BA7A59"/>
</g>
<g style="mix-blend-mode:multiply">
<path d="M11.3559 -17.155C12.5534 -18.5588 14.0675 -19.6319 15.4174 -20.8765C15.4922 -20.9481 15.2181 -21.0848 15.1637 -21.0327C13.8262 -19.8704 12.0588 -19.212 10.7682 -18.0007C9.47766 -16.7894 8.1153 -15.4625 6.78885 -14.1934C3.92506 -11.4534 0.790503 -9.06456 -2.32438 -6.60065C-5.24387 -4.30021 -7.94063 -1.76697 -10.907 0.484464C-12.4199 1.62684 -14.1789 2.51191 -15.6214 3.72779C-17.064 4.94368 -18.2607 6.25299 -19.5872 7.5221C-19.6824 7.61322 -19.3293 7.79165 -19.2341 7.70053C-17.7784 6.30777 -16.2523 4.98852 -14.6393 3.77379C-13.0263 2.55907 -11.1928 1.86083 -9.52866 0.808437C-6.32594 -1.22322 -3.66623 -3.76795 -0.801581 -6.18019C2.06306 -8.59243 5.05131 -11.0525 7.96357 -13.5103C9.1657 -14.637 10.2457 -15.905 11.3559 -17.155Z" fill="#BA7A59"/>
</g>
<g style="mix-blend-mode:multiply">
<path d="M52.2024 42.5877C52.1435 42.5498 52.0839 42.5197 52.0258 42.4985C51.9672 42.4372 51.7128 42.3756 51.7979 42.5054C51.883 42.6352 50.1273 43.3059 49.8004 43.4544C48.5995 43.9697 47.432 44.5469 46.2713 45.1177C44.0364 46.1999 41.9558 47.4162 39.9633 48.8062C39.6912 49.0666 40.4908 49.3576 40.6533 49.2959C44.8626 47.5592 48.7527 45.4054 52.2966 42.8496C52.3288 42.8562 52.3547 42.8486 52.3686 42.8287C52.3826 42.8088 52.3834 42.7781 52.3709 42.7434C52.3647 42.7262 52.3554 42.7085 52.3436 42.6914C52.3318 42.6742 52.3177 42.658 52.302 42.6435C52.2704 42.6144 52.2346 42.5943 52.2024 42.5877Z" fill="#BA7A59"/>
</g>
</g>
</g>
</g>
<defs>
<filter id="filter0_i_520_9405" x="0" y="0" width="40.7273" height="40.7266" filterUnits="userSpaceOnUse" color-interpolation-filters="sRGB">
<feFlood flood-opacity="0" result="BackgroundImageFix"/>
<feBlend mode="normal" in="SourceGraphic" in2="BackgroundImageFix" result="shape"/>
<feColorMatrix in="SourceAlpha" type="matrix" values="0 0 0 0 0 0 0 0 0 0 0 0 0 0 0 0 0 0 127 0" result="hardAlpha"/>
<feOffset dy="-2.54545"/>
<feComposite in2="hardAlpha" operator="arithmetic" k2="-1" k3="1"/>
<feColorMatrix type="matrix" values="0 0 0 0 0.425 0 0 0 0 0.220729 0 0 0 0 0.031875 0 0 0 0.23 0"/>
<feBlend mode="normal" in2="shape" result="effect1_innerShadow_520_9405"/>
</filter>
<clipPath id="clip0_520_9405">
<rect width="40.7273" height="40.7273" rx="20.3636" fill="white"/>
</clipPath>
</defs>
</svg>
