<svg width="22" height="24" viewBox="0 0 22 24" fill="none" xmlns="http://www.w3.org/2000/svg">
<path d="M19.7779 24.0002H1.42716C0.638938 24.0002 0 23.3612 0 22.573V20.5877L21.2051 16.7344V22.573C21.2051 23.3612 20.5661 24.0002 19.7779 24.0002Z" fill="#CDBFBA"/>
<path d="M15.8954 22.5729H1.42953C0.640032 22.5729 0 21.9329 0 21.1433V3.41684C0 2.62734 0.640032 1.9873 1.42953 1.9873H19.7755C20.565 1.9873 21.205 2.62734 21.205 3.41684V17.2632C21.205 17.6423 20.3408 18.0059 20.0727 18.2741L16.9062 21.4406C16.6382 21.7087 16.2745 22.5729 15.8954 22.5729Z" fill="#F9F3F1"/>
<path d="M15.8887 22.5732C16.0764 22.5732 16.2623 22.5362 16.4357 22.4644C16.6092 22.3925 16.7668 22.2872 16.8995 22.1545L20.7863 18.2677C20.919 18.135 21.0243 17.9774 21.0962 17.8039C21.168 17.6305 21.205 17.4446 21.205 17.2569V16.6777C21.205 17.3246 20.6806 17.849 20.0337 17.849H17.6521C17.0052 17.849 16.4808 18.3734 16.4808 19.0203V21.4019C16.4808 22.0488 15.9565 22.5732 15.3096 22.5732H15.8887V22.5732Z" fill="#EFE2DD"/>
<path d="M21.2049 3.41446V7.08606H0.000244141V3.41446C0.000244141 2.62667 0.639134 1.9873 1.4274 1.9873H19.7778C20.566 1.9873 21.2049 2.62667 21.2049 3.41446Z" fill="#FECE85"/>
<path d="M4.04025 4.47831C3.76805 4.47831 3.53694 4.47817 3.34 4.47817C2.74154 4.47817 2.25488 3.99151 2.25488 3.39353V1.9873H2.96846V3.39353C2.96846 3.59809 3.13496 3.76459 3.34 3.76459C3.53694 3.76459 4.2372 4.47831 4.04025 4.47831ZM17.0015 4.47831L16.3009 4.47817C15.703 4.47817 15.2163 3.99151 15.2163 3.39353V1.9873H15.9299V3.39353C15.9299 3.59809 16.0964 3.76459 16.3009 3.76459C16.4984 3.76459 17.0015 4.28136 17.0015 4.47831Z" fill="#FDB441"/>
<path d="M4.57523 1.98727V1.08497C4.57523 0.880174 4.40864 0.713578 4.20384 0.713578H4.04005C3.83525 0.713578 3.66866 0.880174 3.66866 1.08497V3.39316C3.66866 3.59795 3.83525 3.76455 4.04005 3.76455C4.13468 3.76455 4.22543 3.80214 4.29234 3.86905C4.35925 3.93596 4.39684 4.02671 4.39684 4.12134C4.39684 4.21597 4.35925 4.30672 4.29234 4.37363C4.22543 4.44054 4.13468 4.47813 4.04005 4.47813C3.44179 4.47813 2.95508 3.99142 2.95508 3.39316V1.08497C2.95508 0.486708 3.44179 0 4.04005 0H4.20384C4.8021 0 5.28881 0.486708 5.28881 1.08497V1.98727H4.57523ZM17.5365 1.98727V1.08497C17.5365 0.880174 17.3699 0.713578 17.1651 0.713578H17.0013C16.7965 0.713578 16.6299 0.880174 16.6299 1.08497V3.39316C16.6299 3.59795 16.7965 3.76455 17.0013 3.76455C17.096 3.76455 17.1867 3.80214 17.2536 3.86905C17.3205 3.93596 17.3581 4.02671 17.3581 4.12134C17.3581 4.21597 17.3205 4.30672 17.2536 4.37363C17.1867 4.44054 17.096 4.47813 17.0013 4.47813C16.4031 4.47813 15.9164 3.99142 15.9164 3.39316V1.08497C15.9164 0.486708 16.4031 0 17.0013 0H17.1651C17.7634 0 18.2501 0.486708 18.2501 1.08497V1.98727H17.5365Z" fill="#554E56"/>
<path d="M4.17953 11.6042H2.48055C2.39043 11.6042 2.304 11.5684 2.24027 11.5047C2.17655 11.4409 2.14075 11.3545 2.14075 11.2644V9.56539C2.14075 9.47527 2.17655 9.38884 2.24027 9.32511C2.304 9.26139 2.39043 9.22559 2.48055 9.22559H4.17953C4.26966 9.22559 4.35609 9.26139 4.41981 9.32511C4.48354 9.38884 4.51934 9.47527 4.51934 9.56539V11.2644C4.51934 11.3545 4.48354 11.4409 4.41981 11.5047C4.35609 11.5684 4.26966 11.6042 4.17953 11.6042ZM9.02787 11.6042H7.32889C7.23876 11.6042 7.15233 11.5684 7.08861 11.5047C7.02488 11.4409 6.98908 11.3545 6.98908 11.2644V9.56539C6.98908 9.47527 7.02488 9.38884 7.08861 9.32511C7.15233 9.26139 7.23876 9.22559 7.32889 9.22559H9.02787C9.11799 9.22559 9.20442 9.26139 9.26815 9.32511C9.33187 9.38884 9.36767 9.47527 9.36767 9.56539V11.2644C9.36767 11.3545 9.33187 11.4409 9.26815 11.5047C9.20442 11.5684 9.11799 11.6042 9.02787 11.6042ZM13.8762 11.6042H12.1772C12.0871 11.6042 12.0007 11.5684 11.9369 11.5047C11.8732 11.4409 11.8374 11.3545 11.8374 11.2644V9.56539C11.8374 9.47527 11.8732 9.38884 11.9369 9.32511C12.0007 9.26139 12.0871 9.22559 12.1772 9.22559H13.8762C13.9663 9.22559 14.0528 9.26139 14.1165 9.32511C14.1802 9.38884 14.216 9.47527 14.216 9.56539V11.2644C14.216 11.3545 14.1802 11.4409 14.1165 11.5047C14.0528 11.5684 13.9663 11.6042 13.8762 11.6042ZM18.7245 11.6042H17.0256C16.9354 11.6042 16.849 11.5684 16.7853 11.5047C16.7215 11.4409 16.6857 11.3545 16.6857 11.2644V9.56539C16.6857 9.47527 16.7215 9.38884 16.7853 9.32511C16.849 9.26139 16.9354 9.22559 17.0256 9.22559H18.7245C18.8147 9.22559 18.9011 9.26139 18.9648 9.32511C19.0285 9.38884 19.0643 9.47527 19.0643 9.56539V11.2644C19.0643 11.3545 19.0285 11.4409 18.9648 11.5047C18.9011 11.5684 18.8147 11.6042 18.7245 11.6042ZM4.17953 16.0176H2.48055C2.39043 16.0176 2.304 15.9818 2.24027 15.918C2.17655 15.8543 2.14075 15.7679 2.14075 15.6778V13.9788C2.14075 13.8887 2.17655 13.8022 2.24027 13.7385C2.304 13.6748 2.39043 13.639 2.48055 13.639H4.17953C4.26966 13.639 4.35609 13.6748 4.41981 13.7385C4.48354 13.8022 4.51934 13.8887 4.51934 13.9788V15.6778C4.51934 15.7679 4.48354 15.8543 4.41981 15.918C4.35609 15.9818 4.26966 16.0176 4.17953 16.0176ZM9.02787 16.0176H7.32889C7.23876 16.0176 7.15233 15.9818 7.08861 15.918C7.02488 15.8543 6.98908 15.7679 6.98908 15.6778V13.9788C6.98908 13.8887 7.02488 13.8022 7.08861 13.7385C7.15233 13.6748 7.23876 13.639 7.32889 13.639H9.02787C9.11799 13.639 9.20442 13.6748 9.26815 13.7385C9.33187 13.8022 9.36767 13.8887 9.36767 13.9788V15.6778C9.36767 15.7679 9.33187 15.8543 9.26815 15.918C9.20442 15.9818 9.11799 16.0176 9.02787 16.0176ZM13.8762 16.0176H12.1772C12.0871 16.0176 12.0007 15.9818 11.9369 15.918C11.8732 15.8543 11.8374 15.7679 11.8374 15.6778V13.9788C11.8374 13.8887 11.8732 13.8022 11.9369 13.7385C12.0007 13.6748 12.0871 13.639 12.1772 13.639H13.8762C13.9663 13.639 14.0528 13.6748 14.1165 13.7385C14.1802 13.8022 14.216 13.8887 14.216 13.9788V15.6778C14.216 15.7679 14.1802 15.8543 14.1165 15.918C14.0528 15.9818 13.9663 16.0176 13.8762 16.0176ZM18.7245 16.1235H17.0256C16.9354 16.1235 16.849 16.0877 16.7853 16.024C16.7215 15.9603 16.6857 15.8738 16.6857 15.7837V14.0847C16.6857 13.9946 16.7215 13.9082 16.7853 13.8444C16.849 13.7807 16.9354 13.7449 17.0256 13.7449H18.7245C18.8147 13.7449 18.9011 13.7807 18.9648 13.8444C19.0285 13.9082 19.0643 13.9946 19.0643 14.0847V15.7837C19.0643 15.8738 19.0285 15.9603 18.9648 16.024C18.9011 16.0877 18.8147 16.1235 18.7245 16.1235ZM4.17953 20.4309H2.48055C2.39043 20.4309 2.304 20.3951 2.24027 20.3314C2.17655 20.2677 2.14075 20.1813 2.14075 20.0911V18.3922C2.14075 18.302 2.17655 18.2156 2.24027 18.1519C2.304 18.0882 2.39043 18.0524 2.48055 18.0524H4.17953C4.26966 18.0524 4.35609 18.0882 4.41981 18.1519C4.48354 18.2156 4.51934 18.302 4.51934 18.3922V20.0911C4.51934 20.1813 4.48354 20.2677 4.41981 20.3314C4.35609 20.3951 4.26966 20.4309 4.17953 20.4309ZM9.02787 20.4309H7.32889C7.23876 20.4309 7.15233 20.3951 7.08861 20.3314C7.02488 20.2677 6.98908 20.1813 6.98908 20.0911V18.3922C6.98908 18.302 7.02488 18.2156 7.08861 18.1519C7.15233 18.0882 7.23876 18.0524 7.32889 18.0524H9.02787C9.11799 18.0524 9.20442 18.0882 9.26815 18.1519C9.33187 18.2156 9.36767 18.302 9.36767 18.3922V20.0911C9.36767 20.1813 9.33187 20.2677 9.26815 20.3314C9.20442 20.3951 9.11799 20.4309 9.02787 20.4309ZM13.8762 20.4309H12.1772C12.0871 20.4309 12.0007 20.3951 11.9369 20.3314C11.8732 20.2677 11.8374 20.1813 11.8374 20.0911V18.3922C11.8374 18.302 11.8732 18.2156 11.9369 18.1519C12.0007 18.0882 12.0871 18.0524 12.1772 18.0524H13.8762C13.9663 18.0524 14.0528 18.0882 14.1165 18.1519C14.1802 18.2156 14.216 18.302 14.216 18.3922V20.0911C14.216 20.1813 14.1802 20.2677 14.1165 20.3314C14.0528 20.3951 13.9663 20.4309 13.8762 20.4309Z" fill="#FEDBA6"/>
</svg>
