<svg width="32" height="32" viewBox="0 0 32 32" fill="none" xmlns="http://www.w3.org/2000/svg">
<path d="M15.9913 9.32812V27.9847" stroke="#F8F9FA" stroke-width="2.66523" stroke-linecap="round" stroke-linejoin="round"/>
<path d="M3.9979 23.9873C3.64447 23.9873 3.30551 23.8469 3.0556 23.597C2.80568 23.347 2.66528 23.0081 2.66528 22.6546V5.33066C2.66528 4.97723 2.80568 4.63827 3.0556 4.38836C3.30551 4.13845 3.64447 3.99805 3.9979 3.99805H10.661C12.0747 3.99805 13.4305 4.55965 14.4302 5.5593C15.4298 6.55896 15.9914 7.91478 15.9914 9.3285C15.9914 7.91478 16.553 6.55896 17.5527 5.5593C18.5523 4.55965 19.9082 3.99805 21.3219 3.99805H27.985C28.3384 3.99805 28.6773 4.13845 28.9273 4.38836C29.1772 4.63827 29.3176 4.97723 29.3176 5.33066V22.6546C29.3176 23.0081 29.1772 23.347 28.9273 23.597C28.6773 23.8469 28.3384 23.9873 27.985 23.9873H19.9893C18.929 23.9873 17.9121 24.4085 17.1624 25.1582C16.4126 25.9079 15.9914 26.9248 15.9914 27.9851C15.9914 26.9248 15.5702 25.9079 14.8205 25.1582C14.0707 24.4085 13.0539 23.9873 11.9936 23.9873H3.9979Z" stroke="#F8F9FA" stroke-width="2.66523" stroke-linecap="round" stroke-linejoin="round"/>
</svg>
