<svg width="41" height="41" viewBox="0 0 41 41" fill="none" xmlns="http://www.w3.org/2000/svg">
<g clip-path="url(#clip0_520_9397)">
<mask id="mask0_520_9397" style="mask-type:alpha" maskUnits="userSpaceOnUse" x="2" y="3" width="36" height="37">
<path d="M31.8156 8.3387L19.4676 4.02815C14.8592 2.41939 9.81913 4.85112 8.21037 9.45957L3.35726 23.3618C1.7485 27.9702 4.18023 33.0103 8.78867 34.619L21.1367 38.9296C25.7451 40.5383 30.7852 38.1066 32.3939 33.4982L37.247 19.596C38.8558 14.9875 36.4241 9.94746 31.8156 8.3387Z" fill="#44AF85"/>
</mask>
<g mask="url(#mask0_520_9397)">
<path d="M31.8156 8.3387L19.4676 4.02815C14.8592 2.41939 9.81913 4.85112 8.21037 9.45957L3.35726 23.3618C1.7485 27.9702 4.18023 33.0103 8.78867 34.619L21.1367 38.9296C25.7451 40.5383 30.7852 38.1066 32.3939 33.4982L37.247 19.596C38.8558 14.9875 36.4241 9.94746 31.8156 8.3387Z" fill="#44AF85"/>
<g style="mix-blend-mode:multiply" opacity="0.5">
<path d="M24.2072 4.96289H13.1449C7.84799 4.96289 3.55396 9.25692 3.55396 14.5539V30.0087C3.55396 35.3057 7.84799 39.5997 13.1449 39.5997H21.1213C22.7422 39.5997 24.3027 38.984 25.487 37.8773L31.7699 32.0056C33.0638 30.7965 33.7982 29.1049 33.7982 27.3341V14.5539C33.7982 9.25693 29.5041 4.96289 24.2072 4.96289Z" fill="#44AF85"/>
</g>
</g>
<path d="M10.49 3.82371C10.5938 3.16567 11.0781 1.84961 12.1847 1.84961C13.5679 1.84961 13.7464 5.30392 12.5865 7.08797M17.6464 3.82371C17.7502 3.16567 18.2345 1.84961 19.3411 1.84961C20.7243 1.84961 20.9028 5.30392 19.7429 7.08797M24.8027 3.82371C24.9065 3.16567 25.3908 1.84961 26.4974 1.84961C27.8807 1.84961 28.0591 5.30392 26.8992 7.08797" stroke="#FDD032" stroke-width="3.197" stroke-linecap="round"/>
<mask id="mask1_520_9397" style="mask-type:alpha" maskUnits="userSpaceOnUse" x="3" y="3" width="32" height="35">
<path d="M24.6083 3.18945H13.5461C8.24911 3.18945 3.95508 7.48348 3.95508 12.7804V28.2353C3.95508 33.5322 8.24911 37.8263 13.5461 37.8263H21.5224C23.1434 37.8263 24.7038 37.2106 25.8881 36.1038L32.1711 30.2322C33.4649 29.0231 34.1993 27.3315 34.1993 25.5606V12.7804C34.1993 7.48349 29.9053 3.18945 24.6083 3.18945Z" fill="#72CF7F"/>
</mask>
<g mask="url(#mask1_520_9397)">
<path d="M24.6083 3.18945H13.5461C8.24911 3.18945 3.95508 7.48348 3.95508 12.7804V28.2353C3.95508 33.5322 8.24911 37.8263 13.5461 37.8263H24.045L34.1993 28.3367V12.7804C34.1993 7.48349 29.9053 3.18945 24.6083 3.18945Z" fill="#67C875"/>
<g style="mix-blend-mode:multiply" opacity="0.5">
<path d="M22.5904 37.8482C22.3796 33.6648 24.5593 30.9134 25.6754 30.0605L26.4659 37.8482H22.5904Z" fill="#67C875"/>
</g>
<path d="M24.0461 36.3167C24.0461 31.9026 27.6245 28.3242 32.0386 28.3242H34.1997V37.827H24.0461V36.3167Z" fill="#FDD032"/>
<g style="mix-blend-mode:multiply" opacity="0.5">
<path d="M10.187 1.84961C11.5703 1.84961 13.7468 5.30392 12.5869 7.08797M17.3434 1.84961C18.7266 1.84961 20.9032 5.30392 19.7433 7.08797M24.4997 1.84961C25.883 1.84961 28.0596 5.30392 26.8997 7.08797" stroke="#67C875" stroke-width="3.197" stroke-linecap="round"/>
</g>
</g>
<rect x="9.07422" y="12.6074" width="20.0067" height="2.71425" rx="1.35712" fill="#3A8F46"/>
<rect x="9.07422" y="19.1523" width="20.0067" height="2.71425" rx="1.35712" fill="#3A8F46"/>
<rect x="9.07422" y="25.6953" width="12.5668" height="2.71425" rx="1.35712" fill="#3A8F46"/>
<path d="M12.1846 1.84961C13.5678 1.84961 13.7463 5.30392 12.5864 7.08797M19.3409 1.84961C20.7242 1.84961 20.9026 5.30392 19.7427 7.08797M26.4973 1.84961C27.8806 1.84961 28.059 5.30392 26.8991 7.08797" stroke="#FDD032" stroke-width="3.197" stroke-linecap="round"/>
</g>
<defs>
<clipPath id="clip0_520_9397">
<rect width="40.7273" height="40.7273" fill="white"/>
</clipPath>
</defs>
</svg>
