<svg width="65" height="65" viewBox="0 0 65 65" fill="none" xmlns="http://www.w3.org/2000/svg">
<path d="M26.4062 4.0625C23.1751 4.06626 20.0773 5.35151 17.7925 7.63629C15.5078 9.92108 14.2225 13.0188 14.2188 16.25H18.2812C18.2812 14.0951 19.1373 12.0285 20.661 10.5048C22.1847 8.98102 24.2514 8.125 26.4062 8.125C28.5611 8.125 30.6278 8.98102 32.1515 10.5048C33.6752 12.0285 34.5312 14.0951 34.5312 16.25H38.5938C38.59 13.0188 37.3047 9.92108 35.02 7.63629C32.7352 5.35151 29.6374 4.06626 26.4062 4.0625Z" fill="#E46A28"/>
<path d="M42.6563 60.9375H33.6376C31.5996 60.937 29.6363 60.1707 28.1369 58.7905L9.44944 41.5939C9.01312 41.195 8.66901 40.7058 8.44109 40.1604C8.21317 39.6149 8.10692 39.0263 8.12974 38.4356C8.15256 37.8448 8.30389 37.2662 8.57321 36.7399C8.84252 36.2137 9.22334 35.7525 9.68912 35.3884C10.4871 34.8038 11.4654 34.5186 12.4525 34.5829C13.4397 34.6471 14.3727 35.0567 15.0882 35.7398L22.3438 42.3658V16.25C22.3438 15.1726 22.7718 14.1392 23.5337 13.3774C24.2956 12.6155 25.3289 12.1875 26.4063 12.1875C27.4838 12.1875 28.5171 12.6155 29.2789 13.3774C30.0408 14.1392 30.4688 15.1726 30.4688 16.25V30.4688C30.4688 29.3913 30.8968 28.358 31.6587 27.5961C32.4206 26.8343 33.4539 26.4062 34.5313 26.4062C35.6088 26.4062 36.6421 26.8343 37.4039 27.5961C38.1658 28.358 38.5938 29.3913 38.5938 30.4688V32.5C38.5938 31.4226 39.0218 30.3892 39.7837 29.6274C40.5456 28.8655 41.5789 28.4375 42.6563 28.4375C43.7338 28.4375 44.7671 28.8655 45.5289 29.6274C46.2908 30.3892 46.7188 31.4226 46.7188 32.5V34.5312C46.7188 33.4538 47.1468 32.4205 47.9087 31.6586C48.6706 30.8968 49.7039 30.4688 50.7813 30.4688C51.8588 30.4688 52.8921 30.8968 53.6539 31.6586C54.4158 32.4205 54.8438 33.4538 54.8438 34.5312V48.75C54.8438 51.9823 53.5598 55.0823 51.2742 57.3679C48.9886 59.6535 45.8886 60.9375 42.6563 60.9375Z" fill="#E46A28"/>
</svg>
