<svg width="32" height="32" viewBox="0 0 32 32" fill="none" xmlns="http://www.w3.org/2000/svg">
    <path
        d="M5.33044 25.9858V5.99658C5.33044 5.113 5.68144 4.26561 6.30623 3.64082C6.93101 3.01604 7.7784 2.66504 8.66198 2.66504H25.3197C25.6731 2.66504 26.012 2.80544 26.262 3.05535C26.5119 3.30527 26.6523 3.64422 26.6523 3.99765V27.9847C26.6523 28.3381 26.5119 28.6771 26.262 28.927C26.012 29.1769 25.6731 29.3173 25.3197 29.3173H8.66198C7.7784 29.3173 6.93101 28.9663 6.30623 28.3415C5.68144 27.7168 5.33044 26.8694 5.33044 25.9858ZM5.33044 25.9858C5.33044 25.1022 5.68144 24.2548 6.30623 23.63C6.93101 23.0053 7.7784 22.6543 8.66198 22.6543H26.6523"
        stroke="#F8F9FA" stroke-width="2.66523" stroke-linecap="round" stroke-linejoin="round" />
</svg>