<svg width="24" height="30" viewBox="0 0 24 30" fill="none" xmlns="http://www.w3.org/2000/svg">
<path d="M1.33264 24.6538V4.66454C1.33264 3.78097 1.68364 2.93358 2.30843 2.30879C2.93321 1.68401 3.7806 1.33301 4.66418 1.33301H21.3219C21.6753 1.33301 22.0142 1.47341 22.2642 1.72332C22.5141 1.97324 22.6545 2.31219 22.6545 2.66562V26.6527C22.6545 27.0061 22.5141 27.3451 22.2642 27.595C22.0142 27.8449 21.6753 27.9853 21.3219 27.9853H4.66418C3.7806 27.9853 2.93321 27.6343 2.30843 27.0095C1.68364 26.3847 1.33264 25.5373 1.33264 24.6538ZM1.33264 24.6538C1.33264 23.7702 1.68364 22.9228 2.30843 22.298C2.93321 21.6732 3.7806 21.3222 4.66418 21.3222H22.6545" stroke="#F8F9FA" stroke-width="2.66523" stroke-linecap="round" stroke-linejoin="round"/>
</svg>
