<svg width="65" height="65" viewBox="0 0 65 65" fill="none" xmlns="http://www.w3.org/2000/svg">
<path fill-rule="evenodd" clip-rule="evenodd" d="M8.802 59.5835C8.802 59.0448 9.01601 58.5281 9.39694 58.1472C9.77787 57.7663 10.2945 57.5522 10.8333 57.5522H54.1666C54.7053 57.5522 55.222 57.7663 55.6029 58.1472C55.9838 58.5281 56.1978 59.0448 56.1978 59.5835C56.1978 60.1222 55.9838 60.6389 55.6029 61.0198C55.222 61.4007 54.7053 61.6147 54.1666 61.6147H10.8333C10.2945 61.6147 9.77787 61.4007 9.39694 61.0198C9.01601 60.6389 8.802 60.1222 8.802 59.5835Z" fill="#E46A28"/>
<path d="M31.2001 40.4327L47.2253 24.4075C44.528 23.284 42.0789 21.6393 40.0184 19.5677C37.9455 17.5066 36.2999 15.0566 35.1759 12.3581L19.148 28.3833C17.8968 29.6346 17.2711 30.2575 16.7349 30.9481C16.0996 31.7608 15.5556 32.6409 15.1126 33.5725C14.7361 34.3606 14.4572 35.2002 13.8965 36.8766L10.9499 45.7248C10.8147 46.1296 10.7949 46.564 10.8928 46.9794C10.9907 47.3948 11.2024 47.7747 11.5042 48.0765C11.806 48.3782 12.1859 48.59 12.6013 48.6879C13.0167 48.7858 13.4511 48.766 13.8559 48.6308L22.7013 45.6841C24.3805 45.1235 25.2201 44.8446 26.0082 44.4654C26.9435 44.0212 27.8183 43.4814 28.6326 42.8458C29.3232 42.3068 29.9461 41.6812 31.1974 40.4327M51.6724 19.9604C52.4636 19.169 53.0911 18.2296 53.5192 17.1957C53.9473 16.1618 54.1676 15.0538 54.1675 13.9347C54.1674 12.8157 53.9468 11.7077 53.5185 10.6739C53.0901 9.64013 52.4624 8.70083 51.671 7.90966C50.8797 7.11849 49.9402 6.49093 48.9064 6.06282C47.8725 5.63471 46.7644 5.41443 45.6454 5.41455C44.5264 5.41468 43.4183 5.63521 42.3846 6.06355C41.3508 6.4919 40.4115 7.11966 39.6203 7.91102L37.6974 9.83393L37.7813 10.0777C38.4855 12.1062 39.8153 14.7685 42.3151 17.2683C44.4002 19.3657 46.9471 20.9461 49.7522 21.8833L51.6724 19.9604Z" fill="#E46A28"/>
</svg>
