<svg width="32" height="32" viewBox="0 0 32 32" fill="none" xmlns="http://www.w3.org/2000/svg">
<path d="M22.6558 4.73596H9.34375V11.904H22.6558V4.73596Z" fill="#596063"/>
<path d="M29.8238 11.392H2.17578V31.872H29.8238V11.392Z" fill="#A3D4F7"/>
<path d="M25.7276 27.776V29.824H6.27163V27.776H4.22363V15.488H6.27163V13.44H25.7276V15.488H27.7756V27.776H25.7276Z" fill="#E9EEF2"/>
<path d="M17.5357 17.024H14.4637C14.1808 17.024 13.9517 16.7949 13.9517 16.512C13.9517 16.2291 14.1808 16 14.4637 16H17.5357C17.8185 16 18.0477 16.2291 18.0477 16.512C18.0477 16.7949 17.8185 17.024 17.5357 17.024Z" fill="#D0D2D4"/>
<path d="M18.5595 20.096H9.34354C9.06066 20.096 8.83154 19.8669 8.83154 19.584C8.83154 19.3011 9.06066 19.072 9.34354 19.072H18.5595C18.8424 19.072 19.0715 19.3011 19.0715 19.584C19.0715 19.8669 18.8424 20.096 18.5595 20.096Z" fill="#D0D2D4"/>
<path d="M19.5837 23.168H7.29569C7.01281 23.168 6.78369 22.9389 6.78369 22.656C6.78369 22.3731 7.01281 22.144 7.29569 22.144H19.5837C19.8666 22.144 20.0957 22.3731 20.0957 22.656C20.0957 22.9389 19.8666 23.168 19.5837 23.168Z" fill="#D0D2D4"/>
<path d="M15.9997 26.24H7.29569C7.01281 26.24 6.78369 26.0109 6.78369 25.728C6.78369 25.4451 7.01281 25.216 7.29569 25.216H15.9997C16.2826 25.216 16.5117 25.4451 16.5117 25.728C16.5117 26.0109 16.2826 26.24 15.9997 26.24Z" fill="#D0D2D4"/>
<path d="M21.6318 21.632L23.1678 26.752L25.2158 25.728L23.1678 21.632H21.6318Z" fill="#3397E8"/>
<path d="M21.6319 21.632L20.0959 26.752L18.0479 25.728L20.0959 21.632H21.6319Z" fill="#3397E8"/>
<path d="M21.6316 23.68C23.3282 23.68 24.7036 22.3046 24.7036 20.608C24.7036 18.9114 23.3282 17.536 21.6316 17.536C19.935 17.536 18.5596 18.9114 18.5596 20.608C18.5596 22.3046 19.935 23.68 21.6316 23.68Z" fill="#A3D4F7"/>
<path d="M21.6319 21.632C22.1975 21.632 22.6559 21.1735 22.6559 20.608C22.6559 20.0424 22.1975 19.584 21.6319 19.584C21.0664 19.584 20.6079 20.0424 20.6079 20.608C20.6079 21.1735 21.0664 21.632 21.6319 21.632Z" fill="#3397E8"/>
<path d="M6.78369 4.22399L15.9997 8.31999L25.2157 4.22399L15.9997 0.127991L6.78369 4.22399Z" fill="#6A7073"/>
<path d="M6.78397 10.88C6.50109 10.88 6.27197 10.6509 6.27197 10.368V4.22404C6.27197 3.94116 6.50109 3.71204 6.78397 3.71204H16C16.2829 3.71204 16.512 3.94116 16.512 4.22404C16.512 4.50692 16.2829 4.73604 16 4.73604H7.29597V10.368C7.29597 10.6509 7.06685 10.88 6.78397 10.88Z" fill="#596063"/>
<path d="M6.78377 10.88C7.34931 10.88 7.80777 10.4216 7.80777 9.85603C7.80777 9.29049 7.34931 8.83203 6.78377 8.83203C6.21823 8.83203 5.75977 9.29049 5.75977 9.85603C5.75977 10.4216 6.21823 10.88 6.78377 10.88Z" fill="#6A7073"/>
<path d="M6.78377 10.88C7.80777 10.88 7.80777 13.44 7.80777 13.44H5.75977C5.75977 13.44 5.75977 10.88 6.78377 10.88Z" fill="#596063"/>
</svg>
