<svg width="24" height="24" viewBox="0 0 24 24" fill="none" xmlns="http://www.w3.org/2000/svg">
<path fill-rule="evenodd" clip-rule="evenodd" d="M21.5299 6.97082C21.6704 7.11145 21.7493 7.30207 21.7493 7.50082C21.7493 7.69957 21.6704 7.8902 21.5299 8.03082L17.0299 12.5308C16.8878 12.6633 16.6997 12.7354 16.5054 12.732C16.3111 12.7286 16.1257 12.6499 15.9883 12.5124C15.8509 12.375 15.7722 12.1896 15.7688 11.9953C15.7653 11.801 15.8374 11.613 15.9699 11.4708L19.1899 8.25082L7.49993 8.25082C7.30102 8.25082 7.11025 8.17181 6.9696 8.03115C6.82895 7.8905 6.74993 7.69974 6.74993 7.50082C6.74993 7.30191 6.82895 7.11115 6.9696 6.97049C7.11025 6.82984 7.30102 6.75082 7.49993 6.75082L19.1899 6.75082L15.9699 3.53082C15.8374 3.38865 15.7653 3.2006 15.7688 3.0063C15.7722 2.812 15.8509 2.62662 15.9883 2.4892C16.1257 2.35179 16.3111 2.27308 16.5054 2.26965C16.6997 2.26622 16.8878 2.33834 17.0299 2.47082L21.5299 6.97082ZM17.2499 16.5008C17.2499 16.6997 17.1709 16.8905 17.0303 17.0312C16.8896 17.1718 16.6988 17.2508 16.4999 17.2508L4.80993 17.2508L8.02993 20.4708C8.10361 20.5395 8.16272 20.6223 8.20371 20.7143C8.2447 20.8063 8.26674 20.9056 8.26852 21.0063C8.2703 21.107 8.25177 21.207 8.21405 21.3004C8.17633 21.3938 8.12018 21.4786 8.04897 21.5499C7.97775 21.6211 7.89291 21.6772 7.79952 21.7149C7.70614 21.7527 7.60611 21.7712 7.50541 21.7694C7.4047 21.7676 7.30539 21.7456 7.21339 21.7046C7.12139 21.6636 7.03859 21.6045 6.96993 21.5308L2.46993 17.0308C2.32948 16.8902 2.25059 16.6996 2.25059 16.5008C2.25059 16.3021 2.32948 16.1114 2.46993 15.9708L6.96993 11.4708C7.03859 11.3971 7.12139 11.338 7.21339 11.297C7.30539 11.2561 7.4047 11.234 7.50541 11.2322C7.60611 11.2305 7.70614 11.249 7.79952 11.2867C7.89291 11.3244 7.97775 11.3806 8.04897 11.4518C8.12018 11.523 8.17633 11.6078 8.21405 11.7012C8.25177 11.7946 8.2703 11.8946 8.26852 11.9953C8.26674 12.096 8.2447 12.1954 8.20371 12.2874C8.16272 12.3794 8.10361 12.4622 8.02993 12.5308L4.80993 15.7508L16.4999 15.7508C16.6988 15.7508 16.8896 15.8298 17.0303 15.9705C17.1709 16.1111 17.2499 16.3019 17.2499 16.5008Z" fill="#495057"/>
</svg>
