<svg width="16" height="16" viewBox="0 0 16 16" fill="none" xmlns="http://www.w3.org/2000/svg">
<path d="M8.34099 15.6387C3.06793 15.6387 1.65906 10.1419 2.2959 6.54038C2.32362 6.38363 2.52909 6.33848 2.61862 6.4701C2.89587 6.8776 3.14259 7.46619 3.55137 7.4151C4.16578 7.33829 4.59143 1.91679 8.23284 0.39132C8.3484 0.342914 8.46931 0.434757 8.45662 0.559382C8.27656 2.32604 9.33728 4.85526 11.2165 4.85526C12.2937 4.85526 13.0308 3.99551 13.3991 3.13207C13.511 2.86979 13.8942 2.90285 13.9584 3.18069C14.6156 6.02701 16.3724 15.6387 8.34099 15.6387Z" fill="#FF8F1F"/>
<path d="M6.49233 10.3384C6.61633 10.2342 6.80458 10.3057 6.83274 10.4652C6.89862 10.8384 7.11524 11.4798 7.8258 11.4798C8.68055 11.4798 9.26062 9.12783 9.41274 8.43611C9.43777 8.3223 9.54868 8.24502 9.66287 8.26824C11.799 8.70255 12.8376 15.6388 8.1409 15.6388C4.72177 15.6388 5.49637 11.1751 6.49233 10.3384ZM12.3292 2.82674C12.4045 2.23793 11.3296 3.84839 11.3296 3.84839C11.3296 3.84839 12.1491 4.23546 12.3292 2.82674ZM1.4988 11.6081C1.52146 11.3574 1.19899 10.6863 1.1419 10.952C1.00524 11.5877 1.47615 11.8587 1.4988 11.6081Z" fill="#FFB636"/>
<path d="M10.0993 10.8936C10.0192 10.5596 9.73192 11.3355 9.76801 11.6516C9.80411 11.9676 10.2909 11.6929 10.0993 10.8936Z" fill="#FFD469"/>
</svg>
