<svg width="24" height="24" viewBox="0 0 24 24" fill="none" xmlns="http://www.w3.org/2000/svg">
<path d="M3.99867 13.9955C3.8095 13.9961 3.62403 13.9431 3.46381 13.8425C3.30358 13.742 3.17519 13.598 3.09353 13.4273C3.01188 13.2567 2.98031 13.0664 3.00251 12.8785C3.02471 12.6907 3.09976 12.513 3.21894 12.3661L13.1155 2.16961C13.1897 2.08393 13.2909 2.02602 13.4024 2.0054C13.5139 1.98479 13.629 2.00269 13.729 2.05616C13.829 2.10963 13.9078 2.1955 13.9525 2.29968C13.9973 2.40385 14.0053 2.52014 13.9752 2.62945L12.0559 8.64736C11.9993 8.79883 11.9803 8.96177 12.0005 9.1222C12.0207 9.28263 12.0795 9.43576 12.1719 9.56846C12.2643 9.70116 12.3875 9.80947 12.531 9.88409C12.6744 9.95871 12.8338 9.99741 12.9955 9.99689H19.9931C20.1823 9.99624 20.3677 10.0493 20.528 10.1499C20.6882 10.2504 20.8166 10.3944 20.8982 10.565C20.9799 10.7357 21.0114 10.926 20.9892 11.1138C20.967 11.3017 20.892 11.4794 20.7728 11.6263L10.8763 21.8228C10.802 21.9085 10.7009 21.9664 10.5894 21.987C10.4779 22.0076 10.3627 21.9897 10.2628 21.9362C10.1628 21.8828 10.084 21.7969 10.0392 21.6927C9.99449 21.5885 9.9865 21.4722 10.0166 21.3629L11.9359 15.345C11.9925 15.1936 12.0115 15.0306 11.9913 14.8702C11.9711 14.7098 11.9122 14.5566 11.8199 14.4239C11.7275 14.2912 11.6042 14.1829 11.4608 14.1083C11.3173 14.0337 11.1579 13.995 10.9962 13.9955H3.99867Z" stroke="#F8F9FA" stroke-width="1.9993" stroke-linecap="round" stroke-linejoin="round"/>
</svg>
