<svg width="20" height="22" viewBox="0 0 20 22" fill="none" xmlns="http://www.w3.org/2000/svg">
<path d="M2.00269 12.9984C1.81353 12.9991 1.62806 12.946 1.46783 12.8455C1.30761 12.7449 1.17922 12.6009 1.09756 12.4303C1.0159 12.2596 0.984342 12.0693 1.00654 11.8815C1.02874 11.6936 1.10379 11.5159 1.22297 11.369L11.1195 1.17254C11.1938 1.08686 11.2949 1.02895 11.4064 1.00833C11.5179 0.987718 11.6331 1.00561 11.733 1.05909C11.833 1.11256 11.9118 1.19843 11.9566 1.30261C12.0013 1.40678 12.0093 1.52307 11.9792 1.63238L10.0599 7.65029C10.0033 7.80176 9.98429 7.9647 10.0045 8.12513C10.0247 8.28556 10.0835 8.43869 10.1759 8.57139C10.2683 8.70409 10.3915 8.8124 10.535 8.88702C10.6784 8.96164 10.8379 9.00034 10.9996 8.99982H17.9971C18.1863 8.99917 18.3718 9.05222 18.532 9.15279C18.6922 9.25336 18.8206 9.39732 18.9023 9.56796C18.9839 9.7386 19.0155 9.92891 18.9933 10.1168C18.9711 10.3046 18.896 10.4823 18.7769 10.6292L8.8803 20.8257C8.80606 20.9114 8.7049 20.9693 8.59342 20.9899C8.48193 21.0105 8.36675 20.9926 8.26678 20.9392C8.16681 20.8857 8.08799 20.7998 8.04325 20.6956C7.99852 20.5915 7.99053 20.4752 8.0206 20.3659L9.93993 14.348C9.99652 14.1965 10.0155 14.0335 9.99532 13.8731C9.97511 13.7127 9.91628 13.5595 9.82388 13.4268C9.73148 13.2941 9.60827 13.1858 9.46482 13.1112C9.32137 13.0366 9.16195 12.9979 9.00026 12.9984H2.00269Z" stroke="#F8F9FA" stroke-width="1.9993" stroke-linecap="round" stroke-linejoin="round"/>
</svg>
