<svg width="32" height="32" viewBox="0 0 32 32" fill="none" xmlns="http://www.w3.org/2000/svg">
<g clip-path="url(#clip0_1473_432)">
<path d="M10.3656 8.32001L9.33902 12.416L9.85102 13.952L7.29102 18.048L8.31502 19.584L7.97006 23.7203C7.87726 24.8346 8.69518 25.817 9.8075 25.9283L12.923 26.24V30.848H22.6555V8.32001H10.3649H10.3656Z" fill="#F0C6A4"/>
<path d="M6.27224 1.15198C6.27224 1.15198 5.2508 10.88 19.5868 11.392V21.632L22.6588 25.216C22.6588 25.216 28.8002 20.096 28.8002 11.904C28.8002 3.71198 22.6588 2.68798 14.4668 2.68798C7.28024 2.68798 6.27224 1.15198 6.27224 1.15198Z" fill="#6A7073"/>
<path d="M28.8005 29.312C28.6827 29.312 28.5643 29.2717 28.4677 29.1885C27.5339 28.3885 26.7909 27.9949 26.1278 27.9507C25.5345 27.911 24.9925 28.144 24.307 28.439C23.4033 28.8282 22.2789 29.312 20.6091 29.312C19.3157 29.312 18.4478 28.9293 18.0293 28.1747C17.6785 27.5418 17.683 26.7072 18.0427 25.6928C18.291 24.9926 18.6251 24.4544 18.6392 24.432C18.7889 24.192 19.1051 24.119 19.3445 24.2694C19.5845 24.4192 19.6568 24.7347 19.5077 24.9747C19.4987 24.9894 19.2094 25.4605 19.0021 26.0525C18.8293 26.5459 18.6757 27.2288 18.9259 27.6794C19.1505 28.0832 19.7169 28.288 20.6091 28.288C22.0683 28.288 23.043 27.8688 23.9025 27.4989C25.3912 26.8583 26.6769 26.3053 29.1345 28.4115C29.3489 28.5959 29.3739 28.919 29.1902 29.1334C29.0891 29.2518 28.9457 29.312 28.8011 29.312H28.8005Z" fill="#A3D4F7"/>
<path d="M20.6081 2.17603H17.5361V19.072H20.6081V2.17603Z" fill="#3397E8"/>
<path d="M20.0963 22.144H18.0483V25.216H20.0963V22.144Z" fill="#3397E8"/>
<path d="M19.0724 23.168C21.6173 23.168 23.6804 21.105 23.6804 18.56C23.6804 16.0151 21.6173 13.952 19.0724 13.952C16.5274 13.952 14.4644 16.0151 14.4644 18.56C14.4644 21.105 16.5274 23.168 19.0724 23.168Z" fill="#A3D4F7"/>
<path d="M19.0724 20.608C20.2035 20.608 21.1204 19.6911 21.1204 18.56C21.1204 17.4289 20.2035 16.512 19.0724 16.512C17.9413 16.512 17.0244 17.4289 17.0244 18.56C17.0244 19.6911 17.9413 20.608 19.0724 20.608Z" fill="#3397E8"/>
<path d="M31.5323 20.4742C30.7451 19.8598 29.7422 20.1011 29.7 20.112C29.4722 20.169 29.3122 20.3738 29.3122 20.6086V23.257C29.1522 23.2 28.9794 23.1686 28.8002 23.1686C27.9534 23.1686 27.2642 23.8579 27.2642 24.7046C27.2642 25.5514 27.9534 26.2406 28.8002 26.2406C29.6469 26.2406 30.3362 25.5514 30.3362 24.7046V21.0829C30.5173 21.0957 30.7304 21.1456 30.907 21.2858C31.2078 21.5245 31.3602 21.9853 31.3602 22.6566C31.3602 22.9395 31.5893 23.1686 31.8722 23.1686C32.155 23.1686 32.3842 22.9395 32.3842 22.6566C32.3842 21.6499 32.0974 20.9158 31.5323 20.4742ZM28.8002 25.216C28.5179 25.216 28.2882 24.9862 28.2882 24.704C28.2882 24.4218 28.5179 24.192 28.8002 24.192C29.0824 24.192 29.3122 24.4218 29.3122 24.704C29.3122 24.9862 29.0824 25.216 28.8002 25.216Z" fill="#A3D4F7"/>
<path d="M6.78421 8.83201C6.78421 8.54913 6.55509 8.32001 6.27221 8.32001H2.17621C1.89333 8.32001 1.66421 8.54913 1.66421 8.83201V13.0163C1.50421 12.9594 1.33141 12.928 1.15221 12.928C0.305491 12.928 -0.383789 13.6173 -0.383789 14.464C-0.383789 15.3107 0.305491 16 1.15221 16C1.99893 16 2.68821 15.3107 2.68821 14.464V11.392H5.76021V12.5043C5.60021 12.4474 5.42741 12.416 5.24821 12.416C4.40149 12.416 3.71221 13.1053 3.71221 13.952C3.71221 14.7987 4.40149 15.488 5.24821 15.488C6.09493 15.488 6.78421 14.7987 6.78421 13.952V8.83201ZM1.15221 14.976C0.869971 14.976 0.640211 14.7462 0.640211 14.464C0.640211 14.1818 0.869971 13.952 1.15221 13.952C1.43445 13.952 1.66421 14.1818 1.66421 14.464C1.66421 14.7462 1.43445 14.976 1.15221 14.976ZM2.68821 10.368V9.34401H5.76021V10.368H2.68821ZM5.24821 14.464C4.96597 14.464 4.73621 14.2342 4.73621 13.952C4.73621 13.6698 4.96597 13.44 5.24821 13.44C5.53045 13.44 5.76021 13.6698 5.76021 13.952C5.76021 14.2342 5.53045 14.464 5.24821 14.464Z" fill="#A3D4F7"/>
</g>
<defs>
<clipPath id="clip0_1473_432">
<rect width="32" height="32" fill="white"/>
</clipPath>
</defs>
</svg>
