<svg width="24" height="19" viewBox="0 0 24 19" fill="none" xmlns="http://www.w3.org/2000/svg">
<g clip-path="url(#clip0_33_159)">
<path d="M21.4186 9.91705H13.2251V13.8535H21.4186L23.219 11.8856L21.4186 9.91705Z" fill="#E7E7E8"/>
<path d="M21.67 9.33893H12.6516V14.4303H21.67L23.9994 11.8836L21.67 9.33893ZM13.2252 13.8528V9.91768H21.4188L23.2191 11.8856L21.4188 13.8528H13.2252Z" fill="#3F3FBC"/>
<path d="M13.54 0.268188H12.0786V19H13.54V0.268188Z" fill="#2A2B2B"/>
<path d="M12.0784 0.268188H10.6177V19H12.0784V0.268188Z" fill="#484849"/>
<path d="M13.8605 0H10.2966V1.61435H13.8605V0Z" fill="#3A3A3A"/>
<path d="M21.4186 3.44495H13.2251V7.38072H21.4186L23.219 5.41283L21.4186 3.44495Z" fill="#E7E7E8"/>
<path d="M21.67 2.86615H12.6516V7.96006H21.67L23.9994 5.41279L21.67 2.86615ZM13.2252 7.38131V3.4449H21.4188L23.2191 5.41279L21.4188 7.38131H13.2252Z" fill="#F42530"/>
<path d="M15.3663 12.9546C15.3663 12.9546 15.697 11.7355 15.7136 11.6751C15.7276 11.7393 16.0195 12.9546 16.0195 12.9546H16.4239L17.023 10.8218H16.5727C16.5727 10.8218 16.2548 12.0467 16.2401 12.1147C16.223 12.0364 15.9349 10.8218 15.9349 10.8218H15.5291C15.5291 10.8218 15.208 12.0454 15.1864 12.1313C15.1679 12.0479 14.883 10.8218 14.883 10.8218H14.4258L14.9619 12.9546H15.3663Z" fill="#2E5FD8"/>
<path d="M17.5433 12.0402H18.2886V12.9546H18.7249V10.8192H18.2861V11.6328H17.5433V10.8192H17.1077V12.9546H17.5433V12.0402Z" fill="#2E5FD8"/>
<path d="M19.9084 10.7871C19.3265 10.7871 18.9202 11.2459 18.9202 11.9029C18.9202 12.5394 19.3145 12.9841 19.8798 12.9841C20.372 12.9841 20.8681 12.6382 20.8681 11.8651C20.8681 11.2305 20.4738 10.7871 19.9084 10.7871ZM19.8944 12.5901C19.5358 12.5901 19.373 12.2308 19.373 11.8971C19.373 11.5404 19.5351 11.1804 19.897 11.1804C20.2588 11.1804 20.4185 11.5417 20.4185 11.8772C20.4185 12.2321 20.2563 12.5901 19.8944 12.5901Z" fill="#2E5FD8"/>
<path d="M14.6598 6.47986C14.6598 6.47986 14.9905 5.26076 15.0064 5.20045C15.0204 5.26461 15.3123 6.47986 15.3123 6.47986H15.7168L16.3158 4.34644H15.863C15.863 4.34644 15.545 5.57259 15.5311 5.63996C15.5139 5.56104 15.2258 4.34644 15.2258 4.34644H14.8194C14.8194 4.34644 14.4983 5.57067 14.4773 5.65665C14.4589 5.57323 14.1739 4.34644 14.1739 4.34644H13.7161L14.2528 6.47986H14.6598Z" fill="#D60015"/>
<path d="M16.8367 5.5681H17.5802V6.47986H18.0183V4.34644H17.5802V5.16002H16.8367V4.34644H16.4011V6.47986H16.8367V5.5681Z" fill="#D60015"/>
<path d="M19.2973 4.34644H18.8629L18.1443 6.47986H18.5977L18.7974 5.86774H19.3462L19.5523 6.47986H20.0159L19.2973 4.34644ZM19.0734 5.00603C19.0779 5.02015 19.2337 5.48341 19.2337 5.48341H18.9157C18.9157 5.48341 19.0696 5.01886 19.0734 5.00603Z" fill="#D60015"/>
<path d="M19.699 4.74874H20.2853V6.48114H20.7235V4.74874H21.3124V4.34644H19.699V4.74874Z" fill="#D60015"/>
<path d="M2.58137 5.62262H10.7743V9.55903H2.58137L0.781006 7.59115L2.58137 5.62262Z" fill="#E7E7E8"/>
<path d="M0 7.59113L2.32947 10.1384H11.3478V5.04449H2.32947L0 7.59113ZM2.58067 9.55902L0.780307 7.59113L2.58067 5.62325H10.7755V9.55902H2.58067Z" fill="#5B9E05"/>
<path d="M4.73398 7.33837H3.99055V6.52478H3.55493V8.65564H3.99055V7.74452H4.73398V8.65564H5.17215V6.52478H4.73398V7.33837Z" fill="#5B9E05"/>
<path d="M6.35496 6.49268C5.77307 6.49268 5.3667 6.95144 5.3667 7.60847C5.3667 8.24497 5.76162 8.68963 6.32634 8.68963C6.81857 8.68963 7.31524 8.34378 7.31524 7.57126C7.31524 6.93604 6.92032 6.49268 6.35496 6.49268ZM6.34097 8.29631C5.98293 8.29631 5.81949 7.93699 5.81949 7.6027C5.81949 7.24595 5.98166 6.88664 6.34351 6.88664C6.70537 6.88664 6.86499 7.24724 6.86499 7.58281C6.86499 7.93763 6.70537 8.29631 6.34097 8.29631Z" fill="#5B9E05"/>
<path d="M9.12637 7.81764C9.1092 7.73936 8.82111 6.52475 8.82111 6.52475H8.41538C8.41538 6.52475 8.09423 7.74899 8.0726 7.83496C8.05416 7.75155 7.76926 6.52475 7.76926 6.52475H7.31201L7.85002 8.65561H8.25385C8.25385 8.65561 8.58454 7.43972 8.60108 7.37684C8.61507 7.441 8.90697 8.65561 8.90697 8.65561H9.3127L9.91176 6.52283H9.45897C9.45897 6.52283 9.1429 7.75091 9.12637 7.81764Z" fill="#5B9E05"/>
<path d="M2.58137 12.4637H10.7743V16.4001H2.58137L0.781006 14.4322L2.58137 12.4637Z" fill="#E7E7E8"/>
<path d="M0 14.4303L2.32947 16.9775H11.3478V11.8856H2.32947L0 14.4303ZM2.58067 16.3988L0.780307 14.4303L2.58067 12.4624H10.7755V16.3988H2.58067Z" fill="#FFC715"/>
<path d="M5.37002 14.6587C5.35285 14.5805 5.06477 13.3658 5.06477 13.3658H4.65903C4.65903 13.3658 4.33724 14.592 4.31626 14.6761C4.29781 14.5926 4.01291 13.3658 4.01291 13.3658H3.55566L4.09177 15.4993H4.49623C4.49623 15.4993 4.82692 14.2802 4.84282 14.2199C4.85745 14.284 5.14935 15.4993 5.14935 15.4993H5.55317L6.15287 13.3658H5.70198C5.70198 13.3658 5.38528 14.5933 5.37002 14.6587Z" fill="#E46A28"/>
<path d="M8.80398 14.1801C8.77155 14.1121 8.39507 13.3658 8.39507 13.3658H7.89648L8.56995 14.6036V15.5018H9.00875V14.6036L9.7242 13.3671H9.2218C9.2218 13.3671 8.8326 14.1255 8.80398 14.1801Z" fill="#E46A28"/>
<path d="M7.41826 13.3658V14.1794H6.67293V13.3658H6.2373V15.4986H6.67293V14.5869H7.41826V15.4986H7.85643V13.3658H7.41826Z" fill="#E46A28"/>
</g>
<defs>
<clipPath id="clip0_33_159">
<rect width="24" height="19" fill="white"/>
</clipPath>
</defs>
</svg>
