<svg width="65" height="65" viewBox="0 0 65 65" fill="none" xmlns="http://www.w3.org/2000/svg">
<path d="M15.2099 54.1667C13.9623 54.1667 12.9214 53.7496 12.0872 52.9154C11.253 52.0812 10.8351 51.0394 10.8333 49.79V15.21C10.8333 13.9624 11.2512 12.9215 12.0872 12.0873C12.9232 11.2531 13.9641 10.8351 15.2099 10.8333H26.677C27.2674 10.8333 27.7333 11.0699 28.0745 11.5429C28.4139 12.0142 28.4898 12.545 28.302 13.1354C28.0908 13.8396 27.9319 14.5645 27.8253 15.3102C27.7188 16.0559 27.6664 16.8206 27.6683 17.6042C27.6683 22.1072 29.1985 25.8899 32.2589 28.9521C35.3193 32.0125 39.0911 33.5427 43.5743 33.5427C44.3471 33.5427 45.0693 33.5012 45.741 33.4181C46.4126 33.3333 47.0906 33.2078 47.7749 33.0417L52.3493 37.616C52.8801 38.1469 53.3153 38.6786 53.6547 39.2112C53.996 39.7439 54.1666 40.4237 54.1666 41.2506V49.7927C54.1666 51.0385 53.7495 52.0794 52.9153 52.9154C52.0812 53.7514 51.0394 54.1685 49.7899 54.1667H15.2099ZM56.6772 32.8331L49.1345 25.2931C48.2227 25.9594 47.338 26.4243 46.4803 26.6879C45.6227 26.9515 44.654 27.0833 43.5743 27.0833C40.9274 27.0833 38.6912 26.1679 36.8658 24.3371C35.0385 22.5026 34.1249 20.2583 34.1249 17.6042C34.1249 14.95 35.0412 12.7066 36.8739 10.874C38.7065 9.04132 40.9499 8.125 43.6041 8.125C46.2583 8.125 48.5026 9.04132 50.337 10.874C52.1715 12.7066 53.0869 14.95 53.0833 17.6042C53.0833 18.6839 52.9208 19.7103 52.5958 20.6835C52.2708 21.6567 51.8013 22.5983 51.1874 23.5083L58.5947 30.9156C58.8475 31.1684 58.9829 31.479 59.001 31.8473C59.019 32.2156 58.8836 32.5433 58.5947 32.8304C58.3058 33.1175 57.9862 33.2619 57.636 33.2637C57.2857 33.2656 56.9661 33.1211 56.6772 32.8304M43.6041 24.375C45.4999 24.375 47.1024 23.7205 48.4114 22.4115C49.7204 21.1024 50.3749 19.5 50.3749 17.6042C50.3749 15.7083 49.7204 14.1059 48.4114 12.7969C47.1024 11.4878 45.4999 10.8333 43.6041 10.8333C41.7083 10.8333 40.1058 11.4878 38.7968 12.7969C37.4878 14.1059 36.8333 15.7083 36.8333 17.6042C36.8333 19.5 37.4878 21.1024 38.7968 22.4115C40.1058 23.7205 41.7083 24.375 43.6041 24.375ZM30.363 43.4362L26.937 39.3006C26.6012 38.898 26.1723 38.7057 25.6505 38.7237C25.1305 38.7418 24.7017 38.9522 24.3641 39.3548L21.6774 42.9379C21.3849 43.3189 21.3398 43.7062 21.542 44.0998C21.7442 44.4916 22.0638 44.6875 22.5008 44.6875H42.9162C43.3549 44.6875 43.6745 44.4916 43.8749 44.0998C44.0753 43.708 44.0483 43.3198 43.7937 42.9352L37.8705 35.0404C37.755 35.0206 37.6376 34.9944 37.5185 34.9619C37.3993 34.9312 37.2819 34.8951 37.1664 34.8535L30.363 43.4362Z" fill="#E46A28"/>
</svg>
