<svg width="24" height="24" viewBox="0 0 24 24" fill="none" xmlns="http://www.w3.org/2000/svg">
<g clip-path="url(#clip0_27_395)">
<path d="M17.9243 20.3871V19.637H18.6744C19.7361 19.637 20.5967 20.4976 20.5967 21.5592V22.3093H19.8465C18.785 22.3093 17.9243 21.4487 17.9243 20.3871Z" fill="#B2F2BB"/>
<path d="M16.0497 2.69395L2.20391 16.5403C1.79335 16.9508 2.08412 17.6528 2.66473 17.6528L13.0994 17.653C18.0002 17.653 21.9732 13.6802 21.9732 8.77936V5.14745C21.9732 3.23109 20.4197 1.67761 18.5033 1.67761C17.583 1.67762 16.7005 2.04321 16.0497 2.69395Z" fill="#FFCD69"/>
<path d="M0.468994 21.47C1.62898 22.6159 3.49644 22.6101 4.64935 21.4572L14.0615 12.0451L11.9777 9.9613L0.468994 21.47Z" fill="#FF7D97"/>
<path d="M1.09424 17.6496C4.83384 19.7826 9.54843 19.1404 12.5926 16.0962C15.3388 13.35 15.3492 8.88717 12.603 6.14093L1.09424 17.6496Z" fill="#80B6FF"/>
<path d="M2.41724 16.3114C5.07683 16.4669 7.75556 15.5074 9.73347 13.5295L9.75415 13.5088C11.4994 11.7636 12.1355 9.32927 11.6625 7.08173L2.41724 16.3114Z" fill="#A0C8FF"/>
<path d="M18.7963 5.20358C18.7085 5.29155 18.6591 5.41071 18.6589 5.535C18.6589 5.65835 18.7086 5.77926 18.7963 5.86646C18.8844 5.95408 19.0035 6.00343 19.1278 6.00383C19.2511 6.00383 19.3715 5.95371 19.4592 5.86646C19.5468 5.77835 19.5962 5.65926 19.5966 5.535C19.5966 5.41169 19.5464 5.29073 19.4592 5.20358C19.3711 5.11596 19.252 5.06659 19.1278 5.06616C19.0035 5.06657 18.8844 5.11595 18.7963 5.20358Z" fill="#212529"/>
<path d="M23.5312 17.1841H17.1822C18.0048 16.7841 18.7642 16.2654 19.4361 15.6446C19.6263 15.4689 19.6382 15.1724 19.4624 14.9821C19.2868 14.7919 18.9901 14.78 18.7999 14.9558C17.2437 16.3928 15.2193 17.1842 13.0995 17.1841H12.0755C12.3725 16.9483 12.6558 16.6957 12.9241 16.4278C14.3413 15.0105 15.1234 13.1253 15.1263 11.1192C15.1289 9.26891 14.4676 7.52269 13.2556 6.15159L16.3813 3.02541C16.9481 2.45854 17.7018 2.14639 18.5034 2.14639C20.1582 2.14639 21.5044 3.49265 21.5044 5.14739V8.77931C21.5044 9.76695 21.3349 10.7338 21.0004 11.653C20.9119 11.8963 21.0374 12.1654 21.2807 12.2539C21.3321 12.2726 21.3863 12.2822 21.441 12.2822C21.6325 12.2822 21.8123 12.164 21.8816 11.9736C22.2535 10.9513 22.4421 9.87661 22.4421 8.77926V6.79455H23.5311C23.6238 6.79452 23.7145 6.76701 23.7915 6.71549C23.8686 6.66397 23.9287 6.59076 23.9642 6.5051C23.9997 6.41944 24.009 6.32519 23.9909 6.23425C23.9728 6.14331 23.9282 6.05978 23.8626 5.9942L22.3921 4.52371C22.0923 2.64729 20.4628 1.20868 18.5033 1.20868C17.4512 1.20868 16.4621 1.61839 15.7182 2.36234L0.762737 17.3181C0.711745 17.3691 0.673205 17.4312 0.650116 17.4995C0.627027 17.5678 0.620011 17.6406 0.629614 17.712C0.639218 17.7835 0.665181 17.8518 0.705484 17.9116C0.745787 17.9714 0.799345 18.0211 0.861989 18.0569C1.37828 18.351 1.91987 18.5982 2.48026 18.7957L0.137361 21.1385C0.0936401 21.1823 0.0589957 21.2342 0.0354219 21.2913C0.0118481 21.3485 -0.000189479 21.4097 2.25488e-06 21.4715C0.000193989 21.5333 0.0126112 21.5945 0.0365391 21.6515C0.0604669 21.7085 0.0954327 21.7602 0.139423 21.8036C0.806151 22.4623 1.6794 22.7912 2.55251 22.7912C3.4327 22.7912 4.31274 22.4568 4.98074 21.7888L7.55538 19.2141C8.64541 19.0234 9.69656 18.6543 10.6666 18.1218H15.746L17.4554 19.8312V20.3871C17.4554 21.7055 18.528 22.7781 19.8464 22.7781H20.5965C20.8554 22.7781 21.0654 22.5682 21.0654 22.3093V21.5591C21.0654 20.2407 19.9927 19.1681 18.6743 19.1681H18.1184L17.0721 18.1218H23.5312C23.7901 18.1218 24 17.9119 24 17.653C24 17.3941 23.7901 17.1841 23.5312 17.1841ZM9.4122 13.1876C7.84039 14.7595 5.75689 15.6945 3.56833 15.8386L11.3287 8.07821C11.4611 9.96419 10.7762 11.8236 9.4122 13.1876ZM2.61749 16.7894C2.73606 16.7936 2.85448 16.7965 2.97277 16.7965C5.62393 16.7965 8.18526 15.7406 10.0752 13.8507C11.8202 12.1057 12.5929 9.6504 12.1696 7.23731L12.5914 6.8156C13.627 8.00812 14.191 9.51866 14.1887 11.1179C14.1861 12.874 13.5016 14.5242 12.2611 15.7647C9.51604 18.5098 5.32636 19.1968 1.87575 17.5312L2.61749 16.7894ZM4.31771 21.1257C3.46444 21.9791 2.13534 22.0835 1.16575 21.4362L3.50499 19.097C4.26075 19.2758 5.03471 19.3661 5.81132 19.3663C5.90129 19.3663 5.99117 19.3648 6.08104 19.3624L4.31771 21.1257ZM20.1278 21.5592V21.8405H19.8465C19.045 21.8405 18.3931 21.1885 18.3931 20.3871V20.1058H18.6744C19.4758 20.1058 20.1278 20.7578 20.1278 21.5592Z" fill="#212529"/>
<path d="M20.1564 13.3641C20.0692 13.4513 20.019 13.5722 20.019 13.6955C20.019 13.8188 20.0692 13.9398 20.1564 14.027C20.2436 14.1141 20.3646 14.1644 20.4879 14.1644C20.6112 14.1644 20.7321 14.1142 20.8193 14.027C20.9065 13.9398 20.9567 13.8188 20.9567 13.6955C20.9567 13.5722 20.9065 13.4513 20.8193 13.3641C20.7312 13.2764 20.6121 13.227 20.4879 13.2267C20.3636 13.2271 20.2445 13.2765 20.1564 13.3641Z" fill="#212529"/>
</g>
<defs>
<clipPath id="clip0_27_395">
<rect width="24" height="24" fill="white"/>
</clipPath>
</defs>
</svg>
