<svg width="24" height="22" viewBox="0 0 24 22" fill="none" xmlns="http://www.w3.org/2000/svg">
<path d="M17.9243 19.1784V18.4283H18.6744C19.7361 18.4283 20.5967 19.2889 20.5967 20.3505V21.1006H19.8465C18.785 21.1006 17.9243 20.24 17.9243 19.1784Z" fill="#B2F2BB"/>
<path d="M16.0497 1.48527L2.20391 15.3316C1.79335 15.7422 2.08412 16.4441 2.66473 16.4441L13.0994 16.4443C18.0002 16.4443 21.9732 12.4715 21.9732 7.57068V3.93877C21.9732 2.02241 20.4197 0.468933 18.5033 0.468933C17.583 0.468943 16.7005 0.83453 16.0497 1.48527Z" fill="#FFCD69"/>
<path d="M0.468994 20.2614C1.62898 21.4072 3.49644 21.4015 4.64935 20.2485L14.0615 10.8364L11.9777 8.75262L0.468994 20.2614Z" fill="#FF7D97"/>
<path d="M1.09424 16.4409C4.83384 18.5739 9.54843 17.9317 12.5926 14.8876C15.3388 12.1413 15.3492 7.67849 12.603 4.93225L1.09424 16.4409Z" fill="#80B6FF"/>
<path d="M2.41724 15.1027C5.07683 15.2582 7.75556 14.2987 9.73347 12.3208L9.75415 12.3001C11.4994 10.5549 12.1355 8.12059 11.6625 5.87305L2.41724 15.1027Z" fill="#A0C8FF"/>
<path d="M18.7963 3.9949C18.7085 4.08287 18.6591 4.20203 18.6589 4.32632C18.6589 4.44967 18.7086 4.57058 18.7963 4.65778C18.8844 4.7454 19.0035 4.79476 19.1278 4.79515C19.2511 4.79515 19.3715 4.74503 19.4592 4.65778C19.5468 4.56967 19.5962 4.45058 19.5966 4.32632C19.5966 4.20301 19.5464 4.08205 19.4592 3.9949C19.3711 3.90728 19.252 3.85791 19.1278 3.85748C19.0035 3.85789 18.8844 3.90727 18.7963 3.9949Z" fill="#212529"/>
<path d="M23.5312 15.9754H17.1822C18.0048 15.5754 18.7642 15.0567 19.4361 14.4359C19.6263 14.2603 19.6382 13.9637 19.4624 13.7734C19.2868 13.5832 18.9901 13.5714 18.7999 13.7471C17.2437 15.1841 15.2193 15.9755 13.0995 15.9754H12.0755C12.3725 15.7396 12.6558 15.4871 12.9241 15.2191C14.3413 13.8018 15.1234 11.9166 15.1263 9.91053C15.1289 8.06023 14.4676 6.31401 13.2556 4.94291L16.3813 1.81673C16.9481 1.24986 17.7018 0.937714 18.5034 0.937714C20.1582 0.937714 21.5044 2.28397 21.5044 3.93872V7.57063C21.5044 8.55827 21.3349 9.52515 21.0004 10.4443C20.9119 10.6877 21.0374 10.9567 21.2807 11.0452C21.3321 11.0639 21.3863 11.0735 21.441 11.0736C21.6325 11.0736 21.8123 10.9553 21.8816 10.7649C22.2535 9.74259 22.4421 8.66793 22.4421 7.57058V5.58587H23.5311C23.6238 5.58584 23.7145 5.55833 23.7915 5.50681C23.8686 5.45529 23.9287 5.38208 23.9642 5.29642C23.9997 5.21076 24.009 5.11651 23.9909 5.02557C23.9728 4.93463 23.9282 4.8511 23.8626 4.78552L22.3921 3.31503C22.0923 1.43862 20.4628 0 18.5033 0C17.4512 0 16.4621 0.409713 15.7182 1.15366L0.762737 16.1094C0.711745 16.1604 0.673205 16.2225 0.650116 16.2908C0.627027 16.3592 0.620011 16.4319 0.629614 16.5034C0.639218 16.5748 0.665181 16.6431 0.705484 16.7029C0.745787 16.7628 0.799345 16.8125 0.861989 16.8482C1.37828 17.1423 1.91987 17.3895 2.48026 17.587L0.137361 19.9299C0.0936401 19.9736 0.0589957 20.0255 0.0354219 20.0826C0.0118481 20.1398 -0.000189479 20.201 2.25488e-06 20.2628C0.000193989 20.3247 0.0126112 20.3858 0.0365391 20.4428C0.0604669 20.4998 0.0954327 20.5515 0.139423 20.595C0.806151 21.2536 1.6794 21.5825 2.55251 21.5825C3.4327 21.5825 4.31274 21.2481 4.98074 20.5801L7.55538 18.0055C8.64541 17.8147 9.69656 17.4456 10.6666 16.9131H15.746L17.4554 18.6225V19.1784C17.4554 20.4968 18.528 21.5694 19.8464 21.5694H20.5965C20.8554 21.5694 21.0654 21.3595 21.0654 21.1006V20.3505C21.0654 19.0321 19.9927 17.9594 18.6743 17.9594H18.1184L17.0721 16.9131H23.5312C23.7901 16.9131 24 16.7032 24 16.4443C24 16.1854 23.7901 15.9754 23.5312 15.9754ZM9.4122 11.9789C7.84039 13.5508 5.75689 14.4858 3.56833 14.6299L11.3287 6.86953C11.4611 8.75551 10.7762 10.6149 9.4122 11.9789ZM2.61749 15.5807C2.73606 15.585 2.85448 15.5878 2.97277 15.5878C5.62393 15.5878 8.18526 14.532 10.0752 12.642C11.8202 10.897 12.5929 8.44172 12.1696 6.02863L12.5914 5.60692C13.627 6.79944 14.191 8.30998 14.1887 9.90921C14.1861 11.6653 13.5016 13.3156 12.2611 14.5561C9.51604 17.3011 5.32636 17.9881 1.87575 16.3225L2.61749 15.5807ZM4.31771 19.917C3.46444 20.7704 2.13534 20.8748 1.16575 20.2275L3.50499 17.8883C4.26075 18.0671 5.03471 18.1575 5.81132 18.1576C5.90129 18.1576 5.99117 18.1561 6.08104 18.1537L4.31771 19.917ZM20.1278 20.3505V20.6318H19.8465C19.045 20.6318 18.3931 19.9798 18.3931 19.1784V18.8971H18.6744C19.4758 18.8971 20.1278 19.5491 20.1278 20.3505Z" fill="#212529"/>
<path d="M20.1564 12.1554C20.0692 12.2426 20.019 12.3635 20.019 12.4868C20.019 12.6101 20.0692 12.7311 20.1564 12.8183C20.2436 12.9055 20.3646 12.9557 20.4879 12.9557C20.6112 12.9557 20.7321 12.9055 20.8193 12.8183C20.9065 12.7311 20.9567 12.6101 20.9567 12.4868C20.9567 12.3635 20.9065 12.2426 20.8193 12.1554C20.7312 12.0677 20.6121 12.0184 20.4879 12.018C20.3636 12.0184 20.2445 12.0678 20.1564 12.1554Z" fill="#212529"/>
</svg>
