<svg width="14" height="14" viewBox="0 0 14 14" fill="none" xmlns="http://www.w3.org/2000/svg">
<path d="M6.50216 1.76374C6.72383 1.36533 6.83466 1.16699 7.00033 1.16699C7.16599 1.16699 7.27683 1.36533 7.49849 1.76374L7.55566 1.86641C7.61866 1.97958 7.65016 2.03558 7.69916 2.07291C7.74874 2.11024 7.80999 2.12424 7.93249 2.15166L8.04333 2.17733C8.47383 2.27474 8.68908 2.32316 8.74041 2.48766C8.79174 2.65216 8.64474 2.82424 8.35133 3.16724L8.27549 3.25591C8.19208 3.35333 8.15008 3.40174 8.13141 3.46241C8.11274 3.52308 8.11916 3.58783 8.13141 3.71791L8.14308 3.83633C8.18741 4.29424 8.20958 4.52349 8.07599 4.62499C7.94183 4.72708 7.73999 4.63374 7.33691 4.44824L7.23308 4.40041C7.11816 4.34791 7.06099 4.32108 7.00033 4.32108C6.93966 4.32108 6.88249 4.34791 6.76758 4.40041L6.66374 4.44824C6.26066 4.63374 6.05883 4.72708 5.92466 4.62499C5.79049 4.52349 5.81324 4.29424 5.85758 3.83633L5.86924 3.71791C5.88149 3.58783 5.88791 3.52308 5.86924 3.46241C5.85058 3.40174 5.80858 3.35333 5.72516 3.25591L5.64933 3.16724C5.35591 2.82424 5.20891 2.65274 5.26024 2.48766C5.31158 2.32316 5.52683 2.27474 5.95733 2.17733L6.06816 2.15166C6.19066 2.12424 6.25191 2.11083 6.30149 2.07291C6.35049 2.03558 6.38199 1.97958 6.44499 1.86641L6.50216 1.76374ZM7.58366 5.83366H6.41699C5.59216 5.83366 5.17974 5.83366 4.92366 6.09032C4.66699 6.34583 4.66699 6.75824 4.66699 7.58366V12.8337H9.33366V7.58366C9.33366 6.75883 9.33366 6.34641 9.07699 6.09032C8.82149 5.83366 8.40908 5.83366 7.58366 5.83366Z" fill="#FFC943"/>
<path opacity="0.5" d="M4.41033 11.3397C4.15483 11.083 3.74241 11.083 2.91699 11.083C2.09158 11.083 1.67974 11.083 1.42366 11.3397C1.16699 11.5952 1.16699 12.0076 1.16699 12.833H4.66699C4.66699 12.0082 4.66699 11.5958 4.41033 11.3397ZM9.33366 11.083V12.833H12.8337V11.083C12.8337 10.2582 12.8337 9.84576 12.577 9.58967C12.3215 9.33301 11.9091 9.33301 11.0837 9.33301C10.2582 9.33301 9.84641 9.33301 9.59033 9.58967C9.33366 9.84517 9.33366 10.2576 9.33366 11.083Z" fill="#FF641A"/>
</svg>
