<svg width="20" height="20" viewBox="0 0 20 20" fill="none" xmlns="http://www.w3.org/2000/svg">
<path d="M0.999634 11.9962H3.99859C4.52884 11.9962 5.03737 12.2068 5.41231 12.5818C5.78725 12.9567 5.99789 13.4652 5.99789 13.9955V16.9944C5.99789 17.5247 5.78725 18.0332 5.41231 18.4081C5.03737 18.7831 4.52884 18.9937 3.99859 18.9937H2.99894C2.46869 18.9937 1.96016 18.7831 1.58522 18.4081C1.21027 18.0332 0.999634 17.5247 0.999634 16.9944V9.99687C0.999634 7.61075 1.94752 5.32236 3.63475 3.63512C5.32199 1.94788 7.61038 1 9.9965 1C12.3826 1 14.671 1.94788 16.3582 3.63512C18.0455 5.32236 18.9934 7.61075 18.9934 9.99687V16.9944C18.9934 17.5247 18.7827 18.0332 18.4078 18.4081C18.0328 18.7831 17.5243 18.9937 16.9941 18.9937H15.9944C15.4642 18.9937 14.9556 18.7831 14.5807 18.4081C14.2057 18.0332 13.9951 17.5247 13.9951 16.9944V13.9955C13.9951 13.4652 14.2057 12.9567 14.5807 12.5818C14.9556 12.2068 15.4642 11.9962 15.9944 11.9962H18.9934" stroke="#F8F9FA" stroke-width="1.9993" stroke-linecap="round" stroke-linejoin="round"/>
</svg>
