<svg width="59" height="68" viewBox="0 0 59 68" fill="none" xmlns="http://www.w3.org/2000/svg">
<path d="M53.5885 34.2125V34.2664C53.5882 34.7393 53.4032 35.1937 53.0724 35.5344C52.7417 35.8751 52.2908 36.0756 51.8143 36.0939C51.739 36.0805 51.6624 36.0596 51.5914 36.0315L51.6 36.0344C50.8778 34.9162 49.8878 33.9925 48.7183 33.3459C47.5487 32.6993 46.236 32.3497 44.8971 32.3284H44.8914C42.5929 32.4262 40.4277 33.4253 38.8718 35.1058C37.3159 36.7864 36.4967 39.0108 36.5943 41.2902V41.2732V59.0722C36.5013 61.3416 37.3189 63.555 38.8682 65.2278C40.4174 66.9006 42.5719 67.8964 44.86 67.9972H45.2914C45.8457 67.9972 46.3743 67.8725 46.8457 67.6544L46.8228 67.6629V67.6799C47.299 67.4683 47.7695 67.2407 48.2343 66.997C49.8402 66.1048 51.2934 64.9658 52.54 63.6225L52.5514 63.6112C54.7286 61.2052 56.2397 58.2805 56.9371 55.1225L56.96 54.9979C56.9914 54.8619 57.0371 54.7089 57.0657 54.5729C58.1885 49.2547 58.8314 43.1404 58.8314 36.8815C58.8314 34.9209 58.7685 32.9763 58.6428 31.0477L58.6571 31.3112C58.5404 23.1689 55.505 15.3337 50.0943 9.20838L50.1285 9.24804C50.1285 9.23104 50.1114 9.23104 50.0971 9.21688C48.9615 7.98843 47.7238 6.85679 46.3971 5.83388L46.3285 5.78288C45.0194 4.75738 43.6128 3.86066 42.1285 3.10538L41.98 3.03454C38.1103 1.02573 33.8049 -0.0168436 29.4371 -0.00278946H29.3914C24.9758 -0.00960779 20.6259 1.05762 16.7228 3.10538L16.8714 3.03454C15.2114 3.89588 13.7885 4.80821 12.4571 5.83104L12.5228 5.78288C11.1285 6.84821 9.89426 7.97304 8.75997 9.19421L8.73997 9.21404L8.70854 9.24521C3.28696 15.3269 0.249122 23.1377 0.148545 31.2545V31.2772C-0.350416 39.265 0.219296 47.2831 1.84283 55.1225L1.74283 54.5389C1.77712 54.7117 1.81426 54.8562 1.85712 54.995L1.84854 54.9639C2.53846 58.1737 4.06436 61.1483 6.27426 63.5914L6.25997 63.5744C7.4914 64.9032 8.91426 66.028 10.4914 66.9149L10.5771 66.9602C10.9657 67.1869 11.4285 67.4164 11.9085 67.6147L11.9885 67.6431V67.626C12.4371 67.8357 12.9628 67.9576 13.5171 67.9604H13.9314C16.2243 67.8588 18.3831 66.8606 19.9355 65.1842C21.4879 63.5077 22.3072 61.2897 22.2143 59.0155V59.0325V41.2647C22.308 38.9911 21.4892 36.7734 19.9372 35.0973C18.3852 33.4213 16.2266 32.4235 13.9343 32.3227H13.9171C12.5855 32.3408 11.2791 32.6859 10.1148 33.3272C8.9506 33.9685 7.96482 34.8859 7.24569 35.9975L7.22569 36.0287C7.14854 36.0287 7.0714 36.0882 6.99712 36.0882C6.52008 36.0706 6.06846 35.8704 5.7371 35.5297C5.40573 35.1889 5.22038 34.7341 5.21997 34.2607V34.204V34.2069C5.21997 34.1615 5.26569 34.1304 5.26569 34.102C5.29712 33.2832 5.34283 32.4474 5.38855 31.6257C5.51712 29.1409 5.8714 26.8062 6.43712 24.5565L6.38283 24.8087C7.23596 21.0846 8.90386 17.5918 11.2685 14.5775L11.2257 14.637C12.0455 13.588 12.9566 12.6125 13.9485 11.7215C14.1914 11.4949 14.44 11.2965 14.6828 11.084C16.2959 9.71986 18.0861 8.57634 20.0057 7.68404L20.1514 7.62454C23.059 6.28695 26.2262 5.59555 29.4314 5.59871H29.4371C32.8085 5.59871 36.0057 6.34388 38.8685 7.67554L38.7314 7.61888C40.7164 8.52764 42.5668 9.7011 44.2314 11.1067L44.2 11.0784C44.4428 11.2909 44.6914 11.5034 44.92 11.7159C45.9119 12.6068 46.823 13.5824 47.6428 14.6314C49.9502 17.5812 51.584 20.9928 52.4314 24.6302L52.4657 24.8059C52.9828 26.8062 53.3428 29.138 53.4714 31.5322L53.4743 31.6229V31.8042C53.4743 32.6127 53.5238 33.4088 53.6228 34.1927L53.6143 34.0992C53.5828 34.1162 53.5828 34.1445 53.5828 34.204L53.5885 34.2125Z" fill="#E46A28"/>
</svg>
