<svg width="24" height="24" viewBox="0 0 24 24" fill="none" xmlns="http://www.w3.org/2000/svg">
<path d="M2.9989 13.9952H5.99786C6.52811 13.9952 7.03664 14.2058 7.41158 14.5808C7.78652 14.9557 7.99716 15.4642 7.99716 15.9945V18.9935C7.99716 19.5237 7.78652 20.0322 7.41158 20.4072C7.03664 20.7821 6.52811 20.9928 5.99786 20.9928H4.9982C4.46796 20.9928 3.95943 20.7821 3.58448 20.4072C3.20954 20.0322 2.9989 19.5237 2.9989 18.9935V11.9959C2.9989 9.60977 3.94678 7.32138 5.63402 5.63414C7.32126 3.9469 9.60965 2.99902 11.9958 2.99902C14.3819 2.99902 16.6703 3.9469 18.3575 5.63414C20.0448 7.32138 20.9926 9.60977 20.9926 11.9959V18.9935C20.9926 19.5237 20.782 20.0322 20.4071 20.4072C20.0321 20.7821 19.5236 20.9928 18.9933 20.9928H17.9937C17.4634 20.9928 16.9549 20.7821 16.58 20.4072C16.205 20.0322 15.9944 19.5237 15.9944 18.9935V15.9945C15.9944 15.4642 16.205 14.9557 16.58 14.5808C16.9549 14.2058 17.4634 13.9952 17.9937 13.9952H20.9926" stroke="#F8F9FA" stroke-width="1.9993" stroke-linecap="round" stroke-linejoin="round"/>
</svg>
