<svg width="64" height="64" viewBox="0 0 64 64" fill="none" xmlns="http://www.w3.org/2000/svg">
<g clip-path="url(#clip0_885_23822)">
<g filter="url(#filter0_i_885_23822)">
<path d="M64 32C64 40.3307 60.8166 47.9178 55.6 53.6114C54.963 54.3067 51.8987 51.7633 51.2031 52.4C50.4374 53.1009 52.0344 56.9754 51.2031 57.6C45.8544 61.6186 39.2053 64 32 64C29.0932 64 26.2769 63.6124 23.6 62.8861C22.7867 62.6655 25.1862 59.8818 24.4 59.6C23.4448 59.2576 19.3107 61.4028 18.4 60.9746C7.52724 55.8623 0 44.8102 0 32C0 31.2911 1.9546 30.2974 2 29.6C2.01428 29.3806 0.169687 28.6246 0.247575 28C2.21597 12.2148 15.6815 0 32 0C33.428 0 33.0215 5.01871 34.4 5.2C35.9677 5.40616 39.3124 0.800626 40.8 1.22522C49.0052 3.56707 55.8639 9.10181 59.9465 16.4C60.3118 17.0529 58.4802 18.5199 58.8 19.2C59.1682 19.9832 61.6802 19.9837 61.9853 20.8C63.2879 24.2859 64 28.0598 64 32Z" fill="#3D775C"/>
</g>
<mask id="mask0_885_23822" style="mask-type:alpha" maskUnits="userSpaceOnUse" x="0" y="0" width="64" height="64">
<path d="M32 0C33.428 0 33.0218 5.01891 34.4004 5.2002C35.9682 5.4055 39.3122 0.801229 40.7998 1.22559C49.005 3.56744 55.8636 9.1022 59.9463 16.4004C60.311 17.0534 58.4801 18.5202 58.7998 19.2002C59.1682 19.9832 61.6801 19.9837 61.9854 20.7998C63.288 24.2857 64 28.0598 64 32C64 40.3307 60.8162 47.9178 55.5996 53.6113C54.9622 54.3061 51.8987 51.7637 51.2031 52.4004C50.438 53.1017 52.0339 56.9746 51.2031 57.5996C45.8544 61.6182 39.2053 64 32 64C29.0932 64 26.2765 63.612 23.5996 62.8857C22.7877 62.6642 25.1858 59.8818 24.4004 59.5996C23.4453 59.2573 19.3118 61.4021 18.4004 60.9746C7.52763 55.8623 0 44.8102 0 32C8.76466e-07 31.2911 1.9546 30.2971 2 29.5996C2.01208 29.3797 0.170205 28.6242 0.248047 28C2.21646 12.2148 15.6815 2.37964e-07 32 0ZM32.6309 16.9971C32.4332 15.3647 30.9498 14.2019 29.3174 14.3994C27.6852 14.5972 26.5223 16.0806 26.7197 17.7129L26.834 18.6611C23.4768 19.9612 20.6037 22.5225 18.9893 26.0557C17.7339 28.8037 17.4223 31.7421 17.917 34.5068C17.9797 34.8573 18.0562 35.2047 18.1445 35.5488C18.3844 36.4829 18.7163 37.3915 19.1377 38.2588C19.5379 39.0826 20.017 39.87 20.5713 40.6074C20.6406 40.6997 20.7115 40.7911 20.7832 40.8818C21.4277 41.6972 22.166 42.4483 22.9912 43.1162C23.0829 43.1904 23.1757 43.2638 23.2695 43.3359C24.1141 43.9853 25.0453 44.55 26.0557 45.0117C27.6178 45.7255 29.2421 46.1334 30.8604 46.2627C31.1043 46.2822 31.3483 46.2959 31.5918 46.3027C33.6799 46.3616 35.7426 45.9594 37.6348 45.1494C37.8451 45.0594 38.0538 44.9643 38.2598 44.8643C41.1433 43.4633 43.5753 41.0889 45.0117 37.9453C45.1657 37.6084 45.3058 37.2687 45.4316 36.9268C45.5155 36.6988 45.5935 36.4699 45.665 36.2402C46.0587 34.9773 46.2674 33.6908 46.3037 32.4141C46.3103 32.1819 46.3114 31.9501 46.3066 31.7188C46.2816 30.4898 46.0964 29.2756 45.7646 28.1055C45.6115 27.5654 45.4269 27.0348 45.2119 26.5166L46.751 24.333C47.6979 22.9885 47.3757 21.1305 46.0312 20.1836C44.6868 19.2372 42.8296 19.56 41.8828 20.9043L41.5635 21.3564C41.4287 21.2354 41.2904 21.1173 41.1504 21.001C40.8622 20.7616 40.5627 20.5326 40.2529 20.3145L40.6113 19.6025C41.3487 18.1327 40.7549 16.3429 39.2852 15.6055C37.8154 14.8683 36.0255 15.462 35.2881 16.9316L34.7695 17.9629C34.0868 17.8276 33.4006 17.744 32.7168 17.71L32.6309 16.9971Z" fill="#D99B58"/>
</mask>
<g mask="url(#mask0_885_23822)">
<g style="mix-blend-mode:multiply" opacity="0.1">
<g style="mix-blend-mode:multiply">
<path d="M92.6156 100.238C95.7024 96.7877 98.1278 92.6985 99.8478 88.0452C100.48 86.2235 101.351 82.2551 97.7851 79.6192C92.9687 76.0404 87.4034 76.3866 83.6485 76.5495C77.8953 76.9566 72.5067 77.9908 67.5441 79.6404C62.4303 81.2143 57.5801 83.1591 53.013 85.4671C48.6374 87.6989 43.1855 89.8543 41.0068 94.4464C40.8678 94.5794 41.3936 94.8508 41.5142 94.6985L41.6104 94.6065C41.7386 94.4838 41.2972 94.2792 41.1826 94.352C48.534 89.291 56.6583 85.1423 65.4865 81.9409C69.8338 80.404 74.4362 79.2267 79.2705 78.4149C81.864 77.9623 84.597 77.7375 87.4513 77.7421C89.8518 77.7687 95.0157 77.8803 97.7398 81.027C100.792 84.56 97.5903 89.4306 96.7378 91.2788C94.7528 95.3824 92.2316 99.0288 89.2053 102.173C86.0271 105.497 82.5517 108.515 78.793 111.214C75.5248 114.018 71.9941 116.534 68.2144 118.753C68.0113 118.948 68.6381 119.196 68.7711 119.143C73.4577 116.681 77.7822 113.775 81.7195 110.442C85.7155 107.43 89.3539 104.023 92.6156 100.238Z" fill="#4F7A59"/>
</g>
<g style="mix-blend-mode:multiply">
<path d="M120.033 32.5527C120.182 32.4095 119.719 32.2254 119.626 32.2777C112.718 36.5273 106.653 41.8509 100.596 47.0553C93.9586 52.4163 86.7241 57.1093 78.9297 61.1102C71.3506 65.3008 63.7869 69.5503 56.5762 74.126C52.847 76.4769 49.1178 78.8279 45.4807 81.2752C43.8088 82.3954 42.1631 83.5643 40.6523 84.7885C40.0323 85.3817 39.2727 85.8503 38.6818 86.4525C38.2863 86.8309 37.9015 87.1991 37.5167 87.5673L37.5251 87.8543C37.3861 87.9872 37.2472 88.1202 37.1189 88.2429C36.9906 88.3656 37.4689 88.6087 37.5514 88.5666C51.5474 78.8636 66.597 70.4758 81.3945 61.739C88.5486 58.0127 95.0362 53.4698 100.803 48.1485C106.523 42.2064 112.948 36.9957 120.033 32.5527Z" fill="#4F7A59"/>
</g>
<g style="mix-blend-mode:multiply">
<path d="M118.668 24.4936C118.764 24.4015 118.41 24.224 118.343 24.3251C117.074 25.8323 115.468 26.997 113.568 27.7873C111.725 29.071 109.883 30.3548 108.187 31.7927C104.642 34.7423 101.243 37.8459 97.5138 40.603C90.1749 46.1004 82.3978 51.0827 74.1825 55.55C66.5665 59.7021 59.5632 64.5587 52.1974 68.9509C45.0685 73.2269 38.2285 77.8905 31.0503 82.0293C30.8472 82.2236 31.4556 82.4529 31.5595 82.3903C46.9782 74.6451 60.8732 64.9649 75.8575 56.7871C84.0604 52.3069 91.7813 47.2801 99.02 41.7065C102.484 39.0565 105.792 36.223 108.906 33.2071C110.669 31.5196 112.57 29.9964 114.452 28.4539C116.211 27.5219 117.633 26.1867 118.668 24.4936Z" fill="#4F7A59"/>
</g>
<g style="mix-blend-mode:multiply">
<path d="M115.646 19.1947C115.764 19.0822 115.352 18.8867 115.248 18.9493C83.3164 35.2651 60.9549 62.7815 29.1235 79.2231C28.6975 79.0775 28.2674 79.1202 28.4582 79.4908C28.2285 80.0425 29.5016 80.4102 29.7784 80.2929C46.021 72.6812 59.5913 61.7629 72.9489 50.9005C79.8219 45.3941 86.5844 39.7721 93.7046 34.5455C97.2127 31.9635 100.787 29.429 104.424 26.9817C106.336 25.7057 108.174 24.3528 110.067 23.0575C111.009 22.415 111.958 21.802 112.917 21.1788C113.637 20.7114 114.457 19.7061 115.08 19.3307C114.984 19.4227 115.264 19.5232 115.301 19.5617C115.399 19.5476 115.48 19.5077 115.539 19.4447C115.599 19.3816 115.635 19.2965 115.646 19.1947Z" fill="#4F7A59"/>
</g>
<g style="mix-blend-mode:multiply">
<path d="M111.475 13.3795C107.244 14.0718 104.106 16.7417 100.86 18.7413C96.8131 21.3594 92.6111 23.794 88.5196 26.3441C80.2757 31.5519 72.1458 36.8717 64.1301 42.3036C56.1875 47.1307 47.1297 50.5789 37.1155 52.5877C32.0666 53.7306 27.4141 55.4161 22.6201 56.8682C18.4398 58.0828 14.6907 59.9023 11.4344 62.2968C11.1458 62.5729 12.0423 62.9321 12.2074 62.8479C15.8996 60.5468 20.0808 58.8444 24.6876 57.7666C29.5523 56.4312 34.2523 54.7739 39.2169 53.5643C48.341 51.6029 56.7184 48.5253 64.2442 44.3703C68.1694 42.053 71.7273 39.202 75.4898 36.6717C79.5319 33.9844 83.7291 31.4806 87.845 28.8704C91.9608 26.2601 95.8913 23.6059 99.9382 20.9878C103.734 18.5357 107.07 14.9387 111.925 13.8711C112.128 13.6768 111.666 13.344 111.475 13.3795Z" fill="#CED4DA"/>
</g>
<g style="mix-blend-mode:multiply">
<path d="M64.0125 50.9336C59.0403 50.3804 54.9088 52.2681 50.9422 53.408C46.3936 54.4663 41.646 55.2178 36.7171 55.6598C32.0444 56.5435 27.6731 57.8905 23.6401 59.6894C21.563 60.386 19.5673 61.1891 17.6696 62.009C16.0244 62.7718 14.6332 64.656 12.6866 64.9327C12.6866 64.9327 12.569 65.0452 12.6611 65.1415L12.8453 65.334C13.0111 65.5073 13.4858 65.5326 13.2279 65.263C12.97 64.9935 22.323 61.2446 22.8231 61.0611C27.1823 59.5825 31.5182 58.0155 36.1555 56.9346C40.7928 55.8537 45.8569 55.8395 50.4543 54.7599C54.5333 53.8444 58.3534 51.7383 63.0255 51.6567C57.6616 56.0963 51.7454 59.9211 45.3156 63.1061C41.812 65.0937 38.3346 67.1301 34.7496 69.0112C32.9304 69.9773 30.9929 70.7984 29.1107 71.6773C27.46 72.8365 25.5551 73.6945 23.4302 74.2358C23.3233 74.338 23.5289 74.5101 23.6881 74.5053C27.2391 74.2793 29.9121 71.98 32.7916 70.7739C37.1774 68.9379 41.1863 66.4299 45.4045 64.3118C52.6495 60.972 59.1934 56.7462 64.9697 51.6773C65.3564 51.418 64.1765 50.998 64.0125 50.9336Z" fill="#CED4DA"/>
</g>
<g style="mix-blend-mode:multiply">
<path d="M36.6469 62.8837C36.7959 62.483 35.9838 62.1906 35.7295 62.1388C28.4521 62.2792 22.5543 65.488 16.7496 67.9809C16.5679 68.1547 17.1181 68.366 17.2375 68.3623C23.0858 66.7497 28.2 63.6636 34.78 63.1579C34.0317 63.8738 32.9246 64.3431 32.1484 64.9013C30.7326 65.9925 29.1837 66.9324 27.511 67.7155C24.7733 69.0163 22.4273 70.8028 20.5227 73.0372C20.4158 73.1395 20.799 73.326 20.8923 73.2737C23.3388 71.1195 26.1448 69.3606 29.2754 68.0189C30.966 67.2204 32.515 66.2436 33.9109 65.0958C35.0494 64.6194 35.9737 63.8721 36.6469 62.8837Z" fill="#4F7A59"/>
</g>
<g style="mix-blend-mode:multiply">
<path d="M109.355 6.77743C109.355 6.77743 109.226 6.64265 109.198 6.74252C109.365 8.50051 106.299 9.14771 105.191 9.76553C103.505 10.6781 101.566 11.2417 99.7726 11.9991C95.9006 13.6017 92.3989 15.6982 88.679 17.5239C81.4288 21.0311 74.3259 24.6923 66.9574 28.0544C63.5343 29.9907 60.3319 32.1931 57.3622 34.6532C54.2769 36.757 51.4281 39.1507 48.3932 41.2431C45.2015 43.1917 41.6514 44.7006 37.7822 45.753C36.3888 46.2011 34.6803 46.213 33.3867 46.7869C31.827 47.4679 30.4147 48.3029 28.9655 49.0994C28.8265 49.2323 29.2234 49.3689 29.2602 49.4074C30.5438 49.1013 31.4542 48.3409 32.6303 47.8795C34.4104 47.172 36.3444 46.7967 38.2136 46.2253C41.8589 45.1347 45.4548 43.907 48.8278 42.3393C56.4208 38.7624 61.5624 32.1097 69.1941 28.6802C77.0977 25.0642 84.7649 21.1582 92.4534 17.2317C96.2326 15.2754 99.8306 13.0869 103.702 11.2268C105.257 10.4767 106.601 9.48524 108.046 8.61957C108.848 8.38467 109.318 7.72354 109.355 6.77743Z" fill="#CED4DA"/>
</g>
<g style="mix-blend-mode:multiply">
<path d="M105.268 0.323818C105.386 0.211318 104.936 -0.0227426 104.866 0.118036C104.111 1.72557 101.75 2.10387 100.2 2.92322C98.3195 3.911 96.2549 4.70625 94.4007 5.74277C90.5717 7.96802 86.5359 10.1698 82.3919 11.9588C78.4683 13.7214 74.2451 15.1068 70.5212 17.1208C66.5709 19.2408 63.1829 22.0767 59.6165 24.6407C59.3706 24.8759 60.1323 25.1798 60.2683 25.0865C64.1751 22.75 67.8793 20.2017 72.0072 18.0962C76.135 15.9907 80.5999 14.5584 84.7926 12.649C88.9853 10.7397 92.8345 8.64258 96.4532 6.17606C98.1542 5.06493 100.076 4.18484 101.759 3.05446C103.253 2.52568 104.444 1.59924 105.268 0.323818Z" fill="#4F7A59"/>
</g>
<g style="mix-blend-mode:multiply">
<path d="M30.86 33.4246C36.8798 27.112 42.5786 20.4426 48.4219 13.9669C54.2652 7.49117 61.8821 2.52688 68.3849 -3.47349C71.5917 -6.54166 74.7551 -9.82643 77.8205 -13.128C80.4737 -15.9616 84.0926 -17.7645 86.7797 -20.5199L86.9828 -20.7142C86.9828 -20.7142 86.9828 -20.7142 86.8907 -20.8104C86.8381 -20.8555 86.7811 -20.8897 86.7264 -20.909C86.6717 -20.9284 86.6213 -20.9322 86.5812 -20.92L86.3995 -20.7461C83.7806 -18.2404 80.0232 -16.7107 77.2706 -14.409C73.9573 -11.6446 71.028 -8.43624 67.9174 -5.46012C61.1824 0.725544 53.3296 5.65733 47.0629 12.3538C41.1198 18.7038 35.5219 25.3503 29.9395 32.0559C24.3571 38.7614 17.3367 44.1138 12.0519 51.0877C11.8916 51.2411 12.4572 51.5112 12.5962 51.3783C18.3218 45.0151 24.9608 39.5851 30.86 33.4246Z" fill="#CED4DA"/>
</g>
<g style="mix-blend-mode:multiply">
<path d="M48.7096 7.01159C51.9121 3.46813 53.8947 -1.15775 56.8732 -4.89254C60.0596 -8.75247 63.6833 -12.2195 67.3284 -15.707C70.9735 -19.1945 74.6334 -22.8805 78.8572 -25.7417C78.9962 -25.8746 78.5625 -26.0497 78.4799 -26.0076C74.137 -23.45 70.1368 -20.4848 66.5011 -17.1281C62.5815 -13.8205 58.8936 -10.2921 55.516 -6.39671C52.4056 -2.75698 50.4414 1.88815 47.3125 5.50863C45.7318 7.21081 44.3318 9.09212 43.1204 11.1421C41.8083 13.4301 39.766 15.126 38.3035 17.2996C38.0684 17.5246 38.9756 17.8736 39.1068 17.7112C42.3937 14.2345 45.4643 10.596 48.7096 7.01159Z" fill="#CED4DA"/>
</g>
<g style="mix-blend-mode:multiply">
<path d="M28.6308 25.3804C30.4298 22.5528 31.873 19.4388 33.801 16.746C35.7289 14.0532 37.7234 11.0018 39.4237 7.89986C41.124 4.79791 42.8303 1.61655 44.3571 -1.68815C45.0208 -3.13445 45.6827 -4.68965 46.3125 -6.21416C46.8961 -6.98817 47.0992 -8.09282 46.8966 -9.39137C46.8193 -9.68617 46.3321 -9.81014 46.1652 -9.83481C43.8104 -9.69577 41.9426 -8.76286 40.7622 -7.13616C38.1005 -4.58958 35.7472 -1.78488 32.8199 0.462675C27.4714 4.6949 21.61 8.34831 16.1801 12.474C6.28249 20.3144 -2.63144 29.2248 -10.5069 39.1504C-10.71 39.3447 -9.97265 39.7087 -9.80458 39.5848C-7.64464 37.7764 -6.00049 35.4289 -4.17213 33.2739C-2.34378 31.1189 0.044733 28.9075 1.9984 26.6695C6.13377 22.0122 10.7193 17.8096 15.7327 14.0822C20.6905 10.2976 25.9062 6.78249 31.0113 3.15189C33.3675 1.46302 35.5922 -0.370444 37.6854 -2.34851C38.8933 -3.50419 39.854 -4.93964 41.0357 -6.14405C42.1766 -7.72666 43.8537 -8.7776 45.951 -9.22416C45.7277 -7.73216 45.1961 -6.45071 44.378 -5.43273C43.6103 -3.92387 42.8903 -2.38673 42.1518 -0.86884C40.559 2.38833 38.7974 5.51193 37.065 8.64456C35.4941 11.4752 33.5886 13.9989 31.7937 16.6382C29.9988 19.2775 28.4808 22.4631 26.6556 25.2419C19.9653 35.6258 12.7146 45.4026 4.59697 54.4231C4.43662 54.5765 5.02065 54.8659 5.13823 54.7534C14.7252 46.7979 21.8265 36.0946 28.6308 25.3804Z" fill="#CED4DA"/>
</g>
<g style="mix-blend-mode:multiply">
<path d="M12.5646 35.916C13.1423 34.9576 18.5761 25.8497 14.9883 24.3039C13.5727 23.904 12.3466 24.0215 11.5186 24.6364C8.78704 25.9299 6.39647 27.6486 4.38591 29.7644C-0.289666 33.7584 -4.4863 38.253 -8.80118 42.6026C-8.96152 42.756 -8.39592 43.0262 -8.25992 42.9329C-4.26188 39.7715 -0.566308 36.2726 3.3319 32.9855C6.41766 29.9159 10.0754 27.4548 14.2432 25.6437C15.0997 25.3405 14.3339 26.9583 14.2354 27.3475C13.8157 28.7777 13.2908 30.1294 12.663 31.3965C11.7334 33.7095 10.6176 35.8729 9.32125 37.8759C6.46598 42.4885 3.79015 47.2244 0.497546 51.4441C0.379963 51.5566 0.79228 51.7522 0.899174 51.6499C5.24276 46.8398 9.13696 41.5875 12.5646 35.916Z" fill="#CED4DA"/>
</g>
<g style="mix-blend-mode:multiply">
<path d="M6.0083 37.8378C6.10451 37.7457 5.73199 37.549 5.64648 37.6308C2.60298 40.2236 -0.167196 43.1079 -2.65125 46.2704C-3.04676 46.6488 -1.4789 47.3246 -1.19802 47.0189C1.29718 44.0416 3.49468 40.7959 6.0083 37.8378Z" fill="#4F7A59"/>
</g>
<g style="mix-blend-mode:multiply">
<path d="M33.5877 5.84437C33.6732 5.76255 33.3483 5.59408 33.2919 5.68492C31.5053 8.61119 29.1311 11.0302 27.139 13.7844C25.1469 16.5386 23.4083 19.087 21.4679 21.6812C21.1899 21.9471 22.1863 22.4321 22.4078 22.257C27.3353 17.9316 31.0993 12.406 33.5877 5.84437Z" fill="#CED4DA"/>
</g>
<g style="mix-blend-mode:multiply">
<path d="M22.8087 15.8276C22.9263 15.7151 22.4771 15.4811 22.407 15.6218C21.8627 16.7579 21.1759 17.7728 20.3544 18.6552C20.2261 18.7779 20.686 19.0017 20.7822 18.9097C21.6713 18.0836 22.353 17.0469 22.8087 15.8276Z" fill="#4F7A59"/>
</g>
<g style="mix-blend-mode:multiply">
<path d="M49.7514 -31.0816C50.9034 -32.5526 52.034 -34.0031 53.3517 -35.3007C54.9338 -36.8143 57.015 -37.6992 58.6309 -39.1347C58.7805 -39.2778 58.3177 -39.462 58.2536 -39.4006C55.4819 -37.3756 52.0463 -36.3013 49.6924 -33.7541C46.8236 -30.4992 43.6636 -27.5373 40.2257 -24.8811C33.5408 -20.0341 26.8665 -15.1973 19.8055 -10.7648C5.83299 -2.04303 -8.84837 6.06623 -21.009 16.8529C-21.1266 16.9654 -20.7695 17.1032 -20.6977 17.0713C-7.57209 7.0578 7.60959 -0.57133 21.721 -9.42605C25.1568 -11.5701 28.582 -13.7039 31.8383 -15.9713C35.0947 -18.2387 38.6576 -20.3569 41.5593 -23.0593C42.9703 -24.4093 44.7651 -25.3152 46.1393 -26.7037C47.5135 -28.0922 48.581 -29.6299 49.7514 -31.0816Z" fill="#4F7A59"/>
</g>
<g style="mix-blend-mode:multiply">
<path d="M14.4815 -0.622561C14.5884 -0.724833 14.1684 -0.949871 14.0508 -0.837372C3.6946 9.18172 -11.5225 13.8207 -21.0943 24.6382C-21.276 24.8121 -20.6154 25.1388 -20.458 25.0251C-14.7469 21.2574 -8.89922 17.6539 -3.33554 13.7321C3.26738 9.69377 9.22223 4.89613 14.4815 -0.622561Z" fill="#4F7A59"/>
</g>
<g style="mix-blend-mode:multiply">
<path d="M17.4168 -26.9564C19.2986 -29.1625 21.6778 -30.8488 23.799 -32.8046C23.9166 -32.9171 23.4859 -33.1319 23.4004 -33.0501C21.2987 -31.2236 18.5213 -30.1889 16.4933 -28.2855C14.4652 -26.382 12.3244 -24.2968 10.24 -22.3025C5.73973 -17.9969 0.813994 -14.2429 -4.08081 -10.3711C-8.66859 -6.75607 -12.9064 -2.77527 -17.5678 0.7627C-19.9452 2.55785 -22.7094 3.94868 -24.9762 5.85936C-27.243 7.77003 -29.1237 9.82753 -31.2081 11.8218C-31.3578 11.965 -30.8029 12.2454 -30.6532 12.1022C-28.3657 9.91361 -25.9676 7.8405 -23.4329 5.93165C-20.8981 4.02279 -18.0168 2.92555 -15.4018 1.2718C-10.369 -1.92081 -6.18944 -5.91966 -1.68785 -9.71033C2.81373 -13.501 7.50955 -17.3669 12.086 -21.2291C13.975 -22.9996 15.6721 -24.9922 17.4168 -26.9564Z" fill="#4F7A59"/>
</g>
<g style="mix-blend-mode:multiply">
<path d="M81.604 66.923C81.5115 66.8634 81.4178 66.8161 81.3265 66.7828C81.2344 66.6865 80.8346 66.5897 80.9683 66.7936C81.1021 66.9976 78.3431 68.0515 77.8293 68.2849C75.9424 69.0946 74.1077 70.0018 72.2837 70.8987C68.7717 72.5994 65.5021 74.5106 62.3711 76.695C61.9435 77.104 63.2 77.5614 63.4554 77.4645C70.07 74.7353 76.183 71.3508 81.752 67.3345C81.8026 67.3448 81.8433 67.333 81.8652 67.3017C81.8871 67.2704 81.8883 67.2222 81.8687 67.1676C81.859 67.1406 81.8444 67.1128 81.8259 67.0859C81.8073 67.059 81.7851 67.0334 81.7605 67.0107C81.7109 66.9649 81.6546 66.9333 81.604 66.923Z" fill="#4F7A59"/>
</g>
<g clip-path="url(#clip1_885_23822)">
<g filter="url(#filter1_i_885_23822)">
<path d="M108 49C108 59.4133 104.021 68.8973 97.5 76.0142C96.7037 76.8833 92.8734 73.7041 92.0039 74.5C91.0468 75.3761 93.043 80.2193 92.0039 81C85.3179 86.0233 77.0066 89 68 89C64.3665 89 60.8461 88.5155 57.5 87.6077C56.4833 87.3318 59.4828 83.8523 58.5 83.5C57.306 83.072 52.1384 85.7534 51 85.2182C37.409 78.8278 28 65.0127 28 49C28 48.1138 30.4433 46.8718 30.5 46C30.5179 45.7257 28.2121 44.7808 28.3095 44C30.77 24.2684 47.6019 9 68 9C69.785 9 69.2768 15.2734 71 15.5C72.9596 15.7577 77.1404 10.0008 79 10.5315C89.2565 13.4588 97.8298 20.3773 102.933 29.5C103.39 30.3161 101.1 32.1499 101.5 33C101.96 33.979 105.1 33.9796 105.482 35C107.11 39.3573 108 44.0747 108 49Z" fill="#F2BD84"/>
</g>
<g style="mix-blend-mode:multiply" opacity="0.6">
<rect x="68.3423" y="26.5518" width="13.732" height="7.44384" rx="3.72192" transform="rotate(83.1022 68.3423 26.5518)" fill="#B47D41"/>
<mask id="mask1_885_23822" style="mask-type:alpha" maskUnits="userSpaceOnUse" x="50" y="31" width="36" height="36">
<path d="M51.7364 41.5679C47.6322 50.5501 51.5866 61.1587 60.5688 65.2629C69.5509 69.367 80.1595 65.4127 84.2637 56.4305L84.2635 56.431C88.3677 47.4489 84.4134 36.8403 75.4312 32.7361C66.449 28.6319 55.8404 32.5863 51.7362 41.5684L51.7364 41.5679Z" fill="#FF9201"/>
</mask>
<g mask="url(#mask1_885_23822)">
<path d="M51.7371 41.569C47.6329 50.5512 51.5872 61.1598 60.5694 65.264C69.5516 69.3682 80.1602 65.4138 84.2644 56.4316C88.3686 47.4495 84.4142 36.8409 75.432 32.7367C66.4498 28.6325 55.8413 32.5869 51.7371 41.569Z" fill="#D99B58"/>
<path d="M51.2507 40.0426C47.1465 49.0248 51.1009 59.6334 60.0831 63.7376C69.0652 67.8418 79.6738 63.8874 83.778 54.9052C87.8822 45.9231 83.9278 35.3145 74.9457 31.2103C65.9635 27.1061 55.3549 31.0605 51.2507 40.0426Z" fill="#C78C4B"/>
<ellipse cx="70.7032" cy="42.855" rx="9.92991" ry="8.8239" transform="rotate(-165.563 70.7032 42.855)" fill="#D99B58"/>
</g>
</g>
<mask id="mask2_885_23822" style="mask-type:alpha" maskUnits="userSpaceOnUse" x="28" y="9" width="80" height="80">
<path d="M68 9C69.785 9 69.2768 15.2734 71 15.5C72.9595 15.7577 77.1404 10.0007 79 10.5313C89.2565 13.4586 97.8303 20.3773 102.934 29.5C103.39 30.3162 101.1 32.1499 101.5 33C101.96 33.9789 105.1 33.9796 105.481 35C107.11 39.3573 108 44.0747 108 49C108 59.4133 104.021 68.8977 97.5 76.0146C96.7032 76.883 92.8733 73.7042 92.0039 74.5C91.0468 75.3761 93.043 80.2193 92.0039 81C85.318 86.0233 77.0066 89 68 89C64.3665 89 60.8461 88.5153 57.5 87.6074C56.4835 87.3315 59.4828 83.8523 58.5 83.5C57.306 83.072 52.1384 85.753 51 85.2178C37.4091 78.8274 28 65.0126 28 49C28 48.1138 30.4433 46.8718 30.5 46C30.5179 45.7257 28.2122 44.7808 28.3096 44C30.7701 24.2684 47.6019 9 68 9ZM68.7891 30.2471C68.5422 28.2064 66.6872 26.7522 64.6465 26.999C62.6061 27.2461 61.1518 29.1002 61.3984 31.1406L61.542 32.3271C57.3453 33.9522 53.7544 37.1528 51.7363 41.5693L51.7363 41.5684C49.3219 46.8526 49.6975 52.6996 52.2441 57.4541C52.2812 57.5233 52.3185 57.5924 52.3564 57.6611C52.44 57.8123 52.5253 57.9625 52.6133 58.1113C52.6792 58.2228 52.7471 58.3332 52.8154 58.4434C53.2069 59.0741 53.6383 59.6819 54.1084 60.2627C55.1023 61.4906 56.2684 62.5969 57.5918 63.542C57.7088 63.6255 57.8269 63.7081 57.9463 63.7891C58.4172 64.1084 58.9069 64.4081 59.415 64.6855C59.5402 64.7539 59.6665 64.821 59.7939 64.8867C60.0481 65.0178 60.3065 65.1445 60.5693 65.2646C63.3762 66.5472 66.3423 67.0426 69.2187 66.8438C69.3625 66.8338 69.5062 66.822 69.6494 66.8086C73.3762 66.46 76.9316 64.9457 79.7695 62.4688C79.8786 62.3736 79.9868 62.2767 80.0937 62.1787C81.8058 60.609 83.2386 58.6771 84.2646 56.4316C86.4145 51.7264 86.3508 46.5755 84.5137 42.1465L86.4385 39.416C87.622 37.7355 87.2194 35.4141 85.5391 34.2305C83.8585 33.0469 81.5361 33.4493 80.3525 35.1299L79.9531 35.6943C79.6192 35.3946 79.2723 35.1062 78.9131 34.8301C78.7183 34.6803 78.5185 34.5359 78.3164 34.3936L78.7637 33.5029C79.6852 31.6657 78.9426 29.4296 77.1055 28.5078C75.2683 27.5862 73.0322 28.328 72.1104 30.165L71.4629 31.4541C71.3689 31.4355 71.2747 31.4175 71.1807 31.4004C71.0197 31.3712 70.8584 31.344 70.6973 31.3193C70.4234 31.2774 70.1491 31.2418 69.875 31.2129C69.7032 31.1948 69.5311 31.1801 69.3594 31.167C69.2051 31.1552 69.0507 31.1444 68.8965 31.1367L68.7891 30.2471Z" fill="#D99B58"/>
</mask>
<g mask="url(#mask2_885_23822)">
<g style="mix-blend-mode:multiply" opacity="0.1">
<g style="mix-blend-mode:multiply">
<path d="M172.558 32.9937C172.705 32.853 172.189 32.6086 172.059 32.6868C132.145 53.0816 104.193 87.4771 64.404 108.029C63.8715 107.847 63.3339 107.9 63.5724 108.364C63.2853 109.053 64.8767 109.513 65.2227 109.366C85.5259 99.8518 102.489 86.2038 119.186 72.6258C127.777 65.7428 136.23 58.7154 145.13 52.1821C149.516 48.9546 153.983 45.7865 158.53 42.7274C160.919 41.1324 163.217 39.4412 165.584 37.8222C166.76 37.019 167.947 36.2528 169.146 35.4737C170.046 34.8894 171.07 33.6328 171.85 33.1636C171.73 33.2786 172.08 33.4043 172.126 33.4524C172.249 33.4347 172.35 33.3849 172.424 33.3061C172.498 33.2272 172.544 33.1209 172.558 32.9937Z" fill="#BA7A59"/>
</g>
<g style="mix-blend-mode:multiply">
<path d="M167.344 25.7244C162.055 26.5897 158.133 29.9271 154.075 32.4267C149.016 35.6993 143.764 38.7425 138.65 41.9302C128.345 48.4398 118.182 55.0896 108.163 61.8795C98.2344 67.9134 86.9121 72.2237 74.3944 74.7347C68.0832 76.1632 62.2676 78.2701 56.2751 80.0853C51.0497 81.6035 46.3634 83.8779 42.293 86.8709C41.9322 87.2161 43.0528 87.6651 43.2592 87.5599C47.8745 84.6835 53.101 82.5555 58.8595 81.2082C64.9404 79.539 70.8154 77.4674 77.0211 75.9554C88.4262 73.5036 98.898 69.6567 108.305 64.4628C113.212 61.5662 117.659 58.0025 122.362 54.8396C127.415 51.4805 132.661 48.3508 137.806 45.088C142.951 41.8251 147.864 38.5074 152.923 35.2347C157.668 32.1696 161.838 27.6734 167.906 26.3388C168.16 26.0959 167.583 25.68 167.344 25.7244Z" fill="#BA7A59"/>
</g>
<g style="mix-blend-mode:multiply">
<path d="M108.016 72.6672C101.8 71.9758 96.6359 74.3354 91.6777 75.7603C85.9918 77.0832 80.0573 78.0225 73.8962 78.575C68.0553 79.6797 62.5912 81.3634 57.55 83.612C54.9536 84.4828 52.459 85.4866 50.0869 86.5115C48.0304 87.465 46.2913 89.8203 43.8581 90.1661C43.8581 90.1661 43.7112 90.3067 43.8263 90.4271L44.0566 90.6677C44.2638 90.8843 44.8571 90.916 44.5347 90.579C44.2123 90.2421 55.9037 85.556 56.5288 85.3266C61.9777 83.4784 67.3977 81.5196 73.1943 80.1685C78.9908 78.8174 85.321 78.7997 91.0678 77.4501C96.1665 76.3057 100.942 73.6731 106.782 73.5711C100.077 79.1206 92.6816 83.9016 84.6444 87.8829C80.2649 90.3674 75.9181 92.9128 71.4369 95.2642C69.1629 96.4719 66.741 97.4983 64.3882 98.5969C62.3249 100.046 59.9438 101.118 57.2876 101.795C57.154 101.923 57.4109 102.138 57.6099 102.132C62.0488 101.849 65.39 98.9752 68.9894 97.4676C74.4716 95.1726 79.4828 92.0376 84.7555 89.3899C93.8117 85.2153 101.992 79.933 109.212 73.5968C109.695 73.2727 108.22 72.7477 108.016 72.6672Z" fill="#BA7A59"/>
</g>
<g style="mix-blend-mode:multiply">
<path d="M66.5748 50.7808C74.0995 42.89 81.2231 34.5532 88.5271 26.4586C95.8312 18.364 105.352 12.1586 113.481 4.65814C117.489 0.822925 121.444 -3.28303 125.275 -7.41005C128.592 -10.952 133.116 -13.2056 136.474 -16.6498L136.728 -16.8927C136.728 -16.8927 136.728 -16.8927 136.613 -17.0131C136.547 -17.0694 136.476 -17.1121 136.408 -17.1363C136.339 -17.1605 136.276 -17.1652 136.226 -17.1499L135.999 -16.9326C132.725 -13.8005 128.029 -11.8883 124.588 -9.01119C120.446 -5.55576 116.785 -1.5453 112.896 2.17486C104.478 9.90693 94.6618 16.0717 86.8283 24.4423C79.3995 32.3797 72.4021 40.6879 65.4241 49.0698C58.4461 57.4518 49.6706 64.1422 43.0647 72.8596C42.8643 73.0513 43.5713 73.3891 43.745 73.2229C50.9021 65.2689 59.2008 58.4814 66.5748 50.7808Z" fill="#BA7A59"/>
</g>
<g style="mix-blend-mode:multiply">
<path d="M63.788 40.7253C66.0368 37.1908 67.8407 33.2983 70.2507 29.9323C72.6607 26.5662 75.1537 22.752 77.2791 18.8746C79.4046 14.9971 81.5374 11.0204 83.4459 6.88957C84.2755 5.08169 85.1029 3.1377 85.8901 1.23206C86.6196 0.26454 86.8735 -1.11627 86.6203 -2.73945C86.5236 -3.10796 85.9147 -3.26292 85.706 -3.29376C82.7626 -3.11996 80.4278 -1.95382 78.9522 0.079552C75.6251 3.26278 72.6835 6.76866 69.0244 9.5781C62.3388 14.8684 55.012 19.4351 48.2246 24.5923C35.8526 34.3928 24.7102 45.5308 14.8659 57.9377C14.6121 58.1806 15.5337 58.6356 15.7438 58.4807C18.4437 56.2202 20.4989 53.2858 22.7843 50.5921C25.0698 47.8984 28.0554 45.1341 30.4975 42.3366C35.6667 36.515 41.3987 31.2617 47.6654 26.6025C53.8626 21.8717 60.3822 17.4779 66.7637 12.9396C69.7089 10.8285 72.4898 8.5367 75.1062 6.06412C76.6161 4.61952 77.817 2.82521 79.2942 1.31969C80.7202 -0.658568 82.8166 -1.97224 85.4382 -2.53045C85.1592 -0.665444 84.4946 0.936366 83.472 2.20884C82.5124 4.09492 81.6123 6.01635 80.6892 7.91371C78.6982 11.9852 76.4963 15.8897 74.3308 19.8054C72.3671 23.3437 69.9853 26.4984 67.7416 29.7975C65.498 33.0966 63.6005 37.0786 61.319 40.5522C52.9561 53.532 43.8927 65.753 33.7457 77.0286C33.5453 77.2204 34.2753 77.5822 34.4223 77.4415C46.406 67.4971 55.2827 54.118 63.788 40.7253Z" fill="#BA7A59"/>
</g>
<g style="mix-blend-mode:multiply">
<path d="M43.7059 53.895C44.4281 52.697 51.2203 41.3121 46.7355 39.3799C44.966 38.88 43.4334 39.0269 42.3984 39.7955C38.9839 41.4124 35.9957 43.5608 33.4825 46.2055C27.638 51.198 22.3922 56.8162 16.9986 62.2532C16.7982 62.445 17.5052 62.7827 17.6752 62.6662C22.6728 58.7144 27.2922 54.3408 32.165 50.2319C36.0222 46.3949 40.5944 43.3184 45.8041 41.0546C46.8747 40.6757 45.9175 42.6979 45.7944 43.1844C45.2698 44.9721 44.6137 46.6617 43.8289 48.2456C42.6668 51.1369 41.2721 53.8411 39.6517 56.3449C36.0826 62.1106 32.7378 68.0305 28.6221 73.3052C28.4751 73.4458 28.9905 73.6902 29.1241 73.5624C34.5536 67.5498 39.4213 60.9844 43.7059 53.895Z" fill="#BA7A59"/>
</g>
<g style="mix-blend-mode:multiply">
<path d="M35.5094 56.297C35.6297 56.1819 35.164 55.936 35.0571 56.0382C31.2528 59.2793 27.79 62.8847 24.685 66.8378C24.1906 67.3108 26.1504 68.1555 26.5015 67.7734C29.6205 64.0517 32.3674 59.9946 35.5094 56.297Z" fill="#BA7A59"/>
</g>
<g style="mix-blend-mode:multiply">
<path d="M69.9844 16.3055C70.0913 16.2032 69.6851 15.9926 69.6146 16.1062C67.3814 19.764 64.4137 22.7878 61.9235 26.2305C59.4334 29.6733 57.2602 32.8588 54.8346 36.1015C54.4872 36.4339 55.7326 37.0401 56.0095 36.8213C62.1689 31.4146 66.8739 24.5074 69.9844 16.3055Z" fill="#BA7A59"/>
</g>
<g style="mix-blend-mode:multiply">
<path d="M56.5105 28.7843C56.6575 28.6437 56.096 28.3511 56.0084 28.5271C55.3281 29.9471 54.4695 31.2158 53.4427 32.3187C53.2823 32.4721 53.8571 32.7519 53.9774 32.6369C55.0887 31.6043 55.9408 30.3083 56.5105 28.7843Z" fill="#BA7A59"/>
</g>
<g style="mix-blend-mode:multiply">
<path d="M90.189 -29.8518C91.629 -31.6905 93.0422 -33.5036 94.6894 -35.1257C96.667 -37.0177 99.2685 -38.1238 101.288 -39.9181C101.475 -40.0971 100.897 -40.3272 100.817 -40.2505C97.3521 -37.7193 93.0577 -36.3764 90.1152 -33.1924C86.5293 -29.1237 82.5793 -25.4214 78.2819 -22.1011C69.9257 -16.0423 61.5829 -9.99634 52.7566 -4.45575C35.291 6.44646 16.9393 16.583 1.73849 30.0664C1.59151 30.207 2.03783 30.3792 2.12767 30.3394C18.5347 17.8225 37.5117 8.28608 55.1511 -2.78232C59.4458 -5.46238 63.7272 -8.12965 67.7977 -10.9639C71.8681 -13.7981 76.3218 -16.4458 79.9488 -19.8238C81.7126 -21.5113 83.9562 -22.6438 85.6739 -24.3794C87.3916 -26.115 88.7261 -28.0372 90.189 -29.8518Z" fill="#BA7A59"/>
</g>
<g style="mix-blend-mode:multiply">
<path d="M46.1017 8.22302C46.2353 8.09518 45.7103 7.81388 45.5633 7.95451C32.618 20.4784 13.5967 26.2771 1.63188 39.799C1.40472 40.0163 2.23056 40.4247 2.42729 40.2826C9.56609 35.5729 16.8757 31.0686 23.8303 26.1664C32.084 21.1184 39.5275 15.1214 46.1017 8.22302Z" fill="#BA7A59"/>
</g>
<g style="mix-blend-mode:multiply">
<path d="M49.7708 -24.6955C52.123 -27.4531 55.097 -29.5609 57.7486 -32.0057C57.8955 -32.1463 57.3571 -32.4148 57.2502 -32.3126C54.6231 -30.0295 51.1514 -28.7362 48.6163 -26.3568C46.0813 -23.9775 43.4053 -21.3711 40.7997 -18.8782C35.1744 -13.4961 29.0173 -8.80365 22.8987 -3.96382C17.164 0.554913 11.8668 5.53091 6.03998 9.95337C3.06829 12.1973 -0.386947 13.9359 -3.22048 16.3242C-6.05402 18.7125 -8.40484 21.2844 -11.0104 23.7773C-11.1974 23.9563 -10.5038 24.3068 -10.3167 24.1278C-7.45733 21.392 -4.45976 18.8006 -1.29135 16.4146C1.87707 14.0285 5.47872 12.6569 8.74747 10.5897C15.0385 6.59898 20.263 1.60042 25.8899 -3.13791C31.5169 -7.87624 37.3867 -12.7086 43.1072 -17.5364C45.4685 -19.7495 47.5899 -22.2402 49.7708 -24.6955Z" fill="#BA7A59"/>
</g>
</g>
</g>
</g>
</g>
</g>
<path d="M39.875 25.5H39V22C39 18.1395 35.8605 15 32 15C28.1395 15 25 18.1395 25 22V25.5H24.125C22.6783 25.5 21.5 26.6772 21.5 28.125V40.375C21.5 41.8228 22.6783 43 24.125 43H39.875C41.3217 43 42.5 41.8228 42.5 40.375V28.125C42.5 26.6772 41.3217 25.5 39.875 25.5ZM27.3333 22C27.3333 19.4263 29.4263 17.3333 32 17.3333C34.5737 17.3333 36.6667 19.4263 36.6667 22V25.5H27.3333V22ZM33.1667 34.509V37.1667C33.1667 37.8107 32.6452 38.3333 32 38.3333C31.3548 38.3333 30.8333 37.8107 30.8333 37.1667V34.509C30.1392 34.1042 29.6667 33.3598 29.6667 32.5C29.6667 31.2132 30.7132 30.1667 32 30.1667C33.2868 30.1667 34.3333 31.2132 34.3333 32.5C34.3333 33.3598 33.8608 34.1042 33.1667 34.509Z" fill="white"/>
</g>
<defs>
<filter id="filter0_i_885_23822" x="0" y="0" width="64" height="64" filterUnits="userSpaceOnUse" color-interpolation-filters="sRGB">
<feFlood flood-opacity="0" result="BackgroundImageFix"/>
<feBlend mode="normal" in="SourceGraphic" in2="BackgroundImageFix" result="shape"/>
<feColorMatrix in="SourceAlpha" type="matrix" values="0 0 0 0 0 0 0 0 0 0 0 0 0 0 0 0 0 0 127 0" result="hardAlpha"/>
<feOffset dy="-4"/>
<feComposite in2="hardAlpha" operator="arithmetic" k2="-1" k3="1"/>
<feColorMatrix type="matrix" values="0 0 0 0 0.0597917 0 0 0 0 0.281875 0 0 0 0 0.220029 0 0 0 0.45 0"/>
<feBlend mode="normal" in2="shape" result="effect1_innerShadow_885_23822"/>
</filter>
<filter id="filter1_i_885_23822" x="28" y="9" width="80" height="80" filterUnits="userSpaceOnUse" color-interpolation-filters="sRGB">
<feFlood flood-opacity="0" result="BackgroundImageFix"/>
<feBlend mode="normal" in="SourceGraphic" in2="BackgroundImageFix" result="shape"/>
<feColorMatrix in="SourceAlpha" type="matrix" values="0 0 0 0 0 0 0 0 0 0 0 0 0 0 0 0 0 0 127 0" result="hardAlpha"/>
<feOffset dy="-5"/>
<feComposite in2="hardAlpha" operator="arithmetic" k2="-1" k3="1"/>
<feColorMatrix type="matrix" values="0 0 0 0 0.425 0 0 0 0 0.220729 0 0 0 0 0.031875 0 0 0 0.23 0"/>
<feBlend mode="normal" in2="shape" result="effect1_innerShadow_885_23822"/>
</filter>
<clipPath id="clip0_885_23822">
<rect width="64" height="64" rx="32" fill="white"/>
</clipPath>
<clipPath id="clip1_885_23822">
<rect x="28" y="9" width="80" height="80" rx="40" fill="white"/>
</clipPath>
</defs>
</svg>
