<svg width="14" height="14" viewBox="0 0 14 14" fill="none" xmlns="http://www.w3.org/2000/svg">
<path d="M7.87435 0.875H7.29102V6.70833H13.1243V6.125C13.1243 4.73261 12.5712 3.39726 11.5867 2.41269C10.6021 1.42812 9.26674 0.875 7.87435 0.875Z" fill="#E46A28"/>
<path d="M5.83301 2.91699C4.79466 2.91699 3.77962 3.2249 2.91627 3.80178C2.05291 4.37865 1.38 5.19859 0.982643 6.1579C0.585283 7.11722 0.481315 8.17282 0.683887 9.19122C0.88646 10.2096 1.38647 11.1451 2.1207 11.8793C2.85493 12.6135 3.79039 13.1135 4.80879 13.3161C5.82719 13.5187 6.88279 13.4147 7.8421 13.0174C8.80141 12.62 9.62135 11.9471 10.1982 11.0837C10.7751 10.2204 11.083 9.20534 11.083 8.16699V7.58366H6.41634V2.91699H5.83301Z" fill="#E46A28"/>
</svg>
