<svg width="18" height="18" viewBox="0 0 18 18" fill="none" xmlns="http://www.w3.org/2000/svg">
<path d="M15.7595 10.8377L14.8125 9.89062V7.125C14.8125 3.91484 12.2101 1.3125 9 1.3125C5.78984 1.3125 3.1875 3.91484 3.1875 7.125V9.89062L2.24047 10.8377C1.88634 11.1919 1.6875 11.6726 1.6875 12.1735C1.68763 13.2167 2.53325 14.0624 3.57641 14.0625H14.4235C15.4667 14.0624 16.3124 13.2167 16.3125 12.1735C16.3125 11.6726 16.1137 11.1919 15.7595 10.8377Z" fill="#212529"/>
<path d="M11.8125 15C11.2759 16.004 10.218 16.6875 9 16.6875C7.782 16.6875 6.72411 16.004 6.1875 15H11.8125Z" fill="#212529"/>
</svg>
