<svg width="16" height="16" viewBox="0 0 16 16" fill="none" xmlns="http://www.w3.org/2000/svg">
<path d="M7.92873 0.56373C11.8887 0.55498 14.3875 6.99623 13.4012 11.0787C12.5287 14.6937 10.0225 15.4425 8.01623 15.4425C6.00998 15.4425 3.57373 14.47 2.63123 11.2187C1.54123 7.45373 4.23373 0.57248 7.92873 0.56373Z" fill="#F2A05B"/>
<path d="M4.90754 3.6287C4.43254 4.38745 3.95379 5.34245 3.85129 6.1387C3.66379 7.60495 4.74254 7.76995 5.11879 7.04245C5.49504 6.31495 5.88004 5.5787 6.49129 4.60245C7.33629 3.2537 8.72004 2.34995 8.04004 1.7637C7.36004 1.17745 5.90504 2.0337 4.90754 3.6287Z" fill="#FFC943"/>
<path d="M11.425 5.70494C11.5644 5.70494 11.6775 5.58965 11.6775 5.44744C11.6775 5.30523 11.5644 5.18994 11.425 5.18994C11.2855 5.18994 11.1725 5.30523 11.1725 5.44744C11.1725 5.58965 11.2855 5.70494 11.425 5.70494Z" fill="#D47858"/>
<path d="M11.709 11.8609C11.7665 11.7211 11.7003 11.5613 11.5611 11.5041C11.4219 11.4468 11.2625 11.5137 11.205 11.6536C11.1475 11.7934 11.2137 11.9531 11.3528 12.0104C11.492 12.0676 11.6515 12.0007 11.709 11.8609Z" fill="#D47858"/>
<path d="M4.34918 12.9565C4.40275 12.8262 4.34059 12.6772 4.21035 12.6236C4.0801 12.5701 3.93109 12.6322 3.87752 12.7625C3.82395 12.8927 3.8861 13.0417 4.01635 13.0953C4.14659 13.1489 4.29561 13.0867 4.34918 12.9565Z" fill="#D47858"/>
<path d="M12.3617 8.12026C12.5499 8.02275 12.6329 7.80954 12.5472 7.64405C12.4614 7.47855 12.2393 7.42344 12.0512 7.52095C11.863 7.61846 11.78 7.83167 11.8657 7.99717C11.9515 8.16266 12.1736 8.21777 12.3617 8.12026Z" fill="#D47858"/>
<path d="M8.7205 11.4755C8.90867 11.378 8.9917 11.1648 8.90594 10.9993C8.82018 10.8338 8.59811 10.7787 8.40993 10.8762C8.22176 10.9737 8.13874 11.1869 8.22449 11.3524C8.31025 11.5179 8.53232 11.573 8.7205 11.4755Z" fill="#D47858"/>
<path d="M8.36284 13.251C8.50187 13.0766 8.49644 12.8411 8.35071 12.7249C8.20498 12.6086 7.97414 12.6558 7.83511 12.8301C7.69608 13.0044 7.70151 13.24 7.84724 13.3562C7.99297 13.4724 8.22381 13.4253 8.36284 13.251Z" fill="#D47858"/>
<path d="M6.87199 13.6642C7.03622 13.4795 7.02465 13.2011 6.84615 13.0424C6.66765 12.8837 6.38982 12.9047 6.22559 13.0894C6.06136 13.2741 6.07293 13.5525 6.25142 13.7112C6.42992 13.8699 6.70776 13.8489 6.87199 13.6642Z" fill="#D47858"/>
</svg>
