<svg width="11" height="22" viewBox="0 0 11 22" fill="none" xmlns="http://www.w3.org/2000/svg">
<g clip-path="url(#clip0_415_6973)">
<path d="M0.343371 6.46182C0.392898 6.91753 0.973549 6.99915 1.85478 7.07397C2.49179 7.12668 3.14759 7.1811 3.47378 7.53478C3.79997 7.88847 3.68042 9.40524 3.47378 12.33C3.25006 15.4366 2.94436 19.6928 3.65822 20.5311C4.2218 21.1959 5.55219 21.6584 6.89282 21.6602C8.54939 21.6602 9.73632 20.9987 10.0642 19.8917C10.8447 17.2612 10.9181 3.20382 9.90539 1.52721C9.4477 0.76882 8.29492 0.336914 6.74082 0.336914C5.65977 0.336914 4.54458 0.561369 4.03053 0.884449C2.75479 1.68875 0.240903 5.49088 0.343371 6.46182Z" fill="#FFCE1C"/>
<path d="M1.8273 7.41187C2.3977 7.45948 2.9869 7.50879 3.22257 7.76386C3.45825 8.01892 3.27381 10.2941 3.13036 12.3057C2.8776 15.8204 2.59068 19.8062 3.39335 20.7516C4.02866 21.4981 5.43248 21.998 6.88754 21.9998C8.70465 21.9998 10.0128 21.2465 10.3868 19.9865C11.2049 17.2284 11.2595 3.13022 10.1921 1.35838C9.67126 0.494569 8.41261 -0.00195312 6.73554 -0.00195312C5.57764 -0.00195312 4.41463 0.239506 3.84251 0.598294C2.54628 1.41449 -0.12302 5.31355 0.00335749 6.49534C0.0836245 7.26563 1.01096 7.35235 1.8273 7.41187ZM6.74408 0.339832C8.29818 0.339832 9.45096 0.775139 9.90865 1.53012C10.9145 3.19993 10.8479 17.2573 10.0675 19.8946C9.73958 21.0016 8.55265 21.6631 6.89607 21.6631C5.55544 21.6631 4.22506 21.1988 3.66148 20.534C2.94762 19.6957 3.25331 15.4327 3.47704 12.3329C3.6871 9.40816 3.78273 7.86758 3.47704 7.5377C3.17134 7.20782 2.49505 7.1296 1.85804 7.07689C0.976806 7.00207 0.396145 6.92045 0.346618 6.46473C0.24415 5.4938 2.75805 1.69166 4.03036 0.890766C4.541 0.564286 5.6562 0.339832 6.74408 0.339832Z" fill="#D04C1D"/>
<path d="M4.14152 19.8743C4.09541 19.473 4.33109 19.0836 4.63337 18.8133C4.95418 18.5645 5.28888 18.334 5.63586 18.1229C6.93892 17.1979 7.56397 15.5723 7.79623 14.0011C8.02849 12.4299 7.94482 10.8162 8.17879 9.23991C8.23002 8.89983 8.69112 6.83042 9.33497 7.25552C9.58431 7.41706 9.70556 8.44581 9.72093 8.72978C9.90538 12.1187 9.52625 15.511 9.14882 18.8847C9.12939 19.2452 9.04553 19.5993 8.90119 19.9304C8.76645 20.1638 8.58535 20.3674 8.36895 20.5288C8.15254 20.6902 7.90538 20.806 7.64253 20.8691C7.1169 20.9918 6.57479 21.0291 6.03719 20.9796C5.63632 20.9802 5.23891 20.9058 4.86563 20.7602C4.68002 20.6849 4.51641 20.5642 4.38988 20.4094C4.26334 20.2546 4.17794 20.0706 4.14152 19.8743Z" fill="#FBB224"/>
<path d="M7.33497 18.2605C6.93705 18.6226 6.3359 18.7366 6.00629 19.16C5.94372 19.2297 5.89895 19.3133 5.87576 19.4039C5.85258 19.4945 5.85166 19.5893 5.87309 19.6803C5.90114 19.7619 5.94792 19.8358 6.00971 19.8963C6.15519 20.037 6.33394 20.1389 6.52944 20.1927C6.72495 20.2465 6.93091 20.2504 7.12832 20.204C7.52376 20.105 7.87545 19.8791 8.12909 19.5613C8.29706 19.3629 8.43303 19.1398 8.53214 18.8998C8.67248 18.5345 8.75822 18.1506 8.78661 17.7605C8.83955 17.2657 8.84809 16.7403 8.61583 16.2965C8.59276 16.2363 8.55683 16.1819 8.51053 16.137C8.46423 16.0921 8.40867 16.0577 8.3477 16.0363C8.26972 16.0278 8.19107 16.045 8.12382 16.0852C8.05657 16.1254 8.00444 16.1865 7.9754 16.2591C7.92179 16.4055 7.89686 16.5607 7.90196 16.7165C7.8883 17.281 7.75338 17.8796 7.33497 18.2605Z" fill="#F58728"/>
<path d="M8.5971 15.4398C8.64188 15.4371 8.68555 15.4248 8.72507 15.4037C8.76459 15.3825 8.79901 15.3531 8.82595 15.3174C8.98564 15.1414 9.1021 14.931 9.16611 14.7026C9.23013 14.4742 9.23996 14.2341 9.19483 14.0012C9.18535 13.922 9.14924 13.8483 9.09237 13.7921C8.98478 13.7037 8.82424 13.7496 8.68933 13.7139C8.40542 14.132 8.29298 14.6425 8.37509 15.1405C8.39729 15.2731 8.46218 15.4296 8.5971 15.4398Z" fill="#F58728"/>
<path d="M2.77188 3.35312C2.43012 3.75401 2.12545 4.18483 1.86161 4.64033C1.68214 4.90523 1.5788 5.21392 1.56274 5.53305C1.57128 5.85103 1.78477 6.18431 2.10242 6.22342C2.37567 6.25573 2.62501 6.07208 2.82824 5.88334C3.57961 5.20608 4.19104 4.38936 4.62826 3.47895C4.74637 3.27134 4.80982 3.03737 4.81271 2.79878C4.81059 2.67862 4.76929 2.56239 4.69506 2.46762C4.62082 2.37285 4.51767 2.30467 4.40113 2.27336C4.27054 2.26161 4.13925 2.28634 4.02199 2.34477C3.53232 2.5797 3.10431 2.92494 2.77188 3.35312Z" fill="#FFED5E"/>
<path d="M5.01758 1.58857C5.01794 1.68339 5.04566 1.77611 5.09743 1.85569C5.14921 1.93528 5.22285 1.99837 5.30961 2.03747C5.48428 2.11488 5.67594 2.14649 5.86635 2.1293C6.07397 2.1346 6.27939 2.08596 6.46238 1.98817C6.55202 1.93791 6.62538 1.86319 6.67379 1.77281C6.7222 1.68243 6.74366 1.58016 6.73563 1.47804C6.68611 1.18387 6.34455 1.03933 6.05251 1.02063C5.78796 0.994556 5.52202 1.05419 5.29424 1.19067C5.22051 1.23135 5.15719 1.28841 5.1092 1.35742C5.06122 1.42643 5.02986 1.50553 5.01758 1.58857Z" fill="#FFED5E"/>
</g>
<defs>
<clipPath id="clip0_415_6973">
<rect width="11" height="22" fill="white"/>
</clipPath>
</defs>
</svg>
