<svg width="16" height="16" viewBox="0 0 16 16" fill="none" xmlns="http://www.w3.org/2000/svg">
<path d="M1.83325 5.9987C1.83325 5.35436 2.35559 4.83203 2.99992 4.83203H3.66659C4.31092 4.83203 4.83325 5.35436 4.83325 5.9987V12.6653C4.83325 13.3097 4.31092 13.832 3.66659 13.832H2.99992C2.35559 13.832 1.83325 13.3097 1.83325 12.6653V5.9987Z" fill="#E46A28"/>
<path d="M6.5 3.33268C6.5 2.68835 7.02233 2.16602 7.66667 2.16602H8.33333C8.97767 2.16602 9.5 2.68835 9.5 3.33268V12.6657C9.5 13.31 8.97767 13.8323 8.33333 13.8323H7.66667C7.02233 13.8323 6.5 13.31 6.5 12.6657V3.33268Z" fill="#E46A28"/>
<path d="M11.1667 7.9987C11.1667 7.35436 11.6891 6.83203 12.3334 6.83203H13.0001C13.6444 6.83203 14.1667 7.35436 14.1667 7.9987V12.6654C14.1667 13.3097 13.6444 13.832 13.0001 13.832H12.3334C11.6891 13.832 11.1667 13.3097 11.1667 12.6654V7.9987Z" fill="#E46A28"/>
</svg>
