<svg width="24" height="24" viewBox="0 0 24 24" fill="none" xmlns="http://www.w3.org/2000/svg">
<path d="M11.0132 2.81318C11.056 2.58386 11.1777 2.37675 11.3572 2.2277C11.5366 2.07866 11.7626 1.99707 11.9959 1.99707C12.2291 1.99707 12.4551 2.07866 12.6345 2.2277C12.814 2.37675 12.9357 2.58386 12.9785 2.81318L14.0292 8.36924C14.1038 8.76426 14.2957 9.1276 14.58 9.41185C14.8642 9.69611 15.2276 9.88807 15.6226 9.96269L21.1787 11.0133C21.408 11.0562 21.6151 11.1778 21.7641 11.3573C21.9132 11.5368 21.9948 11.7627 21.9948 11.996C21.9948 12.2293 21.9132 12.4552 21.7641 12.6347C21.6151 12.8141 21.408 12.9358 21.1787 12.9786L15.6226 14.0293C15.2276 14.1039 14.8642 14.2959 14.58 14.5801C14.2957 14.8644 14.1038 15.2277 14.0292 15.6227L12.9785 21.1788C12.9357 21.4081 12.814 21.6152 12.6345 21.7643C12.4551 21.9133 12.2291 21.9949 11.9959 21.9949C11.7626 21.9949 11.5366 21.9133 11.3572 21.7643C11.1777 21.6152 11.056 21.4081 11.0132 21.1788L9.96257 15.6227C9.88795 15.2277 9.69598 14.8644 9.41173 14.5801C9.12748 14.2959 8.76413 14.1039 8.36912 14.0293L2.81306 12.9786C2.58374 12.9358 2.37663 12.8141 2.22758 12.6347C2.07854 12.4552 1.99695 12.2293 1.99695 11.996C1.99695 11.7627 2.07854 11.5368 2.22758 11.3573C2.37663 11.1778 2.58374 11.0562 2.81306 11.0133L8.36912 9.96269C8.76413 9.88807 9.12748 9.69611 9.41173 9.41185C9.69598 9.1276 9.88795 8.76426 9.96257 8.36924L11.0132 2.81318Z" stroke="#F8F9FA" stroke-width="1.9993" stroke-linecap="round" stroke-linejoin="round"/>
<path d="M19.993 1.99902V5.99763" stroke="#F8F9FA" stroke-width="1.9993" stroke-linecap="round" stroke-linejoin="round"/>
<path d="M21.9924 3.99902H17.9938" stroke="#F8F9FA" stroke-width="1.9993" stroke-linecap="round" stroke-linejoin="round"/>
<path d="M3.99857 21.9927C5.10276 21.9927 5.99787 21.0976 5.99787 19.9934C5.99787 18.8893 5.10276 17.9941 3.99857 17.9941C2.89439 17.9941 1.99927 18.8893 1.99927 19.9934C1.99927 21.0976 2.89439 21.9927 3.99857 21.9927Z" stroke="#F8F9FA" stroke-width="1.9993" stroke-linecap="round" stroke-linejoin="round"/>
</svg>
