<svg width="24" height="24" viewBox="0 0 24 24" fill="none" xmlns="http://www.w3.org/2000/svg">
<path d="M21.9923 16.9941C21.9923 17.5244 21.7817 18.0329 21.4067 18.4079C21.0318 18.7828 20.5232 18.9935 19.993 18.9935H6.82559C6.29538 18.9936 5.78693 19.2043 5.41208 19.5792L3.21085 21.7805C3.11159 21.8797 2.98513 21.9473 2.84746 21.9747C2.70979 22.0021 2.5671 21.988 2.43742 21.9343C2.30774 21.8806 2.1969 21.7896 2.11891 21.6729C2.04092 21.5562 1.99929 21.419 1.99927 21.2787V4.99833C1.99927 4.46808 2.20991 3.95955 2.58485 3.58461C2.95979 3.20966 3.46832 2.99902 3.99857 2.99902H19.993C20.5232 2.99902 21.0318 3.20966 21.4067 3.58461C21.7817 3.95955 21.9923 4.46808 21.9923 4.99833V16.9941Z" stroke="#F8F9FA" stroke-width="1.9993" stroke-linecap="round" stroke-linejoin="round"/>
</svg>
