<svg width="14" height="18" viewBox="0 0 14 18" fill="none" xmlns="http://www.w3.org/2000/svg">
<path d="M0 1.12518V16.8752C0 17.4938 0.506153 18 1.12482 18H12.0628C12.6817 18 13.188 17.4937 13.188 16.8748V4.14335C13.188 3.79793 13.0508 3.46665 12.8065 3.22239L9.96561 0.381459C9.72135 0.137218 9.39007 5.16163e-06 9.04465 0L1.12518 0C0.50633 0 0 0.506329 0 1.12518Z" fill="url(#paint0_linear_34_1577)"/>
<path d="M2.9979 8.68383H10.1901C10.2762 8.68383 10.3587 8.64963 10.4196 8.58876C10.4804 8.52789 10.5146 8.44534 10.5146 8.35926V7.56779C10.5146 7.48171 10.4804 7.39916 10.4196 7.33829C10.3587 7.27742 10.2762 7.24323 10.1901 7.24323H2.9979C2.91182 7.24323 2.82927 7.27742 2.7684 7.33829C2.70754 7.39916 2.67334 7.48171 2.67334 7.56779V8.35926C2.67334 8.44534 2.70754 8.52789 2.7684 8.58876C2.82927 8.64963 2.91182 8.68383 2.9979 8.68383ZM2.9979 10.9326H10.1901C10.2762 10.9326 10.3587 10.8984 10.4196 10.8375C10.4804 10.7767 10.5146 10.6941 10.5146 10.608V9.81656C10.5146 9.73048 10.4804 9.64792 10.4196 9.58705C10.3587 9.52619 10.2762 9.49199 10.1901 9.49199H2.9979C2.91182 9.49199 2.82927 9.52619 2.7684 9.58705C2.70754 9.64792 2.67334 9.73048 2.67334 9.81656V10.608C2.67334 10.6941 2.70754 10.7767 2.7684 10.8375C2.82927 10.8984 2.91182 10.9326 2.9979 10.9326ZM2.9979 13.1813H10.1901C10.2762 13.1813 10.3587 13.1471 10.4196 13.0863C10.4804 13.0254 10.5146 12.9428 10.5146 12.8568V12.0653C10.5146 11.9792 10.4804 11.8967 10.4196 11.8358C10.3587 11.7749 10.2762 11.7408 10.1901 11.7408H2.9979C2.91182 11.7408 2.82927 11.7749 2.7684 11.8358C2.70754 11.8967 2.67334 11.9792 2.67334 12.0653V12.8568C2.67335 12.9429 2.70755 13.0254 2.76842 13.0863C2.82928 13.1471 2.91183 13.1813 2.9979 13.1813ZM2.90833 15.4301H6.54909C6.61142 15.4301 6.67119 15.4053 6.71525 15.3613C6.75932 15.3172 6.78408 15.2574 6.78408 15.1951V14.2245C6.78408 14.1622 6.75932 14.1024 6.71525 14.0583C6.67119 14.0143 6.61142 13.9895 6.54909 13.9895H2.90833C2.84601 13.9895 2.78624 14.0143 2.74217 14.0583C2.6981 14.1024 2.67334 14.1622 2.67334 14.2245V15.1951C2.67334 15.2574 2.6981 15.3172 2.74217 15.3613C2.78624 15.4053 2.84601 15.4301 2.90833 15.4301Z" fill="#EBEFF0"/>
<path d="M9.96549 0.381484C9.79958 0.215598 9.59193 0.0976075 9.3645 0.039978V3.70781L13.1879 7.53123V4.14334C13.1879 3.79792 13.0507 3.46664 12.8065 3.22238L9.96549 0.381484Z" fill="url(#paint1_linear_34_1577)"/>
<path d="M13.1495 3.8274C13.1536 3.84547 13.1575 3.86308 13.161 3.88006H9.71459C9.47056 3.88006 9.27271 3.68224 9.27271 3.43818V0.0205078C9.30096 0.0255499 9.32911 0.0311747 9.35713 0.0373784C9.61403 0.0942019 9.84828 0.226308 10.0344 0.412343L12.7751 3.15311C12.9606 3.33836 13.0903 3.572 13.1495 3.8274Z" fill="url(#paint2_linear_34_1577)"/>
<path d="M13.188 15.7836V16.8748C13.188 17.4937 12.6817 18 12.0628 18H1.12482C0.506153 18 0 17.4938 0 16.8752V15.7836H13.188Z" fill="url(#paint3_linear_34_1577)"/>
<defs>
<linearGradient id="paint0_linear_34_1577" x1="3.14058" y1="7.01813" x2="11.7028" y2="15.5803" gradientUnits="userSpaceOnUse">
<stop stop-color="#7FAEF4"/>
<stop offset="1" stop-color="#4C8DF1"/>
</linearGradient>
<linearGradient id="paint1_linear_34_1577" x1="9.3645" y1="0.039978" x2="13.1879" y2="0.039978" gradientUnits="userSpaceOnUse">
<stop stop-color="#4C8DF1" stop-opacity="0"/>
<stop offset="1" stop-color="#4256AC"/>
</linearGradient>
<linearGradient id="paint2_linear_34_1577" x1="9.70954" y1="2.07276" x2="11.2879" y2="3.65118" gradientUnits="userSpaceOnUse">
<stop stop-color="#A7C5FD"/>
<stop offset="1" stop-color="#7FAEF4"/>
</linearGradient>
<linearGradient id="paint3_linear_34_1577" x1="0" y1="15.7836" x2="13.188" y2="15.7836" gradientUnits="userSpaceOnUse">
<stop stop-color="#4C8DF1" stop-opacity="0"/>
<stop offset="1" stop-color="#4256AC"/>
</linearGradient>
</defs>
</svg>
