<svg width="60" height="60" viewBox="0 0 60 60" fill="none" xmlns="http://www.w3.org/2000/svg">
<mask id="path-1-inside-1_226_4523" fill="white">
<path d="M0 18C0 8.05888 8.05888 0 18 0H42C51.9411 0 60 8.05888 60 18V42C60 51.9411 51.9411 60 42 60H18C8.05888 60 0 51.9411 0 42V18Z"/>
</mask>
<path d="M0 18C0 8.05888 8.05888 0 18 0H42C51.9411 0 60 8.05888 60 18V42C60 51.9411 51.9411 60 42 60H18C8.05888 60 0 51.9411 0 42V18Z" fill="#E46A28"/>
<path d="M0 0H60H0ZM60 42C60 53.598 50.598 63 39 63H21C9.40202 63 0 53.598 0 42C0 50.2843 8.05887 57 18 57H42C51.9411 57 60 50.2843 60 42ZM0 60V0V60ZM60 0V60V0Z" fill="#E46A28" mask="url(#path-1-inside-1_226_4523)"/>
<path d="M0 0H60H0ZM60 42C60 53.598 50.598 63 39 63H21C9.40202 63 0 53.598 0 42C0 50.2843 8.05887 57 18 57H42C51.9411 57 60 50.2843 60 42ZM0 60V0V60ZM60 0V60V0Z" fill="black" fill-opacity="0.2" mask="url(#path-1-inside-1_226_4523)"/>
<path d="M45.8906 12.9668C45.0567 12.9668 44.3578 13.549 44.1796 14.329C43.374 14.6759 42.7551 15.3243 42.3956 16.0927C41.903 17.1449 41.7536 18.4035 41.7245 19.7783C41.6753 22.113 42.0048 24.8155 42.1494 27.1874C41.9823 28.5623 41.6931 29.8609 41.2997 31.0692C41.566 32.7505 41.6175 34.4898 41.3879 36.243C40.9175 39.8324 37.9641 41.9744 34.8047 42.6121C31.894 43.1999 28.6817 42.6515 26.587 40.7929C23.329 42.9126 19.4014 43.4721 16.0489 42.3486C12.1069 43.8719 9.06173 45.9885 7.83398 48.1082H37.9921C47.6582 48.1082 50.9251 37.9937 48.4365 26.9648C48.4348 26.967 48.4323 26.9684 48.4306 26.9704C47.8953 23.1405 48.5225 20.3657 49.8281 18.6356C50.0161 18.7031 50.2143 18.7378 50.414 18.7382C51.3827 18.7382 52.166 17.952 52.166 16.9832C52.166 16.0146 51.3827 15.2284 50.414 15.2284C49.4453 15.2284 48.659 16.0146 48.659 16.9834C48.659 17.0788 48.6679 17.1704 48.6825 17.2617C46.691 19.6209 45.9774 23.4218 46.8778 28.3154C45.9125 28.7687 44.8948 28.5852 43.9306 27.6825C43.8101 25.0574 43.4278 22.126 43.4765 19.8165C43.503 18.5597 43.6706 17.499 43.9804 16.8371C44.1773 16.4161 44.3762 16.1486 44.6807 15.9903C44.9953 16.29 45.4217 16.4766 45.8906 16.4766C46.8593 16.4766 47.6426 15.6904 47.6426 14.7216C47.6426 13.753 46.8593 12.9668 45.8906 12.9668ZM24.126 15.9609C23.9201 15.96 23.7136 15.9643 23.5078 15.9726C20.2131 16.1057 16.932 17.4234 14.2206 19.8398C8.90217 24.5796 8.64905 33.3951 13.3593 38.6953C16.9826 42.2859 23.3771 41.9568 27.5625 37.7724C31.098 34.2465 31.3696 28.8683 28.3856 25.8661C26.3137 23.7821 22.6672 23.5395 20.3378 25.9775C19.819 26.5203 19.4959 27.4794 19.5029 28.5C19.51 29.5206 19.8453 30.5627 20.3965 31.2246C20.7333 31.629 21.3926 32.0192 22.1309 32.206C22.5703 32.3173 23.0305 32.3541 23.4522 32.3232C24.6892 32.3018 25.9043 31.4785 25.9043 29.8272C25.9043 28.3534 24.9357 27.537 23.8477 27.3634C24.5764 27.2981 25.2336 27.4214 25.7784 27.7206C26.5762 28.1592 27.0618 28.9341 27.2285 29.7393C27.5585 31.3326 26.715 33.2198 24.8466 33.8027L24.8496 33.8085C24.8344 33.8142 24.818 33.8148 24.8027 33.8203C24.7984 33.8216 24.7954 33.8249 24.791 33.8262C23.7999 34.178 22.7096 34.1606 21.7003 33.9052C20.6712 33.645 19.7092 33.1395 19.0488 32.3466C18.1659 31.2867 17.7603 29.8883 17.751 28.5147C17.7416 27.141 18.1269 25.7535 19.0693 24.7675C22.0721 21.625 26.8752 21.8612 29.6279 24.63C33.376 28.4006 32.9355 34.8817 28.7988 39.0088V39.0116C28.5525 39.2579 28.2941 39.4856 28.0342 39.7089C29.6295 40.8995 32.1613 41.3594 34.4591 40.8955C37.1081 40.3605 39.2895 38.7705 39.6505 36.0145C40.5404 29.2218 36.4428 22.2012 32.877 19.2098C30.2836 17.0339 27.2144 15.9749 24.1261 15.9608L24.126 15.9609Z" fill="#F1F3F5"/>
</svg>
