<svg width="64" height="64" viewBox="0 0 64 64" fill="none" xmlns="http://www.w3.org/2000/svg">
<g filter="url(#filter0_ii_810_12445)">
<rect width="64" height="64" rx="32" fill="#E46A28"/>
<path d="M38.4999 15.2083V48.7829C38.4999 51.1208 35.7396 52.3601 33.9933 50.8066L24.2606 42.1529C23.9631 41.889 23.5792 41.7433 23.1816 41.7434H15.2083C14.5681 41.7434 13.9341 41.6173 13.3427 41.3724C12.7512 41.1274 12.2138 40.7683 11.7611 40.3156C11.3084 39.8629 10.9493 39.3255 10.7043 38.734C10.4593 38.1426 10.3333 37.5086 10.3333 36.8684V27.1228C10.3338 25.8302 10.8477 24.5908 11.7619 23.677C12.676 22.7633 13.9157 22.2499 15.2083 22.2499H23.1816C23.5795 22.2495 23.9635 22.103 24.2606 21.8383L33.9911 13.1868C35.7396 11.6333 38.4999 12.8726 38.4999 15.2083ZM47.1493 18.7789C47.4955 18.5224 47.9294 18.4139 48.3557 18.4773C48.7819 18.5407 49.1655 18.7708 49.4221 19.1169C52.1853 22.844 53.6737 27.3625 53.6666 32.0021C53.6726 36.6413 52.1834 41.1589 49.4199 44.8851C49.1607 45.224 48.7785 45.4473 48.356 45.5068C47.9335 45.5664 47.5046 45.4573 47.1618 45.2033C46.819 44.9493 46.5898 44.5706 46.5238 44.149C46.4579 43.7275 46.5603 43.2969 46.8091 42.9503C49.1576 39.7838 50.4227 35.9445 50.4166 32.0021C50.4232 28.059 49.1581 24.2189 46.8091 21.0518C46.6818 20.8801 46.5897 20.6851 46.5379 20.4778C46.4862 20.2705 46.4758 20.055 46.5074 19.8437C46.539 19.6324 46.6119 19.4294 46.7221 19.2463C46.8322 19.0633 46.9774 18.9059 47.1493 18.7789ZM43.1431 24.1349C43.3307 24.0332 43.5366 23.9694 43.7489 23.9472C43.9612 23.925 44.1758 23.9448 44.3804 24.0056C44.585 24.0664 44.7757 24.1669 44.9415 24.3013C45.1072 24.4358 45.2449 24.6016 45.3466 24.7893C46.5079 26.9343 47.1666 29.3934 47.1666 32.0021C47.1677 34.5195 46.5423 36.9975 45.3466 39.2128C45.245 39.4006 45.1074 39.5665 44.9417 39.7011C44.776 39.8358 44.5854 39.9364 44.3808 39.9974C44.1762 40.0583 43.9616 40.0784 43.7492 40.0564C43.5368 40.0344 43.3309 39.9709 43.1431 39.8693C42.9553 39.7677 42.7894 39.6301 42.6547 39.4644C42.5201 39.2987 42.4194 39.1081 42.3585 38.9035C42.2975 38.6989 42.2775 38.4843 42.2994 38.2719C42.3214 38.0595 42.385 37.8536 42.4866 37.6658C43.4257 35.9258 43.9172 33.9794 43.9166 32.0021C43.9166 29.9481 43.3966 28.0198 42.4866 26.3363C42.2819 25.9573 42.2361 25.5125 42.3592 25.0997C42.4823 24.6869 42.7642 24.3399 43.1431 24.1349Z" fill="#F8F9FA"/>
</g>
<defs>
<filter id="filter0_ii_810_12445" x="0" y="0" width="65" height="65" filterUnits="userSpaceOnUse" color-interpolation-filters="sRGB">
<feFlood flood-opacity="0" result="BackgroundImageFix"/>
<feBlend mode="normal" in="SourceGraphic" in2="BackgroundImageFix" result="shape"/>
<feColorMatrix in="SourceAlpha" type="matrix" values="0 0 0 0 0 0 0 0 0 0 0 0 0 0 0 0 0 0 127 0" result="hardAlpha"/>
<feOffset dx="-1" dy="-5"/>
<feComposite in2="hardAlpha" operator="arithmetic" k2="-1" k3="1"/>
<feColorMatrix type="matrix" values="0 0 0 0 0 0 0 0 0 0 0 0 0 0 0 0 0 0 0.05 0"/>
<feBlend mode="normal" in2="shape" result="effect1_innerShadow_810_12445"/>
<feColorMatrix in="SourceAlpha" type="matrix" values="0 0 0 0 0 0 0 0 0 0 0 0 0 0 0 0 0 0 127 0" result="hardAlpha"/>
<feOffset dx="1" dy="1"/>
<feGaussianBlur stdDeviation="0.5"/>
<feComposite in2="hardAlpha" operator="arithmetic" k2="-1" k3="1"/>
<feColorMatrix type="matrix" values="0 0 0 0 1 0 0 0 0 1 0 0 0 0 1 0 0 0 0.2 0"/>
<feBlend mode="normal" in2="effect1_innerShadow_810_12445" result="effect2_innerShadow_810_12445"/>
</filter>
</defs>
</svg>
