<svg width="60" height="60" viewBox="0 0 60 60" fill="none" xmlns="http://www.w3.org/2000/svg">
<mask id="path-1-inside-1_226_4520" fill="white">
<path d="M0 18C0 8.05888 8.05888 0 18 0H42C51.9411 0 60 8.05888 60 18V42C60 51.9411 51.9411 60 42 60H18C8.05888 60 0 51.9411 0 42V18Z"/>
</mask>
<path d="M0 18C0 8.05888 8.05888 0 18 0H42C51.9411 0 60 8.05888 60 18V42C60 51.9411 51.9411 60 42 60H18C8.05888 60 0 51.9411 0 42V18Z" fill="#E46A28"/>
<path d="M0 0H60H0ZM60 42C60 53.598 50.598 63 39 63H21C9.40202 63 0 53.598 0 42C0 50.2843 8.05887 57 18 57H42C51.9411 57 60 50.2843 60 42ZM0 60V0V60ZM60 0V60V0Z" fill="#E46A28" mask="url(#path-1-inside-1_226_4520)"/>
<path d="M0 0H60H0ZM60 42C60 53.598 50.598 63 39 63H21C9.40202 63 0 53.598 0 42C0 50.2843 8.05887 57 18 57H42C51.9411 57 60 50.2843 60 42ZM0 60V0V60ZM60 0V60V0Z" fill="black" fill-opacity="0.1" mask="url(#path-1-inside-1_226_4520)"/>
<path fill-rule="evenodd" clip-rule="evenodd" d="M43.94 19.94C44.2212 19.6591 44.6025 19.5013 45 19.5013C45.3975 19.5013 45.7788 19.6591 46.06 19.94L46.064 19.944L46.07 19.948L46.084 19.962L46.124 20.002L46.248 20.14C46.348 20.254 46.488 20.416 46.65 20.622C48.4979 23.0239 49.4999 25.9694 49.5 29C49.4999 32.0305 48.4979 34.976 46.65 37.378C46.4825 37.5917 46.3063 37.7986 46.122 37.998L46.082 38.038L46.07 38.052L46.064 38.056L46.062 38.058L45.042 37.042L46.062 38.062C45.7806 38.3434 45.399 38.5014 45.001 38.5014C44.603 38.5014 44.2214 38.3434 43.94 38.062C43.6586 37.7806 43.5005 37.3989 43.5005 37.001C43.5005 36.603 43.6586 36.2214 43.94 35.94L43.938 35.942L43.934 35.944L43.944 35.934L44.01 35.862C44.074 35.7926 44.1667 35.6813 44.288 35.528C45.5533 33.8762 46.3115 31.8925 46.4706 29.818C46.6296 27.7434 46.1827 25.6673 45.184 23.842C44.9233 23.3616 44.6236 22.9034 44.288 22.472C44.1794 22.3316 44.0646 22.1961 43.944 22.066L43.934 22.056C43.6551 21.7741 43.4992 21.3933 43.5003 20.9967C43.5014 20.6002 43.6595 20.2203 43.94 19.94ZM32.074 12.792C34.4 11.258 37.5 12.928 37.5 15.714V44.286C37.5 47.074 34.4 48.742 32.074 47.208L20.074 39.298C19.9928 39.2438 19.8976 39.2146 19.8 39.214H14C12.5413 39.214 11.1424 38.6345 10.1109 37.6031C9.07946 36.5716 8.5 35.1727 8.5 33.714V26.286C8.5 24.8273 9.07946 23.4283 10.1109 22.3969C11.1424 21.3654 12.5413 20.786 14 20.786H19.8C19.8981 20.7863 19.994 20.7578 20.076 20.704L32.074 12.792Z" fill="#F1F3F5"/>
</svg>
