<svg width="189" height="165" viewBox="0 0 189 165" fill="none" xmlns="http://www.w3.org/2000/svg">
<rect x="35" y="38" width="118" height="118" rx="59" fill="#E46A28"/>
<path d="M71.9421 92.6941C70.9557 89.9642 70.4626 88.5993 70.6729 87.7247C70.9029 86.7681 71.5832 86.0223 72.4528 85.7735C73.2478 85.546 74.4846 86.0957 76.9581 87.1951C79.146 88.1675 80.2399 88.6537 81.2678 88.6267C82.3994 88.5969 83.4881 88.1431 84.3541 87.3401C85.1406 86.6108 85.6681 85.4486 86.7232 83.1243L89.0485 78.0018C90.9909 73.7229 91.962 71.5835 93.5 71.5835C95.038 71.5835 96.0091 73.7229 97.9515 78.0018L100.277 83.1243C101.332 85.4486 101.86 86.6108 102.646 87.3401C103.512 88.1431 104.6 88.5969 105.732 88.6267C106.76 88.6537 107.854 88.1675 110.042 87.1951C112.515 86.0957 113.752 85.546 114.547 85.7735C115.417 86.0223 116.097 86.7681 116.327 87.7247C116.537 88.5993 116.044 89.9642 115.058 92.6938L110.818 104.427C109.005 109.447 108.098 111.956 106.2 113.374C104.303 114.792 101.85 114.792 96.946 114.792H90.054C85.1496 114.792 82.6973 114.792 80.7997 113.374C78.902 111.956 77.9952 109.447 76.1816 104.427L71.9421 92.6941Z" stroke="white" stroke-width="1.5"/>
<path d="M93.5 102.083H93.5221" stroke="white" stroke-width="2.5" stroke-linecap="round" stroke-linejoin="round"/>
<path d="M80.793 122.417H106.21" stroke="white" stroke-width="1.5" stroke-linecap="round"/>
<circle cx="9" cy="9" r="9" fill="#E46A28"/>
<circle cx="180" cy="38" r="9" fill="#E46A28"/>
<circle cx="174.5" cy="125.5" r="4.5" fill="#E46A28"/>
<circle cx="150.5" cy="158.5" r="4.5" fill="#E46A28"/>
<circle cx="54.5" cy="160.5" r="4.5" fill="#E46A28"/>
<circle cx="4.5" cy="120.5" r="4.5" fill="#E46A28"/>
<circle cx="116.5" cy="6.5" r="2.5" fill="#E46A28"/>
<circle cx="172.5" cy="147" r="2" fill="#E46A28"/>
</svg>
