<svg width="96" height="96" viewBox="0 0 96 96" fill="none" xmlns="http://www.w3.org/2000/svg">
<path d="M20.4 66.9375L14.025 81.7594L28.8469 75.3844C25.5 72.9938 22.6313 70.125 20.4 66.9375ZM75.225 28.6875L81.6 13.8656L66.9375 20.2406C70.125 22.6313 72.9938 25.5 75.225 28.6875ZM14.9812 41.9156L0 47.8125L14.9812 53.7094C14.5031 51.7969 14.3438 49.8844 14.3438 47.8125C14.3438 45.7406 14.5031 43.8281 14.9812 41.9156ZM80.6437 53.7094L95.625 47.8125L80.6437 41.9156C80.9625 43.8281 81.2812 45.9 81.2812 47.8125C81.2812 49.8844 81.1219 51.7969 80.6437 53.7094ZM28.6875 20.4L13.8656 14.025L20.2406 28.8469C22.6313 25.5 25.5 22.6313 28.6875 20.4ZM66.9375 75.225L81.7594 81.6L75.3844 66.7781C72.9938 70.125 70.125 72.9938 66.9375 75.225ZM53.7094 14.9812L47.8125 0L41.9156 14.9812C43.8281 14.6625 45.9 14.3438 47.8125 14.3438C49.725 14.3438 51.7969 14.5031 53.7094 14.9812ZM41.9156 80.6437L47.8125 95.625L53.7094 80.6437C51.7969 81.1219 49.8844 81.2812 47.8125 81.2812C45.7406 81.2812 43.8281 81.1219 41.9156 80.6437Z" fill="#FFCE31"/>
<path d="M47.8125 78.0938C64.5364 78.0938 78.0938 64.5364 78.0938 47.8125C78.0938 31.0886 64.5364 17.5312 47.8125 17.5312C31.0886 17.5312 17.5312 31.0886 17.5312 47.8125C17.5312 64.5364 31.0886 78.0938 47.8125 78.0938Z" fill="#FFCE31"/>
</svg>
