<svg width="32" height="30" viewBox="0 0 32 30" fill="none" xmlns="http://www.w3.org/2000/svg">
<g clip-path="url(#clip0_520_9297)">
<path d="M9.27905 9.72998C9.10498 9.46899 8.81201 9.3125 8.49902 9.3125C8.18604 9.3125 7.89307 9.46899 7.71899 9.72998L5.40625 13.1047L8.49902 17.5649L11.3242 12.7979L9.27905 9.72998Z" fill="#FF641A"/>
<path d="M24.2793 9.72937C23.9314 9.2074 23.0671 9.2074 22.7192 9.72937L20.6738 12.7972L23.4993 17.5643L26.592 13.1041L24.2793 9.72937Z" fill="#F03800"/>
<path d="M30.124 12.1254L27.199 27.9611H4.79907L1.87402 12.1254L4.79907 10.9067L8.42407 13.4414L14.0864 3.76164H17.9116L23.574 13.4414L27.199 10.9067L30.124 12.1254Z" fill="#FFE55E"/>
<path d="M2.81152 13.0625C1.26074 13.0625 -0.000976562 11.8008 -0.000976562 10.25C-0.000976562 8.69922 1.26074 7.4375 2.81152 7.4375C4.36231 7.4375 5.62403 8.69922 5.62403 10.25C5.62403 11.8008 4.36231 13.0625 2.81152 13.0625Z" fill="#FFDA2D"/>
<path d="M29.1875 13.0625C27.6367 13.0625 26.375 11.8008 26.375 10.25C26.375 8.69922 27.6367 7.4375 29.1875 7.4375C30.7383 7.4375 32 8.69922 32 10.25C32 11.8008 30.7383 13.0625 29.1875 13.0625Z" fill="#FDBF00"/>
<path d="M15.999 -0.119141C14.4426 -0.119141 13.1865 1.13696 13.1865 2.69336C13.1865 4.24951 14.4426 5.50586 15.999 5.50586C17.5554 5.50586 18.8115 4.24951 18.8115 2.69336C18.8115 1.13696 17.5554 -0.119141 15.999 -0.119141Z" fill="#FFDA2D"/>
<path d="M13.792 20.5625H2.70258C2.24526 20.5625 1.875 20.1431 1.875 19.625C1.875 19.1069 2.24526 18.6875 2.70258 18.6875H13.792C14.2493 18.6875 14.6196 19.1069 14.6196 19.625C14.6196 20.1431 14.2493 20.5625 13.792 20.5625Z" fill="#FFDA2D"/>
<path d="M29.2956 20.5625H18.228C17.7706 20.5625 17.4004 20.1431 17.4004 19.625C17.4004 19.1069 17.7706 18.6875 18.228 18.6875H29.2956C29.7529 18.6875 30.1232 19.1069 30.1232 19.625C30.1232 20.1431 29.7529 20.5625 29.2956 20.5625Z" fill="#FDBF00"/>
<path d="M30.1232 23.375C30.1232 23.8999 29.7592 24.3125 29.2956 24.3125H2.70258C2.23901 24.3125 1.875 23.8999 1.875 23.375C1.875 22.8499 2.23901 22.4375 2.70258 22.4375H29.2956C29.7592 22.4375 30.1232 22.8499 30.1232 23.375Z" fill="#FFDA2D"/>
<path d="M30.1231 23.375C30.1231 23.8999 29.7591 24.3125 29.2955 24.3125H15.999V22.4375H29.2955C29.7591 22.4375 30.1231 22.8499 30.1231 23.375Z" fill="#FDBF00"/>
<path d="M20.5368 17.187L16.7495 12.2371C16.562 12.012 16.2993 11.8809 15.9995 11.8809C15.6994 11.8809 15.437 12.012 15.2492 12.2559L11.4992 17.187C11.2556 17.5056 11.2556 17.937 11.4619 18.2744L15.2119 23.8994C15.3994 24.1619 15.6806 24.312 15.9992 24.312C16.3181 24.312 16.5993 24.1619 16.768 23.8994L20.5744 18.2744C20.7995 17.937 20.7807 17.5059 20.5368 17.187Z" fill="#F03800"/>
<path d="M16.9365 17.75C16.9365 18.2749 16.5242 18.6875 15.999 18.6875C15.4739 18.6875 15.0615 18.2749 15.0615 17.75C15.0615 17.2249 15.4739 16.8125 15.999 16.8125C16.5242 16.8125 16.9365 17.2249 16.9365 17.75Z" fill="#F03800"/>
<path fill-rule="evenodd" clip-rule="evenodd" d="M16.0215 19.0352C15.4963 19.0352 15.084 18.6226 15.084 18.0977C15.084 17.5725 15.4963 17.1602 16.0215 17.1602C16.5466 17.1602 16.959 17.5725 16.959 18.0977C16.959 18.6226 16.5466 19.0352 16.0215 19.0352Z" fill="#CD0000"/>
</g>
<defs>
<clipPath id="clip0_520_9297">
<rect width="32" height="32" fill="white" transform="translate(0 -2)"/>
</clipPath>
</defs>
</svg>
