<svg width="16" height="16" viewBox="0 0 16 16" fill="none" xmlns="http://www.w3.org/2000/svg">
<path d="M14.4873 1.51246C14.1591 1.18433 13.714 1 13.2499 1C12.7858 1 12.3408 1.18433 12.0126 1.51246L11.2413 2.28379L13.7159 4.75846L14.4873 3.98713C14.8154 3.65895 14.9997 3.21387 14.9997 2.74979C14.9997 2.28571 14.8154 1.84064 14.4873 1.51246ZM13.0086 5.46579L10.5339 2.99113L4.93393 8.59113C4.52249 9.00235 4.22004 9.50964 4.05393 10.0671L3.52059 11.8571C3.49484 11.9435 3.49292 12.0352 3.51503 12.1226C3.53715 12.21 3.58247 12.2898 3.6462 12.3535C3.70994 12.4173 3.78972 12.4626 3.8771 12.4847C3.96448 12.5068 4.05621 12.5049 4.14259 12.4791L5.93259 11.9458C6.49008 11.7797 6.99737 11.4772 7.40859 11.0658L13.0086 5.46579Z" fill="#868E96"/>
<path d="M3.5 3.5C2.96957 3.5 2.46086 3.71071 2.08579 4.08579C1.71071 4.46086 1.5 4.96957 1.5 5.5V12.5C1.5 13.0304 1.71071 13.5391 2.08579 13.9142C2.46086 14.2893 2.96957 14.5 3.5 14.5H10.5C11.0304 14.5 11.5391 14.2893 11.9142 13.9142C12.2893 13.5391 12.5 13.0304 12.5 12.5V9C12.5 8.86739 12.4473 8.74022 12.3536 8.64645C12.2598 8.55268 12.1326 8.5 12 8.5C11.8674 8.5 11.7402 8.55268 11.6464 8.64645C11.5527 8.74022 11.5 8.86739 11.5 9V12.5C11.5 12.7652 11.3946 13.0196 11.2071 13.2071C11.0196 13.3946 10.7652 13.5 10.5 13.5H3.5C3.23478 13.5 2.98043 13.3946 2.79289 13.2071C2.60536 13.0196 2.5 12.7652 2.5 12.5V5.5C2.5 5.23478 2.60536 4.98043 2.79289 4.79289C2.98043 4.60536 3.23478 4.5 3.5 4.5H7C7.13261 4.5 7.25979 4.44732 7.35355 4.35355C7.44732 4.25979 7.5 4.13261 7.5 4C7.5 3.86739 7.44732 3.74021 7.35355 3.64645C7.25979 3.55268 7.13261 3.5 7 3.5H3.5Z" fill="#868E96"/>
</svg>
