<svg width="32" height="32" viewBox="0 0 32 32" fill="none" xmlns="http://www.w3.org/2000/svg">
<path d="M4.99219 4.22398L7.04019 1.15198L9.08819 4.22398L7.04019 5.24798L4.99219 4.22398Z" fill="#7E8387"/>
<path d="M9.08819 4.224H4.99219V7.296H9.08819V4.224Z" fill="#E0B999"/>
<path d="M11.1358 9.34397L7.03985 10.368L2.94385 9.34397L4.99185 6.27197H9.08785L11.1358 9.34397Z" fill="#7E8387"/>
<path d="M11.1358 9.34399H2.94385V13.44H11.1358V9.34399Z" fill="#E0B999"/>
<path d="M4.99198 12.928C4.7091 12.928 4.47998 12.6989 4.47998 12.416V11.392C4.47998 11.1091 4.7091 10.88 4.99198 10.88C5.27486 10.88 5.50398 11.1091 5.50398 11.392V12.416C5.50398 12.6989 5.27486 12.928 4.99198 12.928Z" fill="#C09F84"/>
<path d="M7.03983 12.928C6.75695 12.928 6.52783 12.6989 6.52783 12.416V11.392C6.52783 11.1091 6.75695 10.88 7.03983 10.88C7.32271 10.88 7.55183 11.1091 7.55183 11.392V12.416C7.55183 12.6989 7.32271 12.928 7.03983 12.928Z" fill="#C09F84"/>
<path d="M9.08817 12.928C8.80529 12.928 8.57617 12.6989 8.57617 12.416V11.392C8.57617 11.1091 8.80529 10.88 9.08817 10.88C9.37105 10.88 9.60017 11.1091 9.60017 11.392V12.416C9.60017 12.6989 9.37105 12.928 9.08817 12.928Z" fill="#C09F84"/>
<path d="M13.184 12.416H0.895996V22.656H13.184V12.416Z" fill="#F5CAA7"/>
<path d="M3.45613 12.416H2.43213V19.584H3.45613V12.416Z" fill="#E0B999"/>
<path d="M11.648 12.416H10.624V19.584H11.648V12.416Z" fill="#E0B999"/>
<path d="M9.60017 12.416H8.57617V19.584H9.60017V12.416Z" fill="#E0B999"/>
<path d="M7.55183 12.416H6.52783V19.584H7.55183V12.416Z" fill="#E0B999"/>
<path d="M5.50398 12.416H4.47998V19.584H5.50398V12.416Z" fill="#E0B999"/>
<path d="M28.5441 6.27197H13.1841V16.512H28.5441V6.27197Z" fill="#3397E8"/>
<path d="M28.5441 6.99837L23.9361 10.368H28.5441V12.416H23.9361L28.5441 15.7856V16.512H26.155L21.8881 13.44V16.512H19.8401V13.44L15.5732 16.512H13.1841V15.7856L17.7921 12.416H13.1841V10.368H17.7921L13.1841 6.99837V6.27197H15.5732L19.8401 9.34397V6.27197H21.8881V9.34397L26.155 6.27197H28.5441V6.99837Z" fill="#E9EEF2"/>
<path d="M28.5441 6.27197H27.5201L20.8641 10.88L14.2081 6.27197H13.1841L20.3521 11.392L13.1841 16.512H14.2081L20.8641 11.904L27.5201 16.512H28.5441L21.3761 11.392L28.5441 6.27197Z" fill="#EB6F6D"/>
<path d="M21.3761 6.27197H20.3521V16.512H21.3761V6.27197Z" fill="#EB6F6D"/>
<path d="M28.5441 10.88H13.1841V11.904H28.5441V10.88Z" fill="#EB6F6D"/>
<path d="M7.03977 19.072C8.73639 19.072 10.1118 17.6966 10.1118 16C10.1118 14.3034 8.73639 12.928 7.03977 12.928C5.34315 12.928 3.96777 14.3034 3.96777 16C3.96777 17.6966 5.34315 19.072 7.03977 19.072Z" fill="#E9EEF2"/>
<path d="M8.06383 16.512H7.03983C6.75695 16.512 6.52783 16.2829 6.52783 16V13.952C6.52783 13.6691 6.75695 13.44 7.03983 13.44C7.32271 13.44 7.55183 13.6691 7.55183 13.952V15.488H8.06383C8.34671 15.488 8.57583 15.7171 8.57583 16C8.57583 16.2829 8.34671 16.512 8.06383 16.512Z" fill="#D0D2D4"/>
<path d="M13.184 19.584H0.895996V22.656H13.184V19.584Z" fill="#E0B999"/>
<path d="M4.99198 23.168C4.7091 23.168 4.47998 22.9389 4.47998 22.656V21.632C4.47998 21.3491 4.7091 21.12 4.99198 21.12C5.27486 21.12 5.50398 21.3491 5.50398 21.632V22.656C5.50398 22.9389 5.27486 23.168 4.99198 23.168Z" fill="#C09F84"/>
<path d="M7.03983 23.168C6.75695 23.168 6.52783 22.9389 6.52783 22.656V21.632C6.52783 21.3491 6.75695 21.12 7.03983 21.12C7.32271 21.12 7.55183 21.3491 7.55183 21.632V22.656C7.55183 22.9389 7.32271 23.168 7.03983 23.168Z" fill="#C09F84"/>
<path d="M9.08817 23.168C8.80529 23.168 8.57617 22.9389 8.57617 22.656V21.632C8.57617 21.3491 8.80529 21.12 9.08817 21.12C9.37105 21.12 9.60017 21.3491 9.60017 21.632V22.656C9.60017 22.9389 9.37105 23.168 9.08817 23.168Z" fill="#C09F84"/>
<path d="M11.1358 22.656H2.94385V30.848H11.1358V22.656Z" fill="#F5CAA7"/>
<path d="M5.50398 22.656H4.47998V30.848H5.50398V22.656Z" fill="#E0B999"/>
<path d="M7.55183 22.656H6.52783V30.848H7.55183V22.656Z" fill="#E0B999"/>
<path d="M9.60017 22.656H8.57617V30.848H9.60017V22.656Z" fill="#E0B999"/>
<path d="M3.45613 22.656H2.43213V30.848H3.45613V22.656Z" fill="#E0B999"/>
<path d="M11.648 22.656H10.624V30.848H11.648V22.656Z" fill="#E0B999"/>
<path d="M7.03977 12.928C5.34313 12.928 3.96777 14.3033 3.96777 16C3.96777 17.6966 5.34313 19.072 7.03977 19.072C8.73641 19.072 10.1118 17.6966 10.1118 16C10.1118 14.3033 8.73641 12.928 7.03977 12.928ZM7.03977 18.048C5.90889 18.048 4.99177 17.1309 4.99177 16C4.99177 14.8691 5.90889 13.952 7.03977 13.952C8.17065 13.952 9.08777 14.8691 9.08777 16C9.08777 17.1309 8.17065 18.048 7.03977 18.048Z" fill="#D0D2D4"/>
<path d="M21.8881 20.096L17.7921 16.512H15.7441L16.7681 21.12L21.8881 20.096Z" fill="#D0D2D4"/>
<path d="M11.1362 25.216C11.0402 25.216 10.9429 25.209 10.8469 25.1949C9.89009 25.0567 9.15729 24.2637 9.03761 23.2986L8.57617 19.5872H11.1362C11.1362 19.5872 11.1362 21.1322 13.1842 21.1322C18.8162 21.1322 24.285 19.072 28.0322 19.072C30.0802 19.072 31.1042 20.1184 31.1042 21.6474V22.6771C31.1042 24.0992 30.0181 25.2154 28.6786 25.2154H11.1362V25.216Z" fill="#E9EEF2"/>
<path d="M31.1041 22.656V22.6778C31.1041 23.0355 31.0356 23.3741 30.9108 23.68H9.11944C9.08104 23.5571 9.05352 23.4291 9.03752 23.2986L8.95752 22.656H31.1041Z" fill="#3397E8"/>
<path d="M22.4001 22.656L18.3041 27.264H15.7441L16.7681 22.656H22.4001Z" fill="#D0D2D4"/>
<path d="M31.1041 21.632H27.0081C26.7252 21.632 26.4961 21.4029 26.4961 21.12C26.4961 20.8371 26.7252 20.608 27.0081 20.608H30.9153C31.0395 20.9145 31.1022 21.2589 31.1041 21.632Z" fill="#D0D2D4"/>
</svg>
