<svg width="16" height="24" viewBox="0 0 16 24" fill="none" xmlns="http://www.w3.org/2000/svg">
<g clip-path="url(#clip0_415_6977)">
<path d="M0.734547 7.70628C1.01122 8.36091 1.66349 9.45456 2.93283 9.45456H2.97139C4.2424 9.43125 4.80581 8.72611 5.25686 8.15695C5.5503 7.78981 5.8035 7.47123 6.1724 7.47123C6.41937 7.48829 6.65481 7.59808 6.84312 7.78398C6.97723 7.89988 7.08321 8.05396 7.15078 8.23128C7.21835 8.4086 7.24522 8.60314 7.22878 8.79604C7.14997 10.4317 4.77395 13.1454 2.69137 14.5595C1.3231 15.4881 0.773105 17.72 0.716094 19.4994C0.667467 20.9951 0.959231 22.2597 1.44047 22.6463C2.09778 23.1727 5.89405 23.6176 9.73224 23.6176C12.2575 23.6176 14.0919 23.4233 14.6536 23.0756C15.5105 22.5531 15.7301 21.1331 15.6597 20.0763C15.5893 19.0196 15.2221 18.1338 14.7693 17.9512C14.3593 17.839 13.9376 17.7939 13.5168 17.8172C12.7169 17.8172 11.6907 17.8949 10.7853 17.9648C9.99381 18.025 9.24596 18.0814 8.73454 18.0814C8.17784 18.0814 8.0219 18.0172 7.94142 17.9026C7.77374 17.6773 7.97327 17.4578 8.90054 16.3991C11.0301 13.9632 16.0169 8.2599 13.5537 4.09511C12.1435 1.70968 9.89992 0.404297 7.23716 0.404297C4.68675 0.404297 2.17826 1.68831 0.843533 3.67552C0.202996 4.59823 0.161082 6.34651 0.734547 7.70628Z" fill="#B9D43B"/>
<path d="M2.93276 9.84282H2.97802C4.39156 9.81756 5.03378 9.00947 5.50328 8.42088C5.75312 8.10619 5.94931 7.85949 6.174 7.85949C6.34546 7.88084 6.50707 7.96291 6.6368 8.09454C6.72682 8.17212 6.79762 8.27581 6.84207 8.39516C6.88651 8.51451 6.90304 8.64532 6.88999 8.77442C6.81789 10.2197 4.48043 12.8907 2.5169 14.2135C1.03126 15.2236 0.436005 17.5935 0.37564 19.4758C0.321982 21.1231 0.662371 22.4887 1.24422 22.9549C2.05747 23.6057 6.1958 23.9942 9.72713 23.9942C10.9646 23.9942 13.9359 23.9378 14.8045 23.4114C15.8106 22.8015 16.0671 21.2125 15.9883 20.0372C15.9045 18.7785 15.4618 17.8072 14.8682 17.5741C14.6049 17.4711 14.1606 17.4206 13.5083 17.4206C12.6984 17.4206 11.6638 17.4983 10.755 17.5683C9.96859 17.6285 9.22577 17.6848 8.72609 17.6848C8.58105 17.6872 8.43602 17.6794 8.29179 17.6615C8.436 17.4575 8.77471 17.0788 9.13019 16.6669C11.3201 14.163 16.4461 8.30044 13.8252 3.86758C12.3714 1.41028 9.9686 0 7.23207 0C4.58273 0 1.9686 1.34229 0.573501 3.4208C-0.130754 4.47171 -0.189442 6.38316 0.437681 7.8692C0.962518 9.12019 1.87302 9.84282 2.93276 9.84282ZM7.22871 0.394334C9.89146 0.394334 12.135 1.70748 13.5452 4.08514C16.0084 8.24994 11.03 13.9532 8.89209 16.3892C7.96482 17.4478 7.77367 17.6673 7.93297 17.8927C8.01345 18.0073 8.16939 18.0714 8.72609 18.0714C9.22913 18.0714 9.98536 18.0151 10.7768 17.9548C11.6823 17.8849 12.7085 17.8072 13.5083 17.8072C13.9292 17.784 14.3508 17.8291 14.7609 17.9412C15.2136 18.12 15.5792 18.9941 15.6513 20.0664C15.7234 21.1386 15.5037 22.5431 14.6452 23.0656C14.0885 23.4056 12.249 23.6076 9.72379 23.6076C5.8856 23.6076 2.08932 23.1647 1.43202 22.6363C0.950779 22.2478 0.659015 20.9852 0.707642 19.4894C0.764654 17.7101 1.31465 15.4781 2.68291 14.5496C4.7655 13.1354 7.14152 10.4217 7.22033 8.78608C7.23677 8.59318 7.2099 8.39864 7.14233 8.22132C7.07476 8.044 6.96877 7.88992 6.83466 7.77402C6.64635 7.58812 6.4109 7.47833 6.16394 7.46127C5.79504 7.46127 5.54185 7.77984 5.24841 8.14698C4.79735 8.71614 4.24233 9.42129 2.96294 9.4446H2.92437C1.65504 9.4446 1.00276 8.34901 0.726085 7.69632C0.15262 6.33655 0.194546 4.59992 0.826699 3.65779C2.16981 1.67252 4.6783 0.388507 7.22871 0.388507V0.394334Z" fill="#4F7523"/>
<path d="M3.33686 6.39287C2.95119 6.48223 2.54876 6.46475 2.17316 6.58713C1.79756 6.70951 1.43034 7.0611 1.41357 7.51566C1.53323 7.80616 1.70944 8.06053 1.92834 8.25876C2.14724 8.457 2.40285 8.59369 2.67508 8.65808C2.94731 8.72247 3.22873 8.71281 3.49719 8.62985C3.76565 8.5469 4.01383 8.39291 4.22221 8.18001C4.45864 7.93913 4.6347 7.63027 4.86777 7.38745C5.13636 7.10679 5.46853 6.92079 5.82523 6.85131C6.1019 6.79887 6.38695 6.81635 6.66363 6.76196C6.80366 6.74464 6.93851 6.69093 7.05813 6.60482C7.17775 6.51872 7.27904 6.40244 7.35447 6.26467C7.554 5.82177 7.27398 5.2429 6.8749 5.05447C6.47583 4.86605 6.01471 4.97677 5.61563 5.16714C4.83759 5.54399 4.16687 6.20251 3.33686 6.39287Z" fill="#8BBE41"/>
<path d="M15.2456 21.0303C15.3579 21.4538 15.1416 21.9161 14.8197 22.1958C14.4777 22.4472 14.0937 22.612 13.6928 22.6795C10.9882 23.3264 8.1812 23.2623 5.41951 23.035C4.76187 23.0049 4.10931 22.8883 3.47443 22.6873C2.90921 22.5027 2.40168 22.1339 2.01227 21.6247C1.82731 21.38 1.69708 21.0863 1.63305 20.7696C1.56901 20.4529 1.57314 20.1229 1.64505 19.8084C1.66752 19.6974 1.71975 19.5974 1.79428 19.5229C1.99214 19.3539 2.2772 19.5093 2.49183 19.653C3.83327 20.5466 5.43461 20.8904 7.00913 20.9118C8.58364 20.9332 10.1464 20.6495 11.7042 20.3659C12.4788 20.2261 13.2669 20.0843 14.0517 20.1931C14.5447 20.2533 15.1064 20.5019 15.2456 21.0303Z" fill="#8BBE41"/>
<path d="M12.3697 6.91728C12.7503 6.89009 13.074 7.30579 13.1377 7.74091C13.2014 8.17604 13.0756 8.62088 12.9314 9.03076C11.9623 11.7969 10.1966 14.0813 8.39235 16.2065C8.03016 16.6338 7.52209 17.0923 7.05091 16.8495C6.68872 16.6552 6.54787 16.1132 6.65015 15.6684C6.75244 15.2236 7.00899 14.8545 7.26554 14.5029C8.43091 12.9119 9.60467 11.3093 10.4867 9.49114C10.8707 8.69664 11.2127 7.84192 11.8046 7.24362C11.9579 7.06741 12.156 6.953 12.3697 6.91728Z" fill="#8BBE41"/>
<path d="M3.59512 6.99347C3.35198 6.90606 3.15411 7.03427 2.94619 7.17024C2.7936 7.26931 2.61083 7.24018 2.48507 7.39752C2.43762 7.45469 2.41113 7.53092 2.41113 7.61023C2.41113 7.68954 2.43762 7.76577 2.48507 7.82294C2.80869 8.23087 3.61021 8.05993 3.79465 7.56264C3.82035 7.51136 3.83558 7.45394 3.83916 7.39479C3.84275 7.33564 3.8346 7.27632 3.81534 7.22138C3.79608 7.16644 3.76621 7.11734 3.72804 7.07784C3.68987 7.03833 3.6444 7.00947 3.59512 6.99347Z" fill="#719D35"/>
<path d="M5.02535 6.29743C4.95363 6.35172 4.87853 6.39977 4.80066 6.44117C4.75608 6.45698 4.71839 6.49195 4.69532 6.53889C4.67225 6.58584 4.66554 6.64122 4.67657 6.6937C4.68447 6.72344 4.69799 6.75076 4.71613 6.7737C4.73427 6.79664 4.75658 6.81461 4.78146 6.82633C4.80634 6.83804 4.83316 6.8432 4.85997 6.84143C4.88678 6.83966 4.91292 6.831 4.93648 6.81608C5.05435 6.75425 5.15486 6.65531 5.22656 6.53053C5.3104 6.38678 5.14608 6.20807 5.02535 6.29743Z" fill="#719D35"/>
<path d="M10.9729 10.3094C10.3911 11.1952 9.83775 12.1198 9.21901 12.9726C8.81826 13.5242 8.10058 14.2566 7.9765 14.9812C7.96614 15.0277 7.96916 15.0769 7.9851 15.1214C8.00103 15.1658 8.02901 15.203 8.06481 15.2273C8.10061 15.2517 8.14229 15.2619 8.18353 15.2564C8.22477 15.2509 8.26334 15.2299 8.29342 15.1968C9.55101 13.804 11.263 12.6521 11.5045 10.4764C11.5447 10.1073 11.1205 10.086 10.9729 10.3094Z" fill="#719D35"/>
<path d="M10.2135 21.6338C8.05543 21.358 5.91752 21.8281 3.76619 21.29C3.71993 21.2798 3.67205 21.2901 3.63203 21.3188C3.59202 21.3476 3.56279 21.3927 3.55013 21.4452C3.53747 21.4978 3.5423 21.5539 3.56369 21.6025C3.58507 21.6511 3.62144 21.6886 3.66558 21.7076C4.71417 22.1485 5.80656 22.4343 6.91689 22.5585C7.99843 22.6867 9.2644 22.8751 10.304 22.4167C10.3824 22.389 10.4498 22.33 10.4941 22.2501C10.5384 22.1703 10.5567 22.0748 10.5459 21.9807C10.535 21.8866 10.4956 21.8 10.4347 21.7365C10.3738 21.6729 10.2954 21.6366 10.2135 21.6338Z" fill="#719D35"/>
<path d="M12.9834 21.1292C12.5894 21.0165 12.2506 21.1564 11.8935 21.3467C11.7258 21.4342 11.2982 21.6711 11.372 21.947C11.4659 22.3064 11.8415 22.2403 12.093 22.2015C12.529 22.1354 12.9012 22.1412 13.1813 21.6925C13.206 21.6416 13.2205 21.5848 13.2237 21.5265C13.2269 21.4681 13.2187 21.4097 13.1996 21.3556C13.1806 21.3014 13.1513 21.2529 13.1139 21.2137C13.0764 21.1745 13.0318 21.1456 12.9834 21.1292Z" fill="#719D35"/>
<path d="M6.06336 1.10161C4.5425 0.90736 2.68964 2.35455 1.77243 3.66382C1.64164 3.85807 1.81938 4.19801 2.01389 4.02707C3.28322 2.914 4.86445 2.745 6.27799 2.02043C6.71228 1.79121 6.4289 1.14435 6.06336 1.10161Z" fill="#EDEA74"/>
<path d="M9.02952 1.45062C8.66566 1.08154 8.17435 1.23499 7.73839 1.30298C7.67674 1.30889 7.61927 1.34143 7.57737 1.39415C7.53547 1.44687 7.51221 1.51591 7.51221 1.58757C7.51221 1.65922 7.53547 1.72827 7.57737 1.78098C7.61927 1.8337 7.67674 1.86624 7.73839 1.87215C8.11567 1.92654 8.52648 2.0664 8.91214 2.0023C8.9592 1.98525 9.00167 1.95443 9.03545 1.91282C9.06922 1.87121 9.09317 1.82022 9.10497 1.76476C9.11677 1.7093 9.11603 1.65125 9.10281 1.59622C9.08959 1.5412 9.06435 1.49105 9.02952 1.45062Z" fill="#EDEA74"/>
<path d="M5.77163 13.2834C5.29039 13.0056 4.55092 13.7224 4.19543 14.039C3.62365 14.5499 3.02168 15.0492 2.71483 15.8359C2.57733 16.1933 2.88251 16.7353 3.23799 16.4439C3.72354 16.0112 4.18502 15.5434 4.61967 15.0433C4.8634 14.77 5.12096 14.5138 5.39099 14.276C5.59117 14.1304 5.7539 13.9251 5.86217 13.6816C5.89482 13.6146 5.90362 13.5356 5.88671 13.4612C5.8698 13.3868 5.82852 13.323 5.77163 13.2834Z" fill="#EDEA74"/>
<path d="M2.73153 17.1696C2.71871 17.1136 2.69334 17.0626 2.658 17.0216C2.62267 16.9807 2.57861 16.9513 2.53031 16.9365C2.50655 16.9306 2.48246 16.9267 2.45821 16.9248C2.40809 16.9253 2.35892 16.9408 2.31545 16.9697C2.27198 16.9986 2.23568 17.04 2.21005 17.0899C2.16461 17.1787 2.12804 17.2732 2.10105 17.3716C2.079 17.4453 2.07133 17.5238 2.07858 17.6014C2.08582 17.679 2.10781 17.7537 2.14297 17.8203C2.16677 17.8681 2.20098 17.9077 2.24218 17.9354C2.28338 17.963 2.33013 17.9776 2.37773 17.9777C2.42503 17.9759 2.47121 17.9606 2.51218 17.9332C2.55314 17.9057 2.58759 17.8669 2.61247 17.8203C2.59235 17.8514 2.59403 17.8514 2.61247 17.8203C2.64028 17.793 2.66115 17.7574 2.67284 17.7174C2.69493 17.6585 2.71232 17.5973 2.72482 17.5348C2.7508 17.4152 2.75309 17.2903 2.73153 17.1696Z" fill="#EDEA74"/>
</g>
<defs>
<clipPath id="clip0_415_6977">
<rect width="16" height="24" fill="white"/>
</clipPath>
</defs>
</svg>
