<svg width="65" height="65" viewBox="0 0 65 65" fill="none" xmlns="http://www.w3.org/2000/svg">
<path d="M25.675 9.39451C21.0882 7.20457 14.6771 6.13181 6.09376 6.09373C5.28426 6.08273 4.49065 6.31877 3.81876 6.77039C3.26726 7.14316 2.81581 7.64574 2.50412 8.23392C2.19243 8.8221 2.03005 9.47787 2.03126 10.1435V46.4648C2.03126 48.9201 3.77813 50.7723 6.09376 50.7723C15.1163 50.7723 24.1668 51.6153 29.5877 56.7391C29.6619 56.8095 29.7551 56.8566 29.8558 56.8745C29.9564 56.8924 30.0602 56.8803 30.154 56.8397C30.2479 56.7991 30.3278 56.7319 30.3837 56.6463C30.4397 56.5607 30.4692 56.4605 30.4688 56.3583V13.5611C30.4689 13.2724 30.4071 12.987 30.2875 12.7242C30.1679 12.4614 29.9934 12.2273 29.7756 12.0377C28.5339 10.9761 27.1546 10.0871 25.675 9.39451ZM61.1813 6.76658C60.509 6.31609 59.7154 6.08136 58.9063 6.09373C50.323 6.13181 43.9118 7.19949 39.325 9.39451C37.8455 10.0858 36.4658 10.9731 35.2232 12.0326C35.0058 12.2225 34.8316 12.4566 34.7123 12.7194C34.5929 12.9822 34.5312 13.2674 34.5313 13.556V56.3557C34.5312 56.454 34.5602 56.5501 34.6145 56.632C34.6688 56.7138 34.7462 56.7778 34.8367 56.8159C34.9273 56.854 35.0271 56.8645 35.1236 56.8461C35.2202 56.8277 35.3091 56.7812 35.3793 56.7125C38.6382 53.4752 44.3574 50.7685 58.9113 50.7698C59.9888 50.7698 61.0221 50.3418 61.784 49.5799C62.5458 48.8181 62.9738 47.7847 62.9738 46.7073V10.1448C62.9753 9.47782 62.8126 8.82074 62.4999 8.23156C62.1873 7.64239 61.7344 7.13925 61.1813 6.76658Z" fill="#E46A28"/>
</svg>
