<svg width="37" height="37" viewBox="0 0 37 37" fill="none" xmlns="http://www.w3.org/2000/svg">
    <rect width="37" height="37" rx="14" fill="#E46A28" />
    <path
        d="M19.5 10.5601C19.5 9.22407 17.884 8.55507 16.94 9.50007L12.44 14.0001H10.508C9.36701 14.0001 8.19001 14.6641 7.84801 15.9051C7.61598 16.7505 7.49893 17.6234 7.50001 18.5001C7.50001 19.3981 7.62101 20.2681 7.85001 21.0951C8.19101 22.3351 9.36801 23.0001 10.509 23.0001H12.439L16.939 27.5001C17.884 28.4451 19.5 27.7761 19.5 26.4401V10.5601ZM24.584 11.6061C24.7246 11.4656 24.9153 11.3867 25.114 11.3867C25.3128 11.3867 25.5034 11.4656 25.644 11.6061C29.452 15.4131 29.452 21.5861 25.644 25.3941C25.5018 25.5266 25.3138 25.5987 25.1195 25.5952C24.9252 25.5918 24.7398 25.5131 24.6024 25.3757C24.465 25.2383 24.3863 25.0529 24.3828 24.8586C24.3794 24.6643 24.4515 24.4762 24.584 24.3341C25.3502 23.568 25.958 22.6585 26.3727 21.6575C26.7873 20.6564 27.0007 19.5836 27.0007 18.5001C27.0007 17.4166 26.7873 16.3437 26.3727 15.3427C25.958 14.3417 25.3502 13.4322 24.584 12.6661C24.4436 12.5254 24.3647 12.3348 24.3647 12.1361C24.3647 11.9373 24.4436 11.7467 24.584 11.6061Z"
        fill="#FFE2D2" />
    <path
        d="M21.932 14.2569C22.0016 14.1873 22.0843 14.132 22.1753 14.0942C22.2664 14.0565 22.3639 14.0371 22.4625 14.0371C22.561 14.0371 22.6586 14.0565 22.7496 14.0942C22.8406 14.132 22.9233 14.1873 22.993 14.2569C23.5502 14.8141 23.9923 15.4756 24.2939 16.2036C24.5955 16.9316 24.7507 17.7119 24.7507 18.4999C24.7507 19.288 24.5955 20.0683 24.2939 20.7963C23.9923 21.5243 23.5502 22.1858 22.993 22.7429C22.8514 22.8795 22.662 22.955 22.4653 22.9532C22.2687 22.9514 22.0806 22.8724 21.9416 22.7333C21.8026 22.5942 21.7238 22.4061 21.7222 22.2094C21.7206 22.0128 21.7963 21.8233 21.933 21.6819C22.3508 21.2641 22.6823 20.768 22.9085 20.222C23.1346 19.6761 23.251 19.0909 23.251 18.4999C23.251 17.909 23.1346 17.3238 22.9085 16.7779C22.6823 16.2319 22.3508 15.7358 21.933 15.3179C21.7925 15.1773 21.7136 14.9867 21.7136 14.7879C21.7136 14.5892 21.7925 14.3986 21.933 14.2579L21.932 14.2569Z"
        fill="#FFE2D2" />
</svg>