<svg width="41" height="41" viewBox="0 0 41 41" fill="none" xmlns="http://www.w3.org/2000/svg">
<g clip-path="url(#clip0_520_9389)">
<rect x="23.1091" y="8.12891" width="19.3635" height="24.3107" rx="5.86257" transform="rotate(17.8932 23.1091 8.12891)" fill="#FFD426"/>
<rect x="23.9512" y="11.0664" width="15.9572" height="14.3544" rx="3.90838" transform="rotate(17.8932 23.9512 11.0664)" fill="#FFA301"/>
<rect x="20.27" y="26.8105" width="13.2892" height="1.14583" rx="0.572917" transform="rotate(17.8932 20.27 26.8105)" fill="#FFA301"/>
<rect x="21.9827" y="29.6289" width="8.29555" height="1.14583" rx="0.572917" transform="rotate(17.8932 21.9827 29.6289)" fill="#FFA301"/>
<g style="mix-blend-mode:screen">
<rect x="38.6997" y="18.8906" width="0.521797" height="5.73608" rx="0.260898" transform="rotate(17.8932 38.6997 18.8906)" fill="#FFD426"/>
<rect x="36.7168" y="25.0332" width="0.521797" height="1.69682" rx="0.260898" transform="rotate(17.8932 36.7168 25.0332)" fill="#FFD426"/>
</g>
<g style="mix-blend-mode:multiply">
<path d="M23.4654 22.8417C23.2123 22.76 23.0396 22.629 22.9473 22.4487C22.855 22.2685 22.8497 22.0518 22.9314 21.7987L24.638 16.5128C24.7198 16.2597 24.8508 16.087 25.031 15.9948C25.2113 15.9025 25.428 15.8972 25.6811 15.9789L28.0369 16.7395C28.5236 16.8966 28.9159 17.1021 29.2137 17.3559C29.5116 17.6098 29.7052 17.898 29.7945 18.2206C29.8903 18.5454 29.8785 18.8927 29.7591 19.2626C29.6271 19.6715 29.3981 19.981 29.0723 20.1911C28.7465 20.4012 28.3635 20.4889 27.9232 20.4543L27.9735 20.2985C28.42 20.5358 28.7259 20.8424 28.8912 21.2183C29.0651 21.5897 29.0776 22.0058 28.9289 22.4666C28.7319 23.0766 28.367 23.4855 27.8341 23.6933C27.3033 23.8946 26.668 23.8758 25.9282 23.6369L23.4654 22.8417ZM24.479 21.9328L26.0852 22.4514C26.4746 22.5771 26.7842 22.5947 27.0141 22.5041C27.2461 22.407 27.4103 22.2092 27.5067 21.9107C27.6031 21.6122 27.5845 21.3589 27.451 21.151C27.3175 20.9431 27.056 20.7763 26.6666 20.6505L25.0605 20.132L24.479 21.9328ZM25.4219 19.0125L26.8626 19.4776C27.239 19.5992 27.5411 19.6179 27.7689 19.5338C27.9967 19.4497 28.1567 19.2648 28.2489 18.9793C28.339 18.7002 28.3162 18.46 28.1806 18.2585C28.045 18.0571 27.789 17.8956 27.4126 17.7741L25.9719 17.3089L25.4219 19.0125Z" fill="#FFA301"/>
<path d="M32.2338 25.791C31.851 25.6674 31.5406 25.4633 31.3029 25.1787C31.0737 24.8897 30.9618 24.5705 30.9671 24.2211L31.1779 23.9344L30.983 24.5379C30.9055 24.7781 30.7841 24.9431 30.6189 25.0331C30.4537 25.1231 30.2543 25.1304 30.0207 25.0549C29.787 24.9795 29.6263 24.8559 29.5384 24.6842C29.457 24.5146 29.4551 24.3098 29.5326 24.0697L31.3209 18.5307C31.4005 18.2841 31.5219 18.1191 31.685 18.0356C31.8567 17.9477 32.0626 17.9425 32.3027 18.02C32.5363 18.0954 32.6939 18.218 32.7753 18.3876C32.8652 18.5528 32.8704 18.7587 32.7908 19.0053L32.0459 21.3124L31.9291 21.2747C32.1272 21.0161 32.4017 20.8432 32.7524 20.7558C33.1031 20.6683 33.4666 20.6854 33.843 20.8069C34.2648 20.9431 34.599 21.1621 34.8456 21.4638C35.0921 21.7656 35.2433 22.1297 35.2991 22.5562C35.3549 22.9827 35.3 23.4522 35.1345 23.9649C34.969 24.4776 34.7378 24.8939 34.4411 25.2137C34.1443 25.5335 33.8045 25.7427 33.4215 25.8412C33.0451 25.9418 32.6492 25.9251 32.2338 25.791ZM32.1509 24.5496C32.3586 24.6166 32.5571 24.6233 32.7464 24.5698C32.9421 24.5183 33.1147 24.4056 33.264 24.2317C33.4219 24.0534 33.5522 23.8052 33.6548 23.4872C33.8078 23.0135 33.8226 22.6348 33.6991 22.3513C33.5777 22.0613 33.3613 21.866 33.0498 21.7655C32.8421 21.6984 32.6415 21.6874 32.4478 21.7323C32.2606 21.7794 32.0881 21.8921 31.9302 22.0704C31.7744 22.2423 31.6451 22.4872 31.5425 22.8052C31.3895 23.279 31.3727 23.6641 31.4919 23.9606C31.6133 24.2506 31.8329 24.4469 32.1509 24.5496Z" fill="#FFA301"/>
</g>
<path d="M23.4707 22.5917C23.2176 22.51 23.045 22.379 22.9527 22.1987C22.8604 22.0185 22.8551 21.8018 22.9368 21.5487L24.6434 16.2628C24.7251 16.0097 24.8561 15.837 25.0364 15.7448C25.2167 15.6525 25.4334 15.6472 25.6865 15.7289L28.0422 16.4895C28.529 16.6466 28.9213 16.8521 29.2191 17.1059C29.517 17.3598 29.7106 17.648 29.7999 17.9706C29.8957 18.2954 29.8839 18.6427 29.7644 19.0126C29.6324 19.4215 29.4035 19.731 29.0777 19.9411C28.7519 20.1512 28.3688 20.2389 27.9286 20.2043L27.9788 20.0485C28.4253 20.2858 28.7313 20.5924 28.8966 20.9683C29.0704 21.3397 29.083 21.7558 28.9342 22.2166C28.7373 22.8266 28.3724 23.2355 27.8395 23.4433C27.3087 23.6446 26.6734 23.6258 25.9336 23.3869L23.4707 22.5917ZM24.4844 21.6828L26.0906 22.2014C26.48 22.3271 26.7896 22.3447 27.0195 22.2541C27.2515 22.157 27.4157 21.9592 27.5121 21.6607C27.6085 21.3622 27.5899 21.1089 27.4564 20.901C27.3228 20.6931 27.0614 20.5263 26.672 20.4005L25.0658 19.882L24.4844 21.6828ZM25.4273 18.7625L26.868 19.2276C27.2444 19.3492 27.5465 19.3679 27.7743 19.2838C28.0021 19.1997 28.1621 19.0148 28.2543 18.7293C28.3444 18.4502 28.3216 18.21 28.186 18.0085C28.0504 17.8071 27.7944 17.6456 27.418 17.5241L25.9773 17.0589L25.4273 18.7625Z" fill="white"/>
<path d="M32.2392 25.541C31.8563 25.4174 31.546 25.2133 31.3082 24.9287C31.0791 24.6397 30.9671 24.3205 30.9725 23.9711L31.1833 23.6844L30.9884 24.2879C30.9109 24.5281 30.7895 24.6931 30.6243 24.7831C30.4591 24.8731 30.2597 24.8804 30.026 24.8049C29.7924 24.7295 29.6316 24.6059 29.5438 24.4342C29.4624 24.2646 29.4604 24.0598 29.5379 23.8197L31.3263 18.2807C31.4059 18.0341 31.5272 17.8691 31.6904 17.7856C31.8621 17.6977 32.068 17.6925 32.3081 17.77C32.5417 17.8454 32.6992 17.968 32.7806 18.1376C32.8706 18.3028 32.8758 18.5087 32.7962 18.7553L32.0513 21.0624L31.9345 21.0247C32.1326 20.7661 32.407 20.5932 32.7577 20.5058C33.1084 20.4183 33.472 20.4354 33.8484 20.5569C34.2702 20.6931 34.6044 20.9121 34.851 21.2138C35.0975 21.5156 35.2487 21.8797 35.3045 22.3062C35.3603 22.7327 35.3054 23.2022 35.1399 23.7149C34.9743 24.2276 34.7432 24.6439 34.4465 24.9637C34.1497 25.2835 33.8099 25.4927 33.4269 25.5912C33.0505 25.6918 32.6546 25.6751 32.2392 25.541ZM32.1563 24.2996C32.364 24.3666 32.5625 24.3733 32.7517 24.3198C32.9475 24.2683 33.12 24.1556 33.2694 23.9817C33.4273 23.8034 33.5576 23.5552 33.6602 23.2372C33.8132 22.7635 33.8279 22.3848 33.7045 22.1013C33.5831 21.8113 33.3667 21.616 33.0552 21.5155C32.8475 21.4484 32.6468 21.4374 32.4532 21.4823C32.266 21.5294 32.0934 21.6421 31.9355 21.8204C31.7797 21.9923 31.6505 22.2372 31.5478 22.5552C31.3949 23.029 31.378 23.4141 31.4973 23.7106C31.6186 24.0006 31.8383 24.1969 32.1563 24.2996Z" fill="white"/>
<rect x="-0.331543" y="6.46289" width="25.3422" height="31.1818" rx="7.25626" transform="rotate(-7.1192 -0.331543 6.46289)" fill="#FE7034"/>
<rect x="2.17358" y="8.63867" width="20.9111" height="19.9791" rx="4.83751" transform="rotate(-7.1192 2.17358 8.63867)" fill="#E44623"/>
<rect x="6.57837" y="29.707" width="17.3924" height="1.46969" rx="0.734845" transform="rotate(-7.1192 6.57837 29.707)" fill="#E44623"/>
<rect x="10.1621" y="32.0449" width="10.8569" height="1.46969" rx="0.734845" transform="rotate(-7.1192 10.1621 32.0449)" fill="#E44623"/>
<g style="mix-blend-mode:screen">
<rect x="24.0974" y="10.459" width="0.682908" height="7.3573" rx="0.341454" transform="rotate(-7.1192 24.0974 10.459)" fill="#FE7034"/>
<rect x="25.124" y="18.6758" width="0.682908" height="2.1764" rx="0.341454" transform="rotate(-7.1192 25.124 18.6758)" fill="#FE7034"/>
</g>
<g style="mix-blend-mode:multiply">
<path d="M6.4519 22.5201C6.18075 22.5539 5.95058 22.5222 5.7614 22.4249C5.58191 22.3264 5.45537 22.1795 5.38178 21.984C5.31788 21.7874 5.33343 21.5576 5.42844 21.2946L8.18453 13.1233C8.30058 12.7926 8.45655 12.5453 8.65244 12.3813C8.84719 12.2081 9.08498 12.104 9.36581 12.0689C9.64665 12.0339 9.90274 12.0763 10.1341 12.1962C10.3643 12.307 10.5715 12.509 10.7556 12.8022L15.4659 20.0409C15.6226 20.2725 15.6948 20.496 15.6824 20.7115C15.6785 20.9166 15.6017 21.0889 15.4519 21.2286C15.301 21.359 15.0948 21.4406 14.8334 21.4732C14.5041 21.5144 14.2383 21.4731 14.036 21.3496C13.8434 21.2248 13.6599 21.0152 13.4854 20.7208L12.3754 18.9201L13.3498 19.3983L7.29244 20.1549L8.11927 19.4517L7.50074 21.4682C7.39551 21.8069 7.26974 22.0598 7.12341 22.2269C6.98562 22.3836 6.76179 22.4813 6.4519 22.5201ZM9.63531 14.4629L8.2993 18.8851L7.84018 18.3983L12.3868 17.8304L12.0615 18.4152L9.66436 14.4593L9.63531 14.4629Z" fill="#E44623"/>
<path d="M19.3243 20.9402C18.8014 21.0055 18.3197 20.968 17.8792 20.8277C17.4388 20.6874 17.0818 20.4669 16.8082 20.1662C16.5346 19.8656 16.3721 19.5092 16.3206 19.097C16.2588 18.6025 16.3458 18.1963 16.5815 17.8786C16.816 17.5516 17.2309 17.2905 17.8261 17.0953C18.4202 16.8909 19.2208 16.7258 20.228 16.6L20.9978 16.5038L21.1317 17.5753L20.3763 17.6697C19.8824 17.7314 19.484 17.809 19.1809 17.9027C18.8865 17.986 18.6789 18.0956 18.5582 18.2316C18.4471 18.3664 18.4048 18.5391 18.4311 18.7497C18.4631 19.0062 18.5814 19.2053 18.786 19.3472C19.0003 19.4879 19.2866 19.5358 19.6449 19.4911C19.9257 19.456 20.1652 19.3656 20.3634 19.2199C20.5701 19.0639 20.7233 18.8727 20.8228 18.6463C20.9213 18.4108 20.9533 18.1557 20.919 17.8809L20.7217 16.3011C20.6714 15.8981 20.5391 15.6263 20.3248 15.4857C20.1094 15.3359 19.7693 15.29 19.3045 15.348C19.043 15.3807 18.7613 15.4484 18.4594 15.5512C18.1661 15.6437 17.844 15.7816 17.4932 15.9649C17.2916 16.0831 17.1056 16.1296 16.9352 16.1043C16.7638 16.07 16.6264 15.9941 16.5233 15.8768C16.4189 15.7503 16.3571 15.6092 16.3376 15.4535C16.317 15.2886 16.346 15.1269 16.4245 14.9683C16.5019 14.8005 16.6474 14.666 16.861 14.565C17.2944 14.3341 17.7056 14.1618 18.0947 14.0481C18.4934 13.9332 18.8622 13.8546 19.2012 13.8123C19.9468 13.7191 20.5701 13.7483 21.0709 13.8996C21.5803 14.0407 21.9829 14.3113 22.2787 14.7115C22.5734 15.1025 22.7625 15.6323 22.8461 16.3009L23.227 19.3506C23.2693 19.6895 23.2147 19.9614 23.0633 20.1663C22.9119 20.3712 22.6715 20.4943 22.3423 20.5354C22.013 20.5765 21.7449 20.517 21.5381 20.3568C21.3409 20.1954 21.2211 19.9453 21.1788 19.6064L21.1153 19.0981L21.2273 19.1679C21.2081 19.4865 21.1159 19.7724 20.9508 20.0255C20.7943 20.2683 20.5788 20.472 20.3043 20.6365C20.0286 20.7918 19.702 20.8931 19.3243 20.9402Z" fill="#E44623"/>
</g>
<path d="M6.30873 22.201C6.03758 22.2349 5.80742 22.2032 5.61824 22.1059C5.43874 22.0074 5.3122 21.8604 5.23861 21.665C5.17471 21.4683 5.19027 21.2385 5.28527 20.9755L8.04136 12.8043C8.15742 12.4736 8.31339 12.2262 8.50928 12.0622C8.70402 11.8891 8.94181 11.785 9.22265 11.7499C9.50348 11.7148 9.75957 11.7572 9.99092 11.8772C10.2211 11.9879 10.4283 12.1899 10.6125 12.4832L15.3227 19.7219C15.4795 19.9534 15.5516 20.1769 15.5392 20.3924C15.5353 20.5975 15.4585 20.7699 15.3087 20.9095C15.1578 21.04 14.9517 21.1215 14.6902 21.1542C14.3609 21.1953 14.0952 21.1541 13.8929 21.0305C13.7003 20.9058 13.5167 20.6962 13.3423 20.4017L12.2322 18.6011L13.2066 19.0793L7.14928 19.8358L7.97611 19.1326L7.35757 21.1492C7.25234 21.4879 7.12657 21.7408 6.98024 21.9079C6.84246 22.0646 6.61862 22.1623 6.30873 22.201ZM9.49214 14.1439L8.15613 18.566L7.69702 18.0792L12.2436 17.5114L11.9183 18.0961L9.52119 14.1402L9.49214 14.1439Z" fill="white"/>
<path d="M19.1811 20.6212C18.6582 20.6865 18.1765 20.649 17.7361 20.5087C17.2956 20.3684 16.9386 20.1479 16.665 19.8472C16.3914 19.5465 16.2289 19.1901 16.1774 18.778C16.1157 18.2834 16.2026 17.8773 16.4383 17.5595C16.6729 17.2326 17.0878 16.9715 17.683 16.7762C18.277 16.5718 19.0777 16.4067 20.0848 16.2809L20.8547 16.1848L20.9885 17.2563L20.2331 17.3506C19.7393 17.4123 19.3408 17.49 19.0378 17.5836C18.7433 17.6669 18.5357 17.7766 18.415 17.9126C18.304 18.0473 18.2616 18.2201 18.2879 18.4307C18.32 18.6871 18.4383 18.8863 18.6428 19.0281C18.8571 19.1688 19.1434 19.2168 19.5017 19.172C19.7825 19.1369 20.0221 19.0466 20.2202 18.9009C20.4269 18.7449 20.5801 18.5537 20.6797 18.3273C20.7781 18.0918 20.8102 17.8366 20.7759 17.5619L20.5785 15.9821C20.5282 15.5791 20.3959 15.3073 20.1817 15.1666C19.9662 15.0168 19.6261 14.9709 19.1613 15.029C18.8998 15.0616 18.6181 15.1294 18.3163 15.2322C18.0229 15.3246 17.7008 15.4625 17.35 15.6459C17.1484 15.764 16.9624 15.8105 16.7921 15.7853C16.6206 15.7509 16.4833 15.6751 16.3801 15.5577C16.2758 15.4312 16.2139 15.2901 16.1945 15.1344C16.1739 14.9696 16.2028 14.8079 16.2814 14.6492C16.3588 14.4814 16.5043 14.347 16.7178 14.2459C17.1512 14.0151 17.5625 13.8428 17.9515 13.7291C18.3502 13.6142 18.7191 13.5356 19.058 13.4932C19.8037 13.4001 20.4269 13.4292 20.9277 13.5806C21.4371 13.7216 21.8397 13.9922 22.1356 14.3924C22.4303 14.7835 22.6194 15.3133 22.7029 15.9818L23.0838 19.0316C23.1261 19.3704 23.0716 19.6423 22.9201 19.8473C22.7687 20.0522 22.5283 20.1752 22.1991 20.2164C21.8698 20.2575 21.6018 20.1979 21.3949 20.0378C21.1977 19.8764 21.0779 19.6262 21.0356 19.2874L20.9721 18.7791L21.0841 18.8488C21.0649 19.1674 20.9728 19.4533 20.8077 19.7065C20.6511 19.9493 20.4356 20.1529 20.1611 20.3174C19.8855 20.4728 19.5588 20.574 19.1811 20.6212Z" fill="white"/>
</g>
<defs>
<clipPath id="clip0_520_9389">
<rect width="40.7273" height="40.7273" fill="white"/>
</clipPath>
</defs>
</svg>
