<svg width="30" height="30" viewBox="0 0 30 30" fill="none" xmlns="http://www.w3.org/2000/svg">
<path d="M20.48 14.336V17.92C20.48 19.8995 22.0845 21.504 24.064 21.504V24.576H28.672V14.336H20.48Z" fill="#F0C6A4"/>
<path d="M29.6958 29.696H20.4798V27.648C20.4798 25.3875 22.3153 23.552 24.5758 23.552H29.6958V29.696Z" fill="#3397E8"/>
<path d="M9.21606 14.336V17.92C9.21606 19.8995 7.61158 21.504 5.63206 21.504V24.576H2.56006V14.336H9.21606Z" fill="#F0C6A4"/>
<path d="M1.152 23.552H4.608C7.15104 23.552 9.216 25.3875 9.216 27.648V29.696H0V24.576C0 24.0109 0.51624 23.552 1.152 23.552Z" fill="#A3D4F7"/>
<path d="M29.696 15.36V27.136H26.112V17.408C22.528 17.408 20.48 14.336 20.48 14.336C20.48 14.336 20.48 11.264 25.088 11.264C30.208 11.264 29.696 15.36 29.696 15.36Z" fill="#6A7073"/>
<path d="M2.56 17.92C2.56 17.92 3.072 16.384 6.656 16.384C10.24 16.384 10.24 11.776 10.24 11.776C10.24 11.776 8.192 12.288 5.12 12.288C2.048 12.288 0 13.824 0 16.896C0 19.968 2.56 21.504 2.56 21.504V17.92Z" fill="#6A7073"/>
<path d="M16.9103 1.024V6.144C16.9103 6.70976 16.452 7.168 15.8863 7.168H10.7663C10.7663 8.704 8.71828 9.216 8.71828 9.216V7.168H6.15828C5.59252 7.168 5.13428 6.70976 5.13428 6.144V1.024C5.13428 0.45824 5.59252 0 6.15828 0H15.8863C16.452 0 16.9103 0.45824 16.9103 1.024Z" fill="#A3D4F7"/>
<path d="M14.8623 3.07197V7.16797C14.8623 7.73373 15.3205 8.19197 15.8863 8.19197H19.9823C19.9823 9.72797 22.0303 9.72797 22.0303 9.72797V8.19197H23.5663C24.1321 8.19197 24.5903 7.73373 24.5903 7.16797V3.07197C24.5903 2.50621 24.1321 2.04797 23.5663 2.04797H15.8863C15.3205 2.04797 14.8623 2.50621 14.8623 3.07197Z" fill="#3397E8"/>
<path d="M12.8141 4.09602H8.71805C8.43517 4.09602 8.20605 3.8669 8.20605 3.58402C8.20605 3.30114 8.43517 3.07202 8.71805 3.07202H12.8141C13.0969 3.07202 13.3261 3.30114 13.3261 3.58402C13.3261 3.8669 13.0969 4.09602 12.8141 4.09602Z" fill="#3397E8"/>
<path d="M21.5179 5.63203H17.9339C17.651 5.63203 17.4219 5.40291 17.4219 5.12003C17.4219 4.83715 17.651 4.60803 17.9339 4.60803H21.5179C21.8008 4.60803 22.0299 4.83715 22.0299 5.12003C22.0299 5.40291 21.8008 5.63203 21.5179 5.63203Z" fill="#A3D4F7"/>
</svg>
