<svg width="264" height="44" viewBox="0 0 264 44" fill="none" xmlns="http://www.w3.org/2000/svg">
<path d="M11.712 43.2C10.368 43.2 9.152 42.784 8.064 41.952C6.976 41.056 6.304 39.904 6.048 38.496L0.192 7.29599C0.064 6.01599 0.416 4.95999 1.248 4.12799C2.144 3.29599 3.232 2.87999 4.512 2.87999C5.6 2.87999 6.528 3.19999 7.296 3.83999C8.064 4.47999 8.544 5.34399 8.736 6.43199L12.192 27.456C12.32 28.224 12.608 28.608 13.056 28.608C13.44 28.608 13.728 28.256 13.92 27.552L18.528 10.56C18.848 9.34399 19.456 8.44799 20.352 7.87199C21.248 7.23199 22.208 6.91199 23.232 6.91199C24.256 6.91199 25.216 7.23199 26.112 7.87199C27.008 8.44799 27.616 9.34399 27.936 10.56L32.544 27.552C32.736 28.256 33.024 28.608 33.408 28.608C33.92 28.608 34.208 28.224 34.272 27.456L37.728 6.43199C37.92 5.34399 38.4 4.47999 39.168 3.83999C40 3.19999 40.928 2.87999 41.952 2.87999C43.232 2.87999 44.288 3.29599 45.12 4.12799C46.016 4.95999 46.4 6.01599 46.272 7.29599L40.32 38.496C40.064 39.904 39.392 41.056 38.304 41.952C37.216 42.784 36 43.2 34.656 43.2C33.44 43.2 32.288 42.816 31.2 42.048C30.176 41.216 29.408 40.128 28.896 38.784L24.096 21.888C23.904 21.184 23.616 20.832 23.232 20.832C22.784 20.832 22.464 21.184 22.272 21.888L17.472 38.784C17.088 40.128 16.352 41.216 15.264 42.048C14.176 42.816 12.992 43.2 11.712 43.2ZM64.215 43.2C61.463 43.2 58.935 42.56 56.631 41.28C54.327 40 52.471 38.24 51.063 36C49.719 33.696 49.047 31.104 49.047 28.224C49.047 25.28 49.719 22.72 51.063 20.544C52.471 18.304 54.327 16.576 56.631 15.36C58.935 14.08 61.463 13.44 64.215 13.44C67.031 13.44 69.559 14.08 71.799 15.36C74.103 16.576 75.927 18.304 77.271 20.544C78.615 22.72 79.287 25.28 79.287 28.224C79.287 31.104 78.615 33.696 77.271 36C75.927 38.24 74.103 40 71.799 41.28C69.559 42.56 67.031 43.2 64.215 43.2ZM64.215 35.424C66.199 35.424 67.799 34.752 69.015 33.408C70.295 32 70.935 30.272 70.935 28.224C70.935 26.112 70.295 24.416 69.015 23.136C67.799 21.856 66.199 21.216 64.215 21.216C62.295 21.216 60.663 21.856 59.319 23.136C58.039 24.416 57.399 26.112 57.399 28.224C57.399 30.272 58.039 32 59.319 33.408C60.663 34.752 62.295 35.424 64.215 35.424ZM89.247 42.912C88.031 42.912 87.007 42.56 86.175 41.856C85.343 41.152 84.927 40.256 84.927 39.168V17.664C84.927 16.64 85.311 15.776 86.079 15.072C86.911 14.304 87.967 13.92 89.247 13.92C90.399 13.92 91.327 14.272 92.031 14.976C92.799 15.616 93.247 16.416 93.375 17.376C94.079 16.288 95.039 15.36 96.255 14.592C97.471 13.824 98.751 13.44 100.095 13.44C100.927 13.44 101.727 13.536 102.495 13.728C103.391 13.984 104.127 14.496 104.703 15.264C105.279 15.968 105.567 16.8 105.567 17.76C105.567 19.104 105.119 20.224 104.223 21.12C103.391 21.952 102.399 22.24 101.247 21.984C100.415 21.792 99.583 21.696 98.751 21.696C97.279 21.696 96.063 22.208 95.103 23.232C94.143 24.256 93.567 26.336 93.375 29.472V39.072C93.375 40.16 92.959 41.088 92.127 41.856C91.359 42.56 90.399 42.912 89.247 42.912ZM121.05 43.2C116.762 43.2 113.306 41.856 110.682 39.168C108.122 36.416 106.842 32.768 106.842 28.224C106.842 23.68 108.09 20.096 110.586 17.472C113.146 14.784 116.538 13.44 120.762 13.44C123.514 13.44 125.978 14.432 128.154 16.416V3.83999C128.154 2.75199 128.538 1.85599 129.306 1.15199C130.074 0.383987 131.066 -1.23978e-05 132.282 -1.23978e-05C133.562 -1.23978e-05 134.586 0.383987 135.354 1.15199C136.186 1.85599 136.602 2.71999 136.602 3.74399V39.456C136.602 40.544 136.186 41.44 135.354 42.144C134.586 42.848 133.562 43.2 132.282 43.2C130.234 43.2 128.922 42.304 128.346 40.512C126.362 42.304 123.93 43.2 121.05 43.2ZM121.722 35.424C123.642 35.424 125.178 34.752 126.33 33.408C127.546 32 128.154 30.272 128.154 28.224C128.154 26.112 127.546 24.416 126.33 23.136C125.178 21.856 123.642 21.216 121.722 21.216C119.738 21.216 118.138 21.856 116.922 23.136C115.77 24.416 115.194 26.112 115.194 28.224C115.194 30.272 115.77 32 116.922 33.408C118.138 34.752 119.738 35.424 121.722 35.424Z" fill="#E46A28"/>
<path d="M148.459 43.2C147.307 43.2 146.283 42.816 145.387 42.048C144.555 41.216 144.139 40.256 144.139 39.168V9.31199C144.139 7.45599 144.683 6.01599 145.771 4.99199C146.859 3.90399 148.299 3.35999 150.091 3.35999H165.067C166.347 3.35999 167.339 3.71199 168.043 4.41599C168.747 5.11999 169.099 6.07999 169.099 7.29599C169.099 8.38399 168.715 9.31199 167.947 10.08C167.179 10.848 166.219 11.232 165.067 11.232H154.699C153.419 11.232 152.779 11.872 152.779 13.152V17.472C152.779 18.752 153.419 19.392 154.699 19.392H163.723C164.939 19.392 165.899 19.744 166.603 20.448C167.371 21.152 167.755 22.08 167.755 23.232C167.755 24.32 167.339 25.248 166.507 26.016C165.739 26.72 164.811 27.072 163.723 27.072H154.699C153.419 27.072 152.779 27.712 152.779 28.992V39.168C152.779 40.256 152.331 41.216 151.435 42.048C150.603 42.816 149.611 43.2 148.459 43.2ZM179.129 43.2C177.913 43.2 176.889 42.848 176.057 42.144C175.225 41.44 174.809 40.544 174.809 39.456V3.74399C174.809 2.71999 175.193 1.85599 175.961 1.15199C176.793 0.383987 177.849 -1.23978e-05 179.129 -1.23978e-05C180.345 -1.23978e-05 181.337 0.383987 182.105 1.15199C182.873 1.85599 183.257 2.75199 183.257 3.83999V39.36C183.257 40.448 182.841 41.376 182.009 42.144C181.241 42.848 180.281 43.2 179.129 43.2ZM204.109 43.2C201.357 43.2 198.829 42.56 196.525 41.28C194.221 40 192.365 38.24 190.957 36C189.613 33.696 188.941 31.104 188.941 28.224C188.941 25.28 189.613 22.72 190.957 20.544C192.365 18.304 194.221 16.576 196.525 15.36C198.829 14.08 201.357 13.44 204.109 13.44C206.925 13.44 209.453 14.08 211.693 15.36C213.997 16.576 215.821 18.304 217.165 20.544C218.509 22.72 219.181 25.28 219.181 28.224C219.181 31.104 218.509 33.696 217.165 36C215.821 38.24 213.997 40 211.693 41.28C209.453 42.56 206.925 43.2 204.109 43.2ZM204.109 35.424C206.093 35.424 207.693 34.752 208.909 33.408C210.189 32 210.829 30.272 210.829 28.224C210.829 26.112 210.189 24.416 208.909 23.136C207.693 21.856 206.093 21.216 204.109 21.216C202.189 21.216 200.557 21.856 199.213 23.136C197.933 24.416 197.293 26.112 197.293 28.224C197.293 30.272 197.933 32 199.213 33.408C200.557 34.752 202.189 35.424 204.109 35.424ZM232.235 43.2C231.019 43.2 229.899 42.848 228.875 42.144C227.915 41.44 227.275 40.384 226.955 38.976L221.195 18.816C221.131 18.56 221.067 18.336 221.003 18.144C221.003 17.952 221.003 17.76 221.003 17.568C221.003 16.416 221.419 15.456 222.251 14.688C223.083 13.856 224.107 13.44 225.323 13.44C227.435 13.44 228.715 14.4 229.163 16.32L232.139 30.432C232.331 31.136 232.619 31.488 233.003 31.488C233.451 31.488 233.771 31.168 233.963 30.528L238.091 18.336C238.475 17.248 239.083 16.448 239.915 15.936C240.747 15.424 241.611 15.168 242.507 15.168C243.403 15.168 244.267 15.424 245.099 15.936C245.995 16.448 246.571 17.248 246.827 18.336L250.859 30.528C251.051 31.168 251.339 31.488 251.723 31.488C252.107 31.488 252.395 31.136 252.587 30.432L255.563 16.32C256.011 14.4 257.291 13.44 259.403 13.44C260.619 13.44 261.643 13.856 262.475 14.688C263.307 15.456 263.723 16.416 263.723 17.568C263.723 17.76 263.691 17.952 263.627 18.144C263.627 18.336 263.595 18.56 263.531 18.816L257.771 38.976C257.387 40.384 256.683 41.44 255.659 42.144C254.699 42.848 253.611 43.2 252.395 43.2C251.307 43.2 250.283 42.88 249.323 42.24C248.363 41.536 247.627 40.48 247.115 39.072L243.275 27.744C243.083 27.04 242.795 26.688 242.411 26.688C241.963 26.688 241.643 27.04 241.451 27.744L237.611 39.072C237.163 40.48 236.427 41.536 235.403 42.24C234.443 42.88 233.387 43.2 232.235 43.2Z" fill="#1FB8B7"/>
</svg>
