<svg width="24" height="24" viewBox="0 0 24 24" fill="none" xmlns="http://www.w3.org/2000/svg">
<path d="M15.7016 21.2859C15.5141 21.4733 15.2599 21.5785 14.9948 21.5785C14.7297 21.5785 14.4755 21.4733 14.288 21.2859L12.7026 19.7004C12.5152 19.5129 12.4099 19.2587 12.4099 18.9936C12.4099 18.7286 12.5152 18.4744 12.7026 18.2869L18.2867 12.7028C18.4741 12.5154 18.7283 12.4102 18.9934 12.4102C19.2585 12.4102 19.5127 12.5154 19.7002 12.7028L21.2856 14.2883C21.473 14.4758 21.5783 14.73 21.5783 14.995C21.5783 15.2601 21.473 15.5143 21.2856 15.7018L15.7016 21.2859Z" stroke="#F8F9FA" stroke-width="1.9993" stroke-linecap="round" stroke-linejoin="round"/>
<path d="M17.9937 12.9952L16.6192 6.12359C16.5818 5.93664 16.4917 5.76427 16.3596 5.62683C16.2275 5.48938 16.0588 5.39259 15.8734 5.34786L3.23384 2.02702C3.06733 1.98676 2.89326 1.98997 2.72835 2.03634C2.56343 2.08271 2.41319 2.17068 2.29206 2.29181C2.17092 2.41295 2.08295 2.56318 2.03658 2.7281C1.99021 2.89302 1.987 3.06709 2.02726 3.2336L5.34811 15.8732C5.39283 16.0585 5.48963 16.2272 5.62707 16.3593C5.76452 16.4915 5.93688 16.5815 6.12384 16.6189L12.9954 17.9935" stroke="#F8F9FA" stroke-width="1.9993" stroke-linecap="round" stroke-linejoin="round"/>
<path d="M2.29919 2.29883L9.58266 9.58229" stroke="#F8F9FA" stroke-width="1.9993" stroke-linecap="round" stroke-linejoin="round"/>
<path d="M10.9961 12.9957C12.1003 12.9957 12.9954 12.1006 12.9954 10.9964C12.9954 9.89219 12.1003 8.99707 10.9961 8.99707C9.89194 8.99707 8.99683 9.89219 8.99683 10.9964C8.99683 12.1006 9.89194 12.9957 10.9961 12.9957Z" stroke="#F8F9FA" stroke-width="1.9993" stroke-linecap="round" stroke-linejoin="round"/>
</svg>
