<svg width="65" height="65" viewBox="0 0 65 65" fill="none" xmlns="http://www.w3.org/2000/svg">
<g clip-path="url(#clip0_577_8645)">
<path d="M59.5833 11.5554L52.9027 4.87488C52.3285 4.3274 51.5656 4.02197 50.7722 4.02197C49.9788 4.02197 49.2158 4.3274 48.6416 4.87488L42.7013 10.8332H10.8333C9.87555 10.8332 8.95705 11.2137 8.27984 11.8909C7.60262 12.5681 7.22217 13.4866 7.22217 14.4443V54.1665C7.22217 55.1243 7.60262 56.0428 8.27984 56.72C8.95705 57.3972 9.87555 57.7777 10.8333 57.7777H50.5555C51.5132 57.7777 52.4317 57.3972 53.1089 56.72C53.7862 56.0428 54.1666 55.1243 54.1666 54.1665V21.2332L59.5833 15.8166C60.1478 15.2512 60.4649 14.4849 60.4649 13.686C60.4649 12.8871 60.1478 12.1208 59.5833 11.5554ZM33.9986 36.3457L26.4333 38.0249L28.2388 30.5318L45.4819 13.2527L51.3138 19.0846L33.9986 36.3457ZM53.2638 17.0263L47.4319 11.1943L50.7722 7.85405L56.6041 13.686L53.2638 17.0263Z" fill="#E46A28"/>
</g>
<defs>
<clipPath id="clip0_577_8645">
<rect width="65" height="65" fill="white"/>
</clipPath>
</defs>
</svg>
